<?xml version="1.0" encoding="utf-8" ?>
<svg baseProfile="full" height="100%" version="1.1" viewBox="395,0,220,180" width="100%" xmlns="http://www.w3.org/2000/svg" xmlns:ev="http://www.w3.org/2001/xml-events" xmlns:xlink="http://www.w3.org/1999/xlink"><defs /><rect fill="white" height="180" width="1000" x="0" y="0" /><path d="M0,0 M404.33441162109375,49.403953552246094 L404.31658935546875,49.39364242553711 L404.289306640625,49.5422477722168 L404.25103759765625,50.01520538330078 L404.1904602050781,50.9681396484375 L404.0775146484375,52.447235107421875 L403.8861389160156,54.41897964477539 L403.6162109375,56.7870979309082 L403.2830505371094,59.40534973144531 L402.9285583496094,62.10573196411133 L402.5977783203125,64.7296142578125 L402.3155212402344,67.1312484741211 L402.1068420410156,69.16228485107422 L401.98919677734375,70.69717407226562 L401.95458984375,71.6659164428711 L401.97125244140625,72.1311264038086 L402.00634765625,72.25892639160156 M411.8234558105469,49.43665313720703 L411.8232727050781,49.73426818847656 L411.7687072753906,50.45920944213867 L411.6199951171875,51.7381591796875 L411.3678283691406,53.54800796508789 L411.03607177734375,55.76568603515625 L410.6643371582031,58.23084259033203 L410.3111267089844,60.78194046020508 L410.0110778808594,63.290645599365234 L409.7891540527344,65.60923767089844 L409.6648254394531,67.5842514038086 L409.6134338378906,68.96131896972656 L409.60430908203125,69.7071304321289 M403.1378173828125,60.079524993896484 L403.22515869140625,60.0130615234375 L403.55389404296875,59.832828521728516 L404.2749938964844,59.49164581298828 L405.4671630859375,58.969825744628906 L407.0932922363281,58.29486083984375 L409.0270690917969,57.540199279785156 L411.1080322265625,56.78624725341797 L413.18890380859375,56.098121643066406 L415.14288330078125,55.522804260253906 L416.8355407714844,55.05968475341797 L418.1549987792969,54.70573043823242 L419.0506896972656,54.452980041503906 L419.5216369628906,54.28913116455078 L419.622314453125,54.20380783081055 L419.4033508300781,54.22019958496094 L418.86865234375,54.38011932373047 L418.0119323730469,54.75330352783203 L416.88360595703125,55.408363342285156 L415.5640563964844,56.39307403564453 L414.19256591796875,57.728355407714844 L412.9010009765625,59.401580810546875 L411.806640625,61.34507751464844 L410.98260498046875,63.39992141723633 L410.48736572265625,65.34324645996094 L410.3396911621094,66.9466552734375 L410.54132080078125,68.04630279541016 L411.0594177246094,68.55812072753906 L411.86688232421875,68.46166229248047 L412.9107666015625,67.74234008789062 L414.1294250488281,66.4130630493164 L415.44970703125,64.55742645263672 L416.8065490722656,62.36322784423828 L418.0924987792969,60.10408401489258 L419.2140808105469,58.07720947265625 L420.0870361328125,56.484066009521484 L420.65478515625,55.4284782409668 L420.9083251953125,54.95555114746094 L420.90240478515625,55.106163024902344 L420.6640625,55.93878936767578 L420.252685546875,57.47880935668945 L419.7432861328125,59.58968734741211 L419.22076416015625,62.00351333618164 L418.7918395996094,64.3956069946289 L418.55694580078125,66.46029663085938 L418.5644836425781,67.99256134033203 L418.84027099609375,68.8763656616211 L419.3656921386719,69.02986907958984 L420.109619140625,68.42041778564453 L421.033935546875,67.09749603271484 L422.0872802734375,65.1827163696289 L423.21783447265625,62.90794372558594 L424.3533020019531,60.575531005859375 L425.3872375488281,58.484153747558594 L426.2377624511719,56.84346389770508 L426.8338623046875,55.788387298583984 L427.1529541015625,55.39982986450195 L427.2142028808594,55.73311233520508 L427.0299377441406,56.839195251464844 L426.6111755371094,58.66615676879883 L426.0126037597656,60.970760345458984 L425.3282775878906,63.38043975830078 L424.691650390625,65.52276611328125 L424.22210693359375,67.1330337524414 L423.9682312011719,68.13218688964844 L423.92535400390625,68.5194320678711 L424.08001708984375,68.27058410644531 L424.4453430175781,67.30755615234375 L425.048583984375,65.60677337646484 L425.9165344238281,63.32755661010742 L427.04315185546875,60.82324981689453 L428.36065673828125,58.504844665527344 L429.7506103515625,56.679996490478516 L431.08587646484375,55.47808074951172 L432.23272705078125,54.912750244140625 L433.10430908203125,54.985809326171875 L433.67242431640625,55.717403411865234 L433.9289855957031,57.09419250488281 L433.90179443359375,58.99359130859375 L433.6670837402344,61.190128326416016 L433.3205871582031,63.40829086303711 L432.9830017089844,65.4004135131836 L432.75946044921875,67.01817321777344 L432.6604919433594,68.10115051269531 L432.6490478515625,68.67268371582031 M443.436767578125,57.6591911315918 L443.4971008300781,57.36515808105469 L443.5145568847656,56.92322540283203 L443.41265869140625,56.40994644165039 L443.1172790527344,55.961936950683594 L442.62384033203125,55.63181686401367 L441.93035888671875,55.49822998046875 L441.05926513671875,55.66697311401367 L440.0123291015625,56.285301208496094 L438.8343505859375,57.46798324584961 L437.62066650390625,59.2359733581543 L436.51043701171875,61.45069885253906 L435.6477355957031,63.816802978515625 L435.14532470703125,65.98090362548828 L435.0413818359375,67.64950561523438 L435.3201904296875,68.66532135009766 L435.9353942871094,68.99368286132812 L436.80633544921875,68.63092041015625 L437.8631286621094,67.56572723388672 L439.023681640625,65.8360595703125 L440.22967529296875,63.57794189453125 L441.435546875,61.02225875854492 L442.6170654296875,58.43562316894531 L443.728515625,56.03059387207031 L444.7210998535156,53.943504333496094 L445.5274353027344,52.26667785644531 L446.12591552734375,51.02672576904297 L446.5066833496094,50.2228889465332 L446.6745300292969,49.86159896850586 L446.624267578125,49.9921989440918 L446.3354187011719,50.730491638183594 L445.806640625,52.215049743652344 L445.1002197265625,54.43721008300781 L444.31146240234375,57.22842025756836 L443.5589599609375,60.27667236328125 L442.959716796875,63.21934509277344 L442.5965270996094,65.75494384765625 L442.5101013183594,67.6949462890625 L442.69854736328125,68.93021392822266 L443.1289978027344,69.41230010986328 L443.754150390625,69.12635803222656 L444.5430603027344,68.10133361816406 L445.465576171875,66.44603729248047 L446.4739990234375,64.35488891601562 L447.5163269042969,62.10080337524414 L448.5252990722656,59.966068267822266 L449.4196472167969,58.16511535644531 L450.15032958984375,56.8469352722168 L450.6595764160156,56.110713958740234 L450.9012451171875,56.032047271728516 L450.8711853027344,56.67818069458008 L450.595947265625,58.06852340698242 L450.14013671875,60.06867218017578 L449.63287353515625,62.401344299316406 L449.2027587890625,64.69668579101562 L448.94317626953125,66.6179428100586 L448.9067687988281,67.97457885742188 L449.10064697265625,68.72852325439453 L449.5061340332031,68.89704895019531 L450.0987854003906,68.47042083740234 L450.8590393066406,67.44048309326172 L451.7395935058594,65.90699768066406 L452.6564636230469,64.14020538330078 L453.50128173828125,62.49782180786133 L454.1767578125,61.26589584350586 L454.61444091796875,60.5587158203125 L454.8311462402344,60.37797927856445 L454.913330078125,60.72004699707031 L454.9331970214844,61.5958251953125 L454.94879150390625,62.974735260009766 L455.0084228515625,64.67957305908203 L455.135009765625,66.4195556640625 L455.35009765625,67.91008758544922 L455.6832580566406,68.97611999511719 L456.10699462890625,69.54371643066406 L456.5856018066406,69.61174774169922 L457.0995788574219,69.16725158691406 L457.6271667480469,68.1909408569336 L458.1427917480469,66.72803497314453 L458.63690185546875,64.92219543457031 L459.0836486816406,62.976871490478516 L459.48187255859375,61.102413177490234 L459.86260986328125,59.439239501953125 L460.2509765625,58.04410171508789 L460.6576232910156,56.93612289428711 L461.0850830078125,56.11994171142578 L461.5205383300781,55.59107208251953 L461.96832275390625,55.33110809326172 L462.446533203125,55.291934967041016 L462.95050048828125,55.40319061279297 L463.46478271484375,55.59252166748047 L463.9612731933594,55.804908752441406 L464.4042663574219,56.009315490722656 L464.7701110839844,56.189422607421875 L465.04339599609375,56.342063903808594 L465.213623046875,56.45909118652344 L465.2996520996094,56.527523040771484 L465.3314208984375,56.549583435058594 L465.33013916015625,56.533382415771484 L465.3201904296875,56.50004959106445 L465.31024169921875,56.47187805175781 M467.5494079589844,55.76689529418945 L467.7023620605469,55.67453384399414 L467.9033203125,55.589935302734375 L468.0876159667969,55.613162994384766 L468.1584777832031,55.8839225769043 L468.08917236328125,56.502479553222656 L467.8559875488281,57.53754806518555 L467.4765625,58.982948303222656 L467.0028076171875,60.75596237182617 L466.5205078125,62.714378356933594 L466.1142883300781,64.66858673095703 L465.8369445800781,66.42074584960938 L465.6983642578125,67.80878448486328 L465.6741943359375,68.74463653564453 L465.72283935546875,69.25963592529297 L465.79058837890625,69.45918273925781 L465.84564208984375,69.42147827148438 L465.8818054199219,69.13199615478516 L465.9430847167969,68.4839859008789 L466.1037902832031,67.37014770507812 L466.4340515136719,65.80973052978516 L466.968505859375,63.94694900512695 L467.7141418457031,61.998844146728516 L468.6333923339844,60.17909622192383 L469.66302490234375,58.62694549560547 L470.7165832519531,57.40760040283203 L471.6943359375,56.53255844116211 L472.5107421875,55.98164749145508 L473.108642578125,55.74951171875 L473.4620361328125,55.878082275390625 L473.5750732421875,56.441776275634766 L473.47271728515625,57.51014709472656 L473.1887512207031,59.073158264160156 L472.7929382324219,61.01498794555664 L472.3662109375,63.15321731567383 L471.98321533203125,65.2668228149414 L471.70404052734375,67.1430892944336 L471.558349609375,68.62030029296875 L471.5274353027344,69.61517333984375 L471.5596923828125,70.14545440673828 L471.6064758300781,70.34481048583984 M474.3138427734375,49.55669403076172 L474.38446044921875,49.493553161621094 L474.51153564453125,49.4234733581543 L474.66595458984375,49.38357162475586 L474.8133850097656,49.373023986816406 L474.9241943359375,49.338890075683594 L475.017333984375,49.234580993652344 L475.0902404785156,49.09410095214844 L475.1445007324219,48.96691131591797 M480.17724609375,45.83633804321289 L480.16357421875,46.05436325073242 L480.0835876464844,46.65908432006836 L479.8916015625,47.81636047363281 L479.55975341796875,49.567970275878906 L479.1014099121094,51.83163833618164 L478.5687255859375,54.45724868774414 L478.0321044921875,57.26420974731445 L477.5545349121094,60.076114654541016 L477.190673828125,62.73431396484375 L476.96014404296875,65.05967712402344 L476.8568420410156,66.92301177978516 L476.8497619628906,68.18119812011719 L476.88525390625,68.77223205566406 L476.92236328125,68.7437515258789 L476.94366455078125,68.41070556640625 L476.9464111328125,68.04345703125 M475.9789733886719,59.306640625 L476.203369140625,59.20664596557617 L476.7291259765625,58.95185470581055 L477.62646484375,58.472652435302734 L478.8688659667969,57.741703033447266 L480.3518371582031,56.7807731628418 L481.9503173828125,55.69929122924805 L483.5291748046875,54.65794372558594 L484.9310607910156,53.805816650390625 L486.0245056152344,53.28790283203125 L486.7259826660156,53.22523880004883 L486.98834228515625,53.728431701660156 L486.8378601074219,54.88214111328125 L486.3551940917969,56.69186019897461 L485.6473693847656,58.99284362792969 L484.87030029296875,61.52271270751953 L484.19110107421875,63.94287109375 L483.720703125,65.94912719726562 L483.48150634765625,67.40147399902344 L483.43194580078125,68.21127319335938 L483.48577880859375,68.38967895507812 L483.5816955566406,68.05184173583984 L483.6697998046875,67.52671813964844 L483.7308654785156,67.06409454345703 M487.48809814453125,48.58531188964844 L487.5382995605469,48.542076110839844 L487.6289367675781,48.53821563720703 L487.753662109375,48.59332275390625 L487.9056396484375,48.686004638671875 L488.05865478515625,48.72771072387695 L488.2172546386719,48.67937088012695 L488.35101318359375,48.57621383666992 L488.4366455078125,48.48175048828125 M490.8285217285156,51.95992660522461 L490.8509521484375,51.998329162597656 L490.86322021484375,52.22215270996094 L490.8309326171875,52.79631042480469 L490.7077331542969,53.847679138183594 L490.4813232421875,55.40177536010742 L490.1448974609375,57.37843322753906 L489.73809814453125,59.620262145996094 L489.3201904296875,61.91511917114258 L488.95208740234375,64.01861572265625 L488.6740417480469,65.73284149169922 L488.5072326660156,66.941650390625 L488.43646240234375,67.59130859375 L488.46124267578125,67.66657257080078 L488.59320068359375,67.1180648803711 L488.8805236816406,65.87198638916016 L489.3834228515625,63.9830207824707 L490.1650390625,61.66145324707031 L491.257568359375,59.22259521484375 L492.64349365234375,56.995391845703125 L494.22357177734375,55.200401306152344 L495.84893798828125,53.945411682128906 L497.3259582519531,53.290184020996094 L498.48602294921875,53.29084014892578 L499.214599609375,53.99100875854492 L499.4849548339844,55.38129806518555 L499.3463134765625,57.337894439697266 L498.9256591796875,59.63762283325195 L498.3912048339844,61.993839263916016 L497.91253662109375,64.12352752685547 L497.5989685058594,65.82681274414062 L497.4604797363281,66.93798828125 L497.43792724609375,67.49478149414062 M507.0924987792969,55.14620590209961 L507.18109130859375,54.71588897705078 L507.241455078125,54.141841888427734 L507.16973876953125,53.604469299316406 L506.8624267578125,53.373043060302734 L506.2935485839844,53.55280685424805 L505.49102783203125,54.21617126464844 L504.5667724609375,55.376155853271484 L503.666748046875,56.97609329223633 L502.9443664550781,58.83549118041992 L502.5379333496094,60.709659576416016 L502.5147399902344,62.35808563232422 L502.8817443847656,63.60660171508789 L503.6108093261719,64.35628509521484 L504.6363525390625,64.537841796875 L505.85845947265625,64.10427856445312 L507.1734619140625,63.051231384277344 L508.4566650390625,61.4482536315918 L509.59228515625,59.499263763427734 L510.49774169921875,57.51825714111328 L511.131591796875,55.78950881958008 L511.4803161621094,54.51551055908203 L511.58685302734375,53.80198287963867 L511.48797607421875,53.669925689697266 L511.2106018066406,54.14873123168945 L510.78594970703125,55.30643081665039 L510.2625732421875,57.10261154174805 L509.6923828125,59.424381256103516 L509.156005859375,62.100006103515625 L508.69647216796875,64.92951965332031 L508.3065185546875,67.74497985839844 L507.94219970703125,70.44454956054688 L507.55291748046875,72.91645050048828 L507.0856018066406,75.06575012207031 L506.52099609375,76.81693267822266 L505.86126708984375,78.13006591796875 L505.1058349609375,79.00070190429688 L504.26165771484375,79.46810913085938 L503.3570861816406,79.58798217773438 L502.4210205078125,79.41080474853516 L501.5160827636719,78.96315002441406 L500.732421875,78.24938201904297 L500.1573486328125,77.27106475830078 L499.867919921875,76.03710174560547 L499.9278259277344,74.59939575195312 L500.35626220703125,73.04541015625 L501.1441650390625,71.46337127685547 L502.2567138671875,69.93335723876953 L503.6400146484375,68.53206634521484 L505.20440673828125,67.31123352050781 L506.8389892578125,66.32546997070312 L508.4066162109375,65.60830688476562 L509.7606201171875,65.15908813476562 L510.79217529296875,64.94087219238281 L511.46990966796875,64.8896255493164 L511.8296203613281,64.92715454101562 L511.95599365234375,64.99608612060547 L511.95501708984375,65.06696319580078 L511.90692138671875,65.14047241210938 L511.85394287109375,65.21794891357422 L511.8203430175781,65.29421997070312 L511.8092956542969,65.35631561279297 L511.80841064453125,65.39395141601562 L511.8127746582031,65.4094467163086 M535.6435546875,46.90816879272461 L535.425537109375,46.56013488769531 L535.0079345703125,46.05192184448242 L534.3665771484375,45.50994110107422 L533.5401000976562,45.13453674316406 L532.5322265625,45.0 L531.36572265625,45.15884017944336 L530.0975952148438,45.617881774902344 L528.8421020507812,46.39585876464844 L527.7387084960938,47.49278259277344 L526.9356689453125,48.89102554321289 L526.5296630859375,50.54457473754883 L526.5611572265625,52.398929595947266 L527.0130004882812,54.38438415527344 L527.803955078125,56.429054260253906 L528.8075561523438,58.46916580200195 L529.8678588867188,60.45505905151367 L530.810791015625,62.32213592529297 L531.4893798828125,64.01483917236328 L531.8156127929688,65.49880981445312 L531.732421875,66.75094604492188 L531.2425537109375,67.76593017578125 L530.3963623046875,68.55958557128906 L529.2536010742188,69.1210708618164 L527.9228515625,69.4415054321289 L526.5416259765625,69.51805877685547 L525.2275390625,69.35173797607422 L524.1014404296875,68.96344757080078 L523.2989501953125,68.33406829833984 L522.8842163085938,67.47553253173828 L522.8789672851562,66.44865417480469 L523.0972290039062,65.53824615478516 L523.3444213867188,64.9247055053711 M535.9588623046875,55.780696868896484 L536.0003051757812,55.77772903442383 L536.0396728515625,55.88634490966797 L536.063232421875,56.231109619140625 L536.0592041015625,56.929412841796875 L536.0460815429688,58.0108757019043 L536.0340576171875,59.435455322265625 L536.0468139648438,61.099544525146484 L536.0907592773438,62.838111877441406 L536.1814575195312,64.46698760986328 L536.3231201171875,65.81645202636719 L536.4964599609375,66.76927185058594 L536.681884765625,67.28524017333984 L536.87939453125,67.37369537353516 L537.1036987304688,67.02116394042969 L537.4066162109375,66.20700073242188 L537.846923828125,64.93006896972656 L538.4657592773438,63.29161071777344 L539.2737426757812,61.48176193237305 L540.23388671875,59.71950912475586 L541.27587890625,58.18860626220703 L542.3001708984375,56.9913330078125 L543.2078247070312,56.154083251953125 L543.925048828125,55.70063781738281 L544.3983154296875,55.66360855102539 L544.61279296875,56.09815979003906 L544.5789794921875,57.075775146484375 L544.3058471679688,58.604305267333984 L543.8334350585938,60.62705993652344 L543.2188110351562,63.032470703125 L542.5233154296875,65.6837387084961 L541.8203125,68.4471206665039 L541.158203125,71.20671081542969 L540.5481567382812,73.83794403076172 L539.9845581054688,76.22998046875 L539.4501953125,78.29207611083984 L538.9288330078125,79.91470336914062 L538.4320678710938,81.01099395751953 L537.9921875,81.5615234375 L537.673828125,81.70950317382812 L537.4951171875,81.64981842041016 M546.7660522460938,55.52484130859375 L546.7828369140625,55.551029205322266 L546.794189453125,55.773555755615234 L546.7752075195312,56.37200164794922 L546.6921997070312,57.4788703918457 L546.5219116210938,59.08409118652344 L546.255859375,61.05329132080078 L545.907958984375,63.146568298339844 L545.5406494140625,65.08638763427734 L545.2277221679688,66.66719818115234 L545.0200805664062,67.75836944580078 L544.9415893554688,68.29047393798828 L544.9817504882812,68.2330322265625 L545.1396484375,67.54641723632812 L545.4677734375,66.19322204589844 L546.038818359375,64.27775573730469 L546.9133911132812,62.01796340942383 L548.1139526367188,59.70560836791992 L549.5810546875,57.629608154296875 L551.2003784179688,56.001163482666016 L552.8317260742188,54.9252815246582 L554.3131713867188,54.473854064941406 L555.5087890625,54.68360900878906 L556.3204956054688,55.558597564697266 L556.701171875,57.052852630615234 L556.66748046875,59.05963897705078 L556.3017578125,61.39087677001953 L555.729248046875,63.82004165649414 L555.1126708984375,66.08154296875 L554.59716796875,67.92854309082031 L554.2794799804688,69.19585418701172 L554.1478271484375,69.87895965576172 L554.1339111328125,70.12252807617188 M563.4718017578125,47.66565704345703 L563.4703979492188,47.644893646240234 L563.4212646484375,47.795501708984375 L563.28173828125,48.31257629394531 L563.01318359375,49.36327362060547 L562.6194458007812,50.98045349121094 L562.13330078125,53.0851936340332 L561.6119384765625,55.5186882019043 L561.13720703125,58.1124267578125 L560.7724609375,60.690086364746094 L560.5556640625,63.057743072509766 L560.48291015625,65.05523681640625 L560.5101928710938,66.4769515991211 L560.5753173828125,67.19722747802734 L560.637939453125,67.24049377441406 L560.671875,66.92283630371094 L560.6842041015625,66.5443115234375 M558.204345703125,56.930084228515625 L558.3385620117188,56.95104217529297 L558.6981811523438,56.921512603759766 L559.3758544921875,56.75155258178711 L560.3768310546875,56.32429504394531 L561.6471557617188,55.57281494140625 L563.0909423828125,54.499412536621094 L564.6051025390625,53.175323486328125 L566.096923828125,51.70842361450195 L567.4839477539062,50.21811294555664 L568.6658935546875,48.79875183105469 L569.5801391601562,47.56188201904297 L570.2012329101562,46.591487884521484 L570.53955078125,45.9770393371582 L570.6275634765625,45.793426513671875 L570.4847412109375,46.11688995361328 L570.10986328125,47.02128219604492 L569.5247192382812,48.57122039794922 L568.7986450195312,50.728736877441406 L568.01953125,53.369544982910156 L567.2884521484375,56.27619552612305 L566.6822509765625,59.19118881225586 L566.2383422851562,61.85686111450195 L565.9639282226562,64.06686401367188 L565.8452758789062,65.704833984375 L565.84326171875,66.74807739257812 L565.9237060546875,67.21070861816406 L566.0870971679688,67.09871673583984 L566.3590087890625,66.36183166503906 L566.80126953125,64.97339630126953 L567.4669189453125,63.05717849731445 L568.3805541992188,60.891517639160156 L569.5084228515625,58.804073333740234 L570.7675170898438,57.07130813598633 L572.032958984375,55.835716247558594 L573.185791015625,55.14490509033203 L574.11279296875,55.03596496582031 L574.747802734375,55.565025329589844 L575.0563354492188,56.7343864440918 L575.0494995117188,58.45909118652344 L574.8049926757812,60.5417366027832 L574.440185546875,62.7082633972168 L574.0831298828125,64.69378662109375 L573.8482666015625,66.33177185058594 L573.7997436523438,67.47552490234375 L573.9326782226562,68.0823745727539 L574.2052001953125,68.18634796142578 L574.4828491210938,68.00997924804688 L574.679443359375,67.7678451538086 M577.0357666015625,62.50785446166992 L577.299560546875,62.52580642700195 L577.817138671875,62.45233154296875 L578.6052856445312,62.193450927734375 L579.5950927734375,61.67360305786133 L580.7252197265625,60.89565658569336 L581.9053344726562,59.899330139160156 L583.0308837890625,58.74419021606445 L584.00830078125,57.50197219848633 L584.7462768554688,56.25826644897461 L585.1693115234375,55.10199737548828 L585.2328491210938,54.13374710083008 L584.9073486328125,53.44416809082031 L584.20751953125,53.12665557861328 L583.1918334960938,53.28996658325195 L581.95458984375,54.02629089355469 L580.6165771484375,55.34712600708008 L579.3294677734375,57.16557693481445 L578.2423706054688,59.29130935668945 L577.506103515625,61.47591018676758 L577.2265625,63.484073638916016 L577.4605712890625,65.14456939697266 L578.1956787109375,66.33979797363281 L579.3722534179688,67.01742553710938 L580.8875732421875,67.16790771484375 L582.6189575195312,66.80760955810547 L584.426025390625,65.98957824707031 L586.1754150390625,64.78811645507812 L587.755126953125,63.29110336303711 L589.0975952148438,61.61259841918945 L590.176025390625,59.87793731689453 L591.0043334960938,58.21596145629883 L591.605224609375,56.75088882446289 L591.9996337890625,55.56008529663086 L592.212646484375,54.6720085144043 L592.2659301757812,54.08295822143555 L592.1854248046875,53.76350402832031 L592.0149536132812,53.696285247802734 L591.7847900390625,53.877586364746094 L591.5205688476562,54.30556869506836 L591.26318359375,54.96355438232422 L591.0505981445312,55.823726654052734 L590.9299926757812,56.835899353027344 L590.9544067382812,57.96098327636719 L591.136474609375,59.16130828857422 L591.457275390625,60.406524658203125 L591.8652954101562,61.66263198852539 L592.2772827148438,62.89929962158203 L592.6017456054688,64.0736312866211 L592.7599487304688,65.1466293334961 L592.6820678710938,66.08509826660156 L592.3552856445312,66.86860656738281 L591.8035888671875,67.47918701171875 L591.0857543945312,67.9084701538086 L590.2780151367188,68.1388931274414 L589.460205078125,68.16970825195312 L588.696533203125,68.03575897216797 L588.0631103515625,67.79864501953125 L587.61279296875,67.51131439208984 L587.385986328125,67.2083511352539 L587.4048461914062,66.87018585205078 L587.6912841796875,66.45354461669922 L588.2604370117188,65.92730712890625 L589.11376953125,65.27281951904297 L590.2277221679688,64.48268127441406 L591.5452270507812,63.560428619384766 L592.99072265625,62.50559616088867 L594.4942626953125,61.331398010253906 L595.9873046875,60.0829963684082 L597.394775390625,58.82855224609375 L598.63671875,57.67474365234375 L599.634521484375,56.70332717895508 L600.3370361328125,55.996734619140625 L600.7191772460938,55.634918212890625 L600.7940673828125,55.705360412597656 L600.5992431640625,56.295169830322266 L600.1727294921875,57.47456359863281 L599.594482421875,59.178504943847656 L598.9574584960938,61.24924087524414 L598.3636474609375,63.445701599121094 L597.9146118164062,65.50453186035156 L597.6575317382812,67.20068359375 L597.57177734375,68.4154052734375 L597.5907592773438,69.1133804321289 L597.6360473632812,69.40666961669922 M600.9703369140625,51.0675163269043 L601.011962890625,51.00684356689453 L601.0615234375,50.935813903808594 L601.1035766601562,50.876708984375 M611.070068359375,54.60885238647461 L611.017822265625,54.457313537597656 L610.8427124023438,54.206886291503906 L610.483154296875,53.91302490234375 L609.9088134765625,53.684906005859375 L609.1597290039062,53.6185188293457 L608.3106689453125,53.79759216308594 L607.46630859375,54.26469039916992 L606.7307739257812,55.029483795166016 L606.2110595703125,56.07030487060547 L605.9789428710938,57.33320999145508 L606.0790405273438,58.75634002685547 L606.4920654296875,60.27769088745117 L607.1546630859375,61.83946990966797 L607.942138671875,63.381526947021484 L608.7115478515625,64.8377914428711 L609.3109130859375,66.13630676269531 L609.6128540039062,67.22256469726562 L609.5433349609375,68.06973266601562 L609.0985107421875,68.69145202636719 L608.3106079101562,69.105224609375 L607.2526245117188,69.31962585449219 L606.0281982421875,69.32845306396484 L604.7503662109375,69.1473617553711 L603.5381469726562,68.76582336425781 L602.5071411132812,68.22496032714844 L601.7263793945312,67.58153533935547 L601.2401733398438,67.01919555664062 L601.0105590820312,66.64351654052734 " fill="none" stroke="#333333" stroke-linecap="round" stroke-width="2" /><path d="M0,0 M409.9635925292969,113.98831176757812 M408.4924011230469,115.42439270019531 L408.1536560058594,116.2577133178711 L407.6853332519531,117.69152069091797 L407.22991943359375,119.59803771972656 L406.9834899902344,121.59445190429688 L406.9775085449219,123.43950653076172 L407.1762390136719,124.91636657714844 L407.5295104980469,125.91305541992188 L408.02935791015625,126.34967803955078 L408.6988525390625,126.20623016357422 L409.5743713378906,125.4594497680664 L410.6472473144531,124.11805725097656 L411.86309814453125,122.26482391357422 L413.1348876953125,120.08560943603516 L414.3710021972656,117.8430404663086 L415.4897766113281,115.82449340820312 L416.4333190917969,114.22046661376953 L417.15093994140625,113.10186767578125 L417.6124267578125,112.47230529785156 L417.80731201171875,112.3448486328125 L417.7431945800781,112.79224395751953 L417.4443359375,113.92281341552734 L416.96002197265625,115.7326889038086 L416.3666687011719,118.031005859375 L415.7685546875,120.51216888427734 L415.27734375,122.85868835449219 L414.9530334472656,124.85865783691406 L414.83197021484375,126.36430358886719 L414.893798828125,127.30743408203125 L415.08416748046875,127.6800765991211 L415.2931213378906,127.67684936523438 L415.4503479003906,127.51663208007812 M425.59857177734375,112.25334167480469 L425.5668029785156,111.93009948730469 L425.394775390625,111.49917602539062 L424.9899597167969,111.1181869506836 L424.2952880859375,111.01529693603516 L423.358642578125,111.28585052490234 L422.29559326171875,111.97111511230469 L421.27783203125,113.02107238769531 L420.4831848144531,114.36814880371094 L420.0527038574219,115.89991760253906 L420.0434265136719,117.50845336914062 L420.4485168457031,119.1177749633789 L421.1645812988281,120.6748275756836 L422.01678466796875,122.12542724609375 L422.80670166015625,123.42268371582031 L423.3646240234375,124.51982116699219 L423.57513427734375,125.39228820800781 L423.4252624511719,126.05451202392578 L422.94158935546875,126.54630279541016 L422.1856689453125,126.90306091308594 L421.2320556640625,127.1375961303711 L420.2059631347656,127.25016784667969 L419.23101806640625,127.23555755615234 L418.4388122558594,127.11241149902344 L417.9853210449219,126.84703826904297 L417.9642028808594,126.41741943359375 L418.3756103515625,125.81158447265625 L418.94647216796875,125.21995544433594 L419.42718505859375,124.78475189208984 M431.295166015625,112.2484130859375 L431.2640380859375,112.35924530029297 L431.17059326171875,112.77760314941406 L430.97637939453125,113.6849365234375 L430.656982421875,115.15727233886719 L430.21710205078125,117.11551666259766 L429.6863708496094,119.39491271972656 L429.1089172363281,121.76100158691406 L428.5765686035156,123.96587371826172 L428.16534423828125,125.78317260742188 L427.9244384765625,127.05552673339844 L427.8324890136719,127.75743865966797 L427.8311767578125,128.02857971191406 M432.4839172363281,106.0498046875 L432.6440124511719,105.78144836425781 L432.8822021484375,105.44294738769531 L433.1157531738281,105.14541625976562 L433.26190185546875,105.0 M434.73284912109375,111.2701644897461 L434.6805725097656,111.61279296875 L434.5671081542969,112.35340118408203 L434.3695983886719,113.56297302246094 L434.0744934082031,115.1737060546875 L433.67584228515625,117.08988952636719 L433.1882019042969,119.1814193725586 L432.6729736328125,121.28942108154297 L432.20672607421875,123.21424102783203 L431.8609619140625,124.7838363647461 L431.6803894042969,125.87293243408203 L431.6659240722656,126.42120361328125 L431.8096923828125,126.40777587890625 L432.1253356933594,125.7901840209961 L432.6420593261719,124.52460479736328 L433.3983154296875,122.68375396728516 L434.4043884277344,120.47084045410156 L435.6158142089844,118.16620635986328 L436.9784851074219,116.06172943115234 L438.41656494140625,114.35939025878906 L439.840576171875,113.15778350830078 L441.1634216308594,112.5069808959961 L442.27410888671875,112.4296875 L443.064453125,112.93486785888672 L443.4869384765625,114.02984619140625 L443.5401611328125,115.67225646972656 L443.2739562988281,117.72779846191406 L442.7998962402344,119.98186492919922 L442.2535705566406,122.17469787597656 L441.75921630859375,124.05291748046875 L441.42120361328125,125.45978546142578 L441.25372314453125,126.31835174560547 L441.206298828125,126.7120361328125 M451.16650390625,115.5317153930664 L451.3013000488281,115.13999938964844 L451.4060974121094,114.60028839111328 L451.3729553222656,114.07256317138672 L451.07659912109375,113.77593231201172 L450.50372314453125,113.77572631835938 L449.6716003417969,114.12210083007812 L448.6415710449219,114.85087585449219 L447.4949035644531,116.0090560913086 L446.37921142578125,117.56843566894531 L445.43670654296875,119.36742401123047 L444.80853271484375,121.154296875 L444.57855224609375,122.6490249633789 L444.76605224609375,123.6265640258789 L445.332275390625,123.97714233398438 L446.2127380371094,123.67713928222656 L447.3011169433594,122.75782012939453 L448.49798583984375,121.32609558105469 L449.71429443359375,119.57093048095703 L450.86090087890625,117.75408935546875 L451.8441162109375,116.15037536621094 L452.59210205078125,114.96308898925781 L453.0496826171875,114.30486297607422 L453.20361328125,114.23355102539062 L453.09710693359375,114.79594421386719 L452.7832336425781,116.02767944335938 L452.3183288574219,117.8858871459961 L451.7602233886719,120.23104858398438 L451.1465148925781,122.8632583618164 L450.48919677734375,125.58284759521484 L449.80108642578125,128.24642944335938 L449.068603515625,130.759033203125 L448.28399658203125,133.0509796142578 L447.4547424316406,135.05731201171875 L446.58843994140625,136.70787048339844 L445.6996765136719,137.9490966796875 L444.791748046875,138.73385620117188 L443.8458251953125,139.03207397460938 L442.8403015136719,138.85960388183594 L441.797119140625,138.29159545898438 L440.7826232910156,137.38377380371094 L439.9199523925781,136.2649383544922 L439.2935791015625,135.0655975341797 L438.9370422363281,134.08126831054688 L438.7903747558594,133.4600067138672 M472.1666259765625,114.50006866455078 L472.06878662109375,114.19735717773438 L471.8664855957031,113.73004150390625 L471.53399658203125,113.18292999267578 L471.05810546875,112.70795440673828 L470.41510009765625,112.3736801147461 L469.6028747558594,112.25467681884766 L468.63092041015625,112.43818664550781 L467.52178955078125,113.03984832763672 L466.3307189941406,114.16941833496094 L465.1271057128906,115.87505340576172 L464.0234375,118.08255767822266 L463.128173828125,120.5521240234375 L462.54107666015625,122.94059753417969 L462.298583984375,124.9129638671875 L462.40203857421875,126.2531967163086 L462.8143310546875,126.89690399169922 L463.50372314453125,126.86522674560547 L464.42376708984375,126.17477416992188 L465.533935546875,124.84662628173828 L466.7901306152344,122.97555541992188 L468.13873291015625,120.76264190673828 L469.51324462890625,118.50902557373047 L470.79888916015625,116.51229095458984 L471.87603759765625,114.95899963378906 L472.65411376953125,113.8980484008789 L473.09912109375,113.31807708740234 L473.2158203125,113.22453308105469 L473.0462951660156,113.68660736083984 L472.59417724609375,114.7937240600586 L471.9137878417969,116.54804229736328 L471.1209716796875,118.78807830810547 L470.3763427734375,121.23286437988281 L469.8504333496094,123.56477355957031 L469.6744689941406,125.5125732421875 L469.8724365234375,126.92449188232422 L470.4508056640625,127.67947387695312 L471.3365478515625,127.7607650756836 L472.4173278808594,127.2575454711914 L473.36865234375,126.56301879882812 L474.0013122558594,125.98724365234375 M493.2001647949219,116.24638366699219 L493.174560546875,115.92884063720703 L493.0931701660156,115.41552734375 L492.9191589355469,114.78092956542969 L492.6120910644531,114.17786407470703 L492.12139892578125,113.68578338623047 L491.42706298828125,113.38790893554688 L490.53192138671875,113.36428833007812 L489.4586181640625,113.72599792480469 L488.2648620605469,114.58135986328125 L487.0230712890625,115.99781799316406 L485.8130798339844,117.95205688476562 L484.74932861328125,120.27995300292969 L483.94952392578125,122.69440460205078 L483.5019226074219,124.86659240722656 L483.464599609375,126.53588104248047 L483.8258361816406,127.545166015625 L484.5357666015625,127.83331298828125 L485.5482177734375,127.37376403808594 L486.8055114746094,126.16165924072266 L488.2400817871094,124.23033142089844 L489.8035888671875,121.71947479248047 L491.41278076171875,118.83895111083984 L492.9957275390625,115.85881805419922 L494.49090576171875,113.0487289428711 L495.821044921875,110.65576171875 L496.90765380859375,108.80290222167969 L497.70477294921875,107.53178405761719 L498.16375732421875,106.82538604736328 L498.2697448730469,106.69750213623047 L498.03289794921875,107.22128295898438 L497.46978759765625,108.52261352539062 L496.6325378417969,110.59716033935547 L495.630126953125,113.288330078125 L494.59136962890625,116.30421447753906 L493.64862060546875,119.30978393554688 L492.9375305175781,122.00341796875 L492.5209045410156,124.17621612548828 L492.3853454589844,125.7280044555664 L492.4761047363281,126.61175537109375 L492.64776611328125,126.973388671875 L492.7850341796875,127.02852630615234 M502.37078857421875,116.05919647216797 L502.4729919433594,115.70803833007812 L502.52685546875,115.21990966796875 L502.40789794921875,114.7218246459961 L501.9974365234375,114.41795349121094 L501.2744140625,114.40696716308594 L500.278076171875,114.8048095703125 L499.1048583984375,115.71041870117188 L497.8869934082031,117.18148040771484 L496.77276611328125,119.1328125 L495.9064636230469,121.33277130126953 L495.37939453125,123.476318359375 L495.226806640625,125.26754760742188 L495.43817138671875,126.49845886230469 L495.9818115234375,127.07456970214844 L496.8029479980469,126.96357727050781 L497.8310546875,126.16880798339844 L498.9704284667969,124.7607650756836 L500.11212158203125,122.89889526367188 L501.1582946777344,120.82846069335938 L502.0432434082031,118.83891296386719 L502.73028564453125,117.14000701904297 L503.22430419921875,115.8239517211914 L503.5538635253906,114.8762435913086 L503.7872009277344,114.25308227539062 L503.98675537109375,113.89900970458984 L504.2062072753906,113.77847290039062 L504.4056701660156,113.79527282714844 L504.54986572265625,113.86302947998047 M511.01983642578125,114.60588073730469 L510.8518981933594,114.48670959472656 L510.4681701660156,114.35883331298828 L509.814697265625,114.3403549194336 L508.90185546875,114.60314178466797 L507.78216552734375,115.28069305419922 L506.5344543457031,116.45895385742188 L505.2824401855469,118.13627624511719 L504.1746520996094,120.19036102294922 L503.361083984375,122.39982604980469 L502.9513244628906,124.4950942993164 L503.0029602050781,126.24933624267578 L503.48028564453125,127.49894714355469 L504.31524658203125,128.16152954101562 L505.4346008300781,128.19131469726562 L506.7642822265625,127.5667953491211 L508.2296447753906,126.29954528808594 L509.76971435546875,124.48628234863281 L511.3001708984375,122.27627563476562 L512.7479858398438,119.86650848388672 L514.0682983398438,117.45909881591797 L515.221435546875,115.22837829589844 L516.1709594726562,113.31243896484375 L516.8936767578125,111.82282257080078 L517.3847045898438,110.78340148925781 L517.6514892578125,110.1874771118164 L517.7056884765625,110.02586364746094 L517.5556640625,110.33434295654297 L517.1859130859375,111.20185089111328 L516.5885009765625,112.7154541015625 L515.823486328125,114.80624389648438 L514.97998046875,117.2960205078125 L514.1453247070312,119.90768432617188 L513.41845703125,122.34507751464844 L512.84716796875,124.37734985351562 L512.4453735351562,125.88490295410156 L512.21533203125,126.83812713623047 L512.1381225585938,127.30841064453125 L512.165771484375,127.36981964111328 L512.2883911132812,127.03998565673828 L512.5220947265625,126.2911148071289 L512.9138793945312,125.10710906982422 L513.5073852539062,123.5791015625 L514.3265380859375,121.89710998535156 L515.32861328125,120.26072692871094 L516.4403076171875,118.8239517211914 L517.5775146484375,117.6705322265625 L518.646240234375,116.80705261230469 L519.567626953125,116.2186508178711 L520.2759399414062,115.87520599365234 L520.709716796875,115.7235107421875 L520.8179931640625,115.71765899658203 L520.5717163085938,115.84576416015625 L519.9365844726562,116.10489654541016 L518.9376220703125,116.51261901855469 L517.6414184570312,117.08465576171875 L516.1732177734375,117.79776763916016 L514.6981201171875,118.60587310791016 L513.3922729492188,119.4646224975586 L512.3836059570312,120.33509826660156 L511.7518615722656,121.19790649414062 L511.50970458984375,122.04789733886719 L511.6412658691406,122.85755157470703 L512.1107788085938,123.59172821044922 L512.8848266601562,124.21217346191406 L513.9219360351562,124.68927764892578 L515.162841796875,125.00349426269531 L516.5386962890625,125.1556396484375 L517.9891357421875,125.14189910888672 L519.4534301757812,124.94682312011719 L520.8948974609375,124.54637145996094 L522.2894897460938,123.91525268554688 L523.60595703125,123.0528564453125 L524.8091430664062,121.99339294433594 L525.84423828125,120.79949951171875 L526.646240234375,119.54818725585938 L527.1669921875,118.32699584960938 L527.387939453125,117.2157211303711 L527.3148803710938,116.29827117919922 L526.9798583984375,115.64994812011719 L526.396484375,115.34908294677734 L525.581787109375,115.47996520996094 L524.5687255859375,116.1156005859375 L523.4257202148438,117.2672119140625 L522.2813110351562,118.86467742919922 L521.288818359375,120.74104309082031 L520.586181640625,122.68263244628906 L520.284912109375,124.48439025878906 L520.4317016601562,125.98995971679688 L521.01123046875,127.08539581298828 L521.978271484375,127.69966888427734 L523.2407836914062,127.77849578857422 L524.7074584960938,127.31256103515625 L526.2796630859375,126.3416748046875 L527.8521728515625,124.96975708007812 L529.3281860351562,123.35252380371094 L530.6234130859375,121.684326171875 L531.6471557617188,120.14817810058594 L532.3831787109375,118.88959503173828 L532.8321533203125,117.9809799194336 L533.0192260742188,117.47357177734375 L532.9803466796875,117.42025756835938 L532.74169921875,117.88876342773438 L532.29150390625,118.92084503173828 L531.6852416992188,120.45256042480469 L531.0072021484375,122.29254150390625 L530.36376953125,124.17887878417969 L529.8545532226562,125.84519958496094 L529.5411987304688,127.11668395996094 L529.4052734375,127.92230224609375 L529.4127807617188,128.23434448242188 L529.5382080078125,128.0446319580078 L529.7825927734375,127.3217544555664 L530.1704711914062,126.0837631225586 L530.7374267578125,124.47673034667969 L531.4801025390625,122.7392349243164 L532.3654174804688,121.11471557617188 L533.3432006835938,119.78045654296875 L534.3662109375,118.78223419189453 L535.400634765625,118.10465240478516 L536.43115234375,117.71448516845703 L537.43408203125,117.57669067382812 L538.3797607421875,117.66271209716797 L539.2206420898438,117.94143676757812 L539.9086303710938,118.3774185180664 L540.40087890625,118.95144653320312 L540.661376953125,119.65724182128906 L540.67041015625,120.51569366455078 L540.4296875,121.57453918457031 L539.9742431640625,122.86235046386719 L539.3837890625,124.35899353027344 L538.7701416015625,125.96912384033203 L538.239501953125,127.52388763427734 L537.8687133789062,128.83448791503906 L537.6820068359375,129.7742919921875 L537.630126953125,130.30703735351562 L537.643798828125,130.52218627929688 M541.5678100585938,113.70010375976562 L541.635986328125,113.6591567993164 L541.77880859375,113.62593841552734 L541.942626953125,113.60917663574219 L542.0736083984375,113.61759948730469 M546.037109375,118.45227813720703 L546.3287963867188,118.229736328125 L546.900146484375,117.88642120361328 L547.7451171875,117.49702453613281 L548.7760009765625,117.19143676757812 L549.9105834960938,117.02701568603516 L551.0423583984375,117.02039337158203 L552.0643920898438,117.14991760253906 L552.859375,117.39299011230469 L553.2932739257812,117.7376937866211 L553.2744140625,118.19820404052734 L552.74365234375,118.817138671875 L551.7086181640625,119.6321029663086 L550.2576904296875,120.66767883300781 L548.5419921875,121.91429138183594 L546.7599487304688,123.31968688964844 L545.120849609375,124.77681732177734 L543.8060302734375,126.16590881347656 L542.952392578125,127.36787414550781 L542.634765625,128.2993621826172 L542.8577880859375,128.92494201660156 L543.5643310546875,129.24351501464844 L544.6439208984375,129.24615478515625 L545.9599609375,128.95431518554688 L547.37890625,128.37098693847656 L548.7581176757812,127.56240844726562 L549.9786376953125,126.6413803100586 L550.8543090820312,125.86708068847656 L551.3428955078125,125.37250518798828 M548.7318115234375,124.21273803710938 L548.8482666015625,124.23728942871094 L549.18701171875,124.2314682006836 L549.83447265625,124.13445281982422 L550.8173828125,123.8788070678711 L552.0836181640625,123.44158172607422 L553.54638671875,122.8201904296875 L555.0953979492188,122.04902648925781 L556.6153564453125,121.17829895019531 L557.972412109375,120.2644271850586 L559.057861328125,119.36441802978516 L559.7933349609375,118.54562377929688 L560.1253051757812,117.84938049316406 L560.03564453125,117.31787872314453 L559.5327758789062,117.00859832763672 L558.638671875,117.0033950805664 L557.4195556640625,117.38999938964844 L555.9970703125,118.23777770996094 L554.5156860351562,119.53306579589844 L553.14892578125,121.16688537597656 L552.0748291015625,122.96117401123047 L551.435302734375,124.7149658203125 L551.3125610351562,126.24122619628906 L551.713623046875,127.41571044921875 L552.65478515625,128.1259307861328 L554.046630859375,128.3369903564453 L555.7413940429688,128.09226989746094 L557.2406005859375,127.66600036621094 L558.2422485351562,127.28630065917969 M566.96240234375,118.98432922363281 L566.908935546875,118.76467895507812 L566.7703857421875,118.45700073242188 L566.4873046875,118.16622161865234 L566.0018310546875,118.05857849121094 L565.254150390625,118.24105072021484 L564.23046875,118.80745697021484 L562.9814453125,119.78849029541016 L561.6311645507812,121.1587905883789 L560.3583984375,122.79151916503906 L559.3343505859375,124.47128295898438 L558.681640625,125.97599792480469 L558.4591064453125,127.12759399414062 L558.66845703125,127.8102798461914 L559.2780151367188,127.96875 L560.2510375976562,127.56558227539062 L561.498779296875,126.5739974975586 L562.9217529296875,125.02578735351562 L564.419677734375,123.02526092529297 L565.905517578125,120.73910522460938 L567.3170166015625,118.36480712890625 L568.6009521484375,116.11128997802734 L569.672607421875,114.1733627319336 L570.4814453125,112.67993927001953 L571.0048828125,111.69869995117188 L571.2371826171875,111.25447082519531 L571.1922607421875,111.3497314453125 L570.8677978515625,112.03071594238281 L570.2716064453125,113.34820556640625 L569.4645385742188,115.24536895751953 L568.5443725585938,117.5657730102539 L567.63134765625,120.08113098144531 L566.8277587890625,122.54071044921875 L566.2001953125,124.76023864746094 L565.7923583984375,126.61677551269531 L565.5962524414062,128.045654296875 L565.5927124023438,129.00253295898438 L565.7474365234375,129.490478515625 L566.0023193359375,129.56236267089844 L566.248779296875,129.41644287109375 L566.4263916015625,129.22373962402344 M586.12158203125,110.30062103271484 L586.0172119140625,110.35823822021484 L585.785888671875,110.63396453857422 L585.3802490234375,111.28485870361328 L584.7767333984375,112.42674255371094 L583.951416015625,114.06871795654297 L582.9075317382812,116.15303802490234 L581.678466796875,118.54779052734375 L580.3540649414062,121.07429504394531 L579.0570678710938,123.51405334472656 L577.9278564453125,125.64236450195312 L577.046630859375,127.30982971191406 L576.49169921875,128.36685180664062 L576.2845458984375,128.76055908203125 L576.41455078125,128.55345153808594 L576.6953125,128.0796661376953 L576.9727172851562,127.62406921386719 M586.4609985351562,110.28240966796875 L586.4637451171875,110.30775451660156 L586.4873046875,110.52054595947266 L586.53466796875,111.07304382324219 L586.5986328125,112.08226013183594 L586.6484375,113.54879760742188 L586.66845703125,115.40390014648438 L586.6466064453125,117.5299301147461 L586.591064453125,119.78541564941406 L586.5157470703125,122.02171325683594 L586.4345703125,124.07732391357422 L586.3564453125,125.8143081665039 L586.2850341796875,127.07574462890625 L586.214599609375,127.77275848388672 L586.1383056640625,127.91439056396484 L586.0721435546875,127.74061584472656 L586.0245361328125,127.48494720458984 M582.5888671875,117.63774108886719 L582.637451171875,117.51497650146484 L582.892822265625,117.33341217041016 L583.4970092773438,117.11836242675781 L584.5235595703125,116.91114807128906 L585.9169921875,116.69503021240234 L587.5662231445312,116.46559143066406 L589.29443359375,116.21917724609375 L590.9461669921875,115.9732894897461 L592.375244140625,115.74687194824219 L593.47802734375,115.56221008300781 L594.1705322265625,115.43634033203125 L594.5072631835938,115.37129211425781 M600.109375,113.06995391845703 L599.961669921875,113.60213470458984 L599.6759033203125,114.60490417480469 L599.2401123046875,116.07947540283203 L598.6881103515625,117.86566925048828 L598.046630859375,119.86953735351562 L597.3536376953125,121.97842407226562 L596.6493530273438,124.09255981445312 L596.00341796875,126.07354736328125 L595.4711303710938,127.78240966796875 L595.0872192382812,129.099365234375 L594.8408203125,129.9939727783203 L594.713623046875,130.45301818847656 L594.6779174804688,130.46316528320312 L594.7246704101562,129.95114135742188 L594.8724365234375,128.84169006347656 L595.1414184570312,127.13265991210938 L595.531494140625,124.98521423339844 L596.0547485351562,122.60012817382812 L596.7225341796875,120.18024444580078 L597.5430908203125,117.85963439941406 L598.547607421875,115.73453521728516 L599.742919921875,113.89408874511719 L601.0914306640625,112.44830322265625 L602.51904296875,111.46554565429688 L603.9297485351562,110.9710693359375 L605.206298828125,110.94158935546875 L606.2461547851562,111.33068084716797 L606.9439086914062,112.07196044921875 L607.1920776367188,113.0815200805664 L606.9061279296875,114.27145385742188 L606.0518188476562,115.54714965820312 L604.6666259765625,116.81937408447266 L602.8828735351562,118.01514434814453 L600.906005859375,119.06825256347656 L598.96923828125,119.92469024658203 L597.3515625,120.52861785888672 L596.2510986328125,120.84723663330078 L595.7489013671875,120.89154052734375 L595.6767578125,120.78648376464844 L595.8023071289062,120.65119934082031 M610.4915161132812,114.90132141113281 L610.4483642578125,115.11438751220703 L610.3115234375,115.62814331054688 L610.0284423828125,116.5264663696289 L609.5860595703125,117.79789733886719 L609.0057373046875,119.38714599609375 L608.3158569335938,121.20917510986328 L607.5704956054688,123.17459106445312 L606.8046875,125.20870208740234 L606.065673828125,127.18403625488281 L605.415771484375,128.9491729736328 L604.9515380859375,130.23104858398438 L604.69189453125,130.95364379882812 " fill="none" stroke="gray" stroke-linecap="round" stroke-width="2" /></svg>