<?xml version="1.0" encoding="utf-8" ?>
<svg baseProfile="full" height="100%" version="1.1" viewBox="0,0,1000,120" width="100%" xmlns="http://www.w3.org/2000/svg" xmlns:ev="http://www.w3.org/2001/xml-events" xmlns:xlink="http://www.w3.org/1999/xlink"><defs /><rect fill="white" height="120" width="1000" x="0" y="0" /><path d="M0,0 M328.7860107421875,51.98469161987305 L328.8097229003906,52.023834228515625 L328.8107604980469,52.08793640136719 L328.78076171875,52.218666076660156 L328.71832275390625,52.47930145263672 L328.6372985839844,52.97593688964844 L328.49835205078125,53.770263671875 L328.2209167480469,54.9141960144043 L327.7459716796875,56.42448425292969 L327.0791931152344,58.2895393371582 L326.2903747558594,60.43620681762695 L325.4998779296875,62.74028778076172 L324.8059997558594,65.03380584716797 L324.2510681152344,67.15628051757812 L323.844482421875,68.99483489990234 L323.5602722167969,70.5040054321289 L323.35638427734375,71.58634948730469 L323.21490478515625,72.17366027832031 L323.1250915527344,72.25176239013672 L323.07427978515625,72.03083801269531 L323.05499267578125,71.73687744140625 M318.0809631347656,53.2348747253418 L318.07965087890625,53.217803955078125 L318.25225830078125,53.21860885620117 L318.79693603515625,53.227447509765625 L319.8965148925781,53.19166946411133 L321.6174621582031,53.015968322753906 L323.91046142578125,52.62077713012695 L326.63397216796875,52.018638610839844 L329.5677490234375,51.28606414794922 L332.4901123046875,50.55205154418945 L335.1646423339844,49.92499542236328 L337.3889465332031,49.474300384521484 L339.05279541015625,49.22629165649414 L340.1329345703125,49.22528839111328 L340.61651611328125,49.54475021362305 L340.5528259277344,50.31473159790039 L339.9718322753906,51.64844512939453 L338.929931640625,53.597373962402344 L337.56036376953125,56.097991943359375 L336.0388488769531,58.99444580078125 L334.55224609375,62.04700469970703 L333.2976379394531,64.95826721191406 L332.4062805175781,67.44377899169922 L331.91192626953125,69.31658935546875 L331.7818603515625,70.49171447753906 L331.9598388671875,70.99678039550781 L332.4236755371094,70.89022827148438 L333.2079162597656,70.18721771240234 L334.358642578125,68.93844604492188 L335.84210205078125,67.30464935302734 L337.5313415527344,65.531494140625 L339.23101806640625,63.90742111206055 L340.7244873046875,62.64482879638672 L341.8750305175781,61.82112121582031 L342.62506103515625,61.452030181884766 L342.99603271484375,61.567081451416016 L343.0383605957031,62.213619232177734 L342.82110595703125,63.41322708129883 L342.4266662597656,65.06033325195312 L341.9962158203125,66.90495300292969 L341.6871032714844,68.64997100830078 L341.6525573730469,70.04393768310547 L341.9678955078125,70.92922973632812 L342.6680908203125,71.25218963623047 L343.73248291015625,70.99635314941406 L345.12286376953125,70.16983795166016 L346.76727294921875,68.86348724365234 L348.5461730957031,67.23399353027344 L350.309326171875,65.49119567871094 L351.9051208496094,63.868045806884766 L353.19482421875,62.53506851196289 L354.1115417480469,61.579742431640625 L354.6393737792969,61.0536994934082 L354.80938720703125,60.976810455322266 L354.6960144042969,61.36992645263672 L354.3512268066406,62.26359176635742 L353.83331298828125,63.61626052856445 L353.2618713378906,65.2752685546875 L352.778076171875,67.02982330322266 L352.5516357421875,68.65303802490234 L352.7305908203125,69.94880676269531 L353.3757629394531,70.80378723144531 L354.46453857421875,71.13958740234375 L355.956787109375,70.89698791503906 L357.7693786621094,70.07586669921875 L359.8133239746094,68.75447845458984 L361.9817810058594,67.08028411865234 L364.14093017578125,65.2589111328125 L366.14263916015625,63.49500274658203 L367.89373779296875,61.963871002197266 L369.3318786621094,60.78685760498047 L370.4585266113281,60.028778076171875 L371.306640625,59.703678131103516 L371.9181823730469,59.80666732788086 L372.32666015625,60.327816009521484 L372.557373046875,61.245914459228516 L372.59332275390625,62.508358001708984 L372.4195556640625,64.0129165649414 L372.0053405761719,65.61418914794922 L371.34185791015625,67.16923522949219 L370.4561767578125,68.5429916381836 L369.40155029296875,69.61400604248047 L368.2677001953125,70.32048034667969 L367.16717529296875,70.67459106445312 L366.19085693359375,70.69239807128906 L365.4100341796875,70.4437026977539 L364.85382080078125,69.99351501464844 L364.519775390625,69.52985382080078 L364.36627197265625,69.18395233154297 M367.0536804199219,54.81589889526367 L367.0785217285156,54.8118896484375 L367.1264953613281,54.80074691772461 L367.1798400878906,54.786827087402344 L367.2208557128906,54.77447509765625 M388.36480712890625,62.99166488647461 L388.71337890625,62.67277908325195 L389.372314453125,62.06951904296875 L390.3543395996094,61.18735885620117 L391.5723876953125,60.11603546142578 L392.9503173828125,58.954036712646484 L394.34326171875,57.834068298339844 L395.5855712890625,56.882408142089844 L396.5162353515625,56.22100830078125 L397.04833984375,55.95487976074219 L397.185302734375,56.1390495300293 L396.9654235839844,56.849727630615234 L396.4212341308594,58.12305450439453 L395.60272216796875,59.8939094543457 L394.6502380371094,62.02336502075195 L393.7579345703125,64.26622772216797 L393.16278076171875,66.33203125 L393.0325927734375,67.99341583251953 L393.4288330078125,69.10472106933594 L394.31402587890625,69.5837631225586 L395.70257568359375,69.3212661743164 L397.48468017578125,68.29759216308594 L399.494384765625,66.62611389160156 L401.2021179199219,64.95365905761719 L402.30487060546875,63.74885940551758 M402.18328857421875,48.53662872314453 L402.0211181640625,48.30211639404297 L401.85284423828125,48.045654296875 L401.72918701171875,47.84687042236328 L401.7008972167969,47.7853889465332 M409.283447265625,58.31559753417969 L409.207763671875,58.14564895629883 L409.0155944824219,57.83543014526367 L408.65313720703125,57.43144607543945 L408.0946044921875,57.056785583496094 L407.3195495605469,56.809654235839844 L406.39776611328125,56.747642517089844 L405.429443359375,56.87163543701172 L404.5460205078125,57.16935348510742 L403.86041259765625,57.612022399902344 L403.46771240234375,58.18753433227539 L403.395751953125,58.86433029174805 L403.7086181640625,59.619632720947266 L404.4342041015625,60.41562271118164 L405.56622314453125,61.2280158996582 L407.0233459472656,62.02452850341797 L408.68035888671875,62.80113220214844 L410.3450622558594,63.55968475341797 L411.84942626953125,64.31729888916016 L413.05487060546875,65.0756607055664 L413.87359619140625,65.82344055175781 L414.2795104980469,66.54066467285156 L414.2883605957031,67.21504974365234 L413.92742919921875,67.84370422363281 L413.2117919921875,68.41803741455078 L412.1506042480469,68.91426086425781 L410.7590026855469,69.28993225097656 L409.1073913574219,69.50768280029297 L407.267333984375,69.51752471923828 L405.3900146484375,69.3189926147461 L403.634033203125,68.95507049560547 L402.315185546875,68.58386993408203 L401.5435791015625,68.31617736816406 M436.57080078125,60.572914123535156 L436.302734375,60.339168548583984 L435.82965087890625,60.02458953857422 L435.14019775390625,59.74176025390625 L434.27935791015625,59.67048263549805 L433.2171325683594,59.8960075378418 L431.9604797363281,60.495697021484375 L430.5478820800781,61.48808288574219 L429.10223388671875,62.8437385559082 L427.77935791015625,64.4407730102539 L426.75146484375,66.09626007080078 L426.1455993652344,67.59490966796875 L426.03753662109375,68.75981140136719 L426.44183349609375,69.45755004882812 L427.3389892578125,69.6187973022461 L428.669677734375,69.23060607910156 L430.33612060546875,68.33759307861328 L432.2027282714844,67.0513916015625 L434.10491943359375,65.51439666748047 L435.889892578125,63.881282806396484 L437.42791748046875,62.31299591064453 L438.6181640625,60.96940612792969 L439.4386291503906,59.94432830810547 L439.908447265625,59.29315185546875 L440.0556945800781,59.01923370361328 L439.92340087890625,59.11682891845703 L439.54205322265625,59.615272521972656 L438.94482421875,60.56340026855469 L438.2391052246094,61.89970016479492 L437.577880859375,63.496726989746094 L437.10284423828125,65.15790557861328 L436.9447021484375,66.68819427490234 L437.1959228515625,67.94876098632812 L437.8935852050781,68.85018920898438 L439.0465087890625,69.30907440185547 L440.63702392578125,69.29383850097656 L442.6280517578125,68.7939682006836 L444.8754577636719,67.91870880126953 L447.1690673828125,66.85549926757812 L448.9947509765625,65.9450454711914 L450.1080322265625,65.37112426757812 M470.102783203125,63.178489685058594 L470.1443176269531,63.05182647705078 L470.1710205078125,62.83216857910156 L470.1444091796875,62.523719787597656 L470.0176086425781,62.17015075683594 L469.7623596191406,61.79044723510742 L469.35546875,61.398841857910156 L468.80377197265625,61.015384674072266 L468.08758544921875,60.67434310913086 L467.2152404785156,60.419281005859375 L466.1896057128906,60.32508850097656 L465.0047302246094,60.4658203125 L463.67181396484375,60.89636993408203 L462.2565612792969,61.64936065673828 L460.84246826171875,62.711395263671875 L459.56787109375,64.0173110961914 L458.56378173828125,65.4561538696289 L457.9356689453125,66.87776947021484 L457.7447509765625,68.1298828125 L458.02435302734375,69.09149169921875 L458.75390625,69.6605453491211 L459.9058837890625,69.76689147949219 L461.425537109375,69.36370849609375 L463.22064208984375,68.44477081298828 L465.1716003417969,67.05073547363281 L467.15447998046875,65.27318572998047 L469.052490234375,63.216888427734375 L470.805908203125,61.011695861816406 L472.39678955078125,58.77529525756836 L473.81109619140625,56.62965393066406 L475.0247802734375,54.693756103515625 L475.986083984375,53.08147430419922 L476.6525573730469,51.85810852050781 L477.0245666503906,51.07201385498047 L477.11761474609375,50.7496337890625 L476.97412109375,50.9222297668457 L476.6086730957031,51.6491584777832 L476.00634765625,52.97378158569336 L475.183349609375,54.84713363647461 L474.2044982910156,57.13664245605469 L473.162109375,59.63847732543945 L472.21142578125,62.110084533691406 L471.50103759765625,64.35391998291016 L471.1346740722656,66.22859954833984 L471.18182373046875,67.65093994140625 L471.6504211425781,68.58586883544922 L472.49908447265625,69.01929473876953 L473.6927185058594,68.95233917236328 L475.1820068359375,68.41314697265625 L476.89044189453125,67.47413635253906 L478.72198486328125,66.25069427490234 L480.5546875,64.86714935302734 L482.2719421386719,63.43864059448242 L483.7698669433594,62.078582763671875 L484.95166015625,60.87302017211914 L485.7490234375,59.883636474609375 L486.1396179199219,59.154808044433594 L486.13385009765625,58.69298553466797 L485.79510498046875,58.51403045654297 L485.1697998046875,58.6634407043457 L484.2965087890625,59.18276596069336 L483.2354736328125,60.08881378173828 L482.09088134765625,61.35847854614258 L480.98406982421875,62.88042449951172 L480.0820007324219,64.50418853759766 L479.51971435546875,66.06549072265625 L479.4072265625,67.39993286132812 L479.82403564453125,68.39213562011719 L480.7942199707031,68.95156860351562 L482.286376953125,69.01091766357422 L484.2196044921875,68.5426254272461 L486.44232177734375,67.58016967773438 L488.79229736328125,66.21576690673828 L491.10784912109375,64.62188720703125 L493.21856689453125,62.973331451416016 L494.9910583496094,61.45635223388672 L496.337158203125,60.210506439208984 L497.21978759765625,59.301849365234375 L497.6851501464844,58.74557113647461 L497.8150634765625,58.57456970214844 L497.6631774902344,58.81565856933594 L497.2403564453125,59.5289192199707 L496.57373046875,60.73221206665039 L495.7162780761719,62.30595779418945 L494.806884765625,64.04883575439453 L494.0113830566406,65.73743438720703 L493.4488220214844,67.16259765625 L493.16168212890625,68.18987274169922 L493.1676025390625,68.7562255859375 L493.4556579589844,68.81024169921875 L494.07403564453125,68.34278869628906 L495.06500244140625,67.37588500976562 L496.4189758300781,66.01225280761719 L498.069091796875,64.4210205078125 L499.88629150390625,62.82279968261719 L501.6885986328125,61.41728591918945 L503.3141174316406,60.35075378417969 L504.6188049316406,59.685569763183594 L505.50738525390625,59.45149230957031 L505.97491455078125,59.64875411987305 L506.0548095703125,60.275856018066406 L505.7969665527344,61.283935546875 L505.2784118652344,62.5723991394043 L504.5972900390625,63.956573486328125 L503.87957763671875,65.23822021484375 L503.2679138183594,66.2608642578125 L502.8721923828125,66.93262481689453 L502.7574462890625,67.18964385986328 L502.9678955078125,67.00882720947266 L503.55230712890625,66.37133026123047 L504.546630859375,65.33351135253906 L505.9176330566406,64.03897857666016 L507.5780029296875,62.6662712097168 L509.40185546875,61.38379669189453 L511.2301025390625,60.326778411865234 L512.9208984375,59.56611251831055 L514.3758544921875,59.144447326660156 L515.508056640625,59.07270431518555 L516.263916015625,59.34164047241211 L516.6512451171875,59.95171356201172 L516.6668701171875,60.87317657470703 L516.338623046875,62.03885269165039 L515.76318359375,63.342193603515625 L515.0897216796875,64.63777160644531 L514.4645385742188,65.78759765625 L514.0259399414062,66.72515106201172 L513.8196411132812,67.42182159423828 L513.8544311523438,67.88922882080078 L514.1209716796875,68.1305923461914 L514.674072265625,68.13424682617188 L515.561767578125,67.86478424072266 L516.80322265625,67.31433868408203 L518.3673095703125,66.50713348388672 L520.1925048828125,65.51341247558594 L522.1654663085938,64.40653991699219 L524.2144165039062,63.2828369140625 L526.264404296875,62.22832489013672 L528.21240234375,61.31975555419922 L529.941650390625,60.61566925048828 L531.3359375,60.14021301269531 L532.2993774414062,59.86861801147461 L532.8193359375,59.749298095703125 L532.9939575195312,59.72761154174805 L532.9659423828125,59.749542236328125 L532.8603515625,59.77300262451172 L532.7432861328125,59.75951385498047 L532.5997314453125,59.6982421875 L532.3519897460938,59.58980178833008 L531.932861328125,59.49273681640625 L531.2764892578125,59.489593505859375 L530.3577880859375,59.69126510620117 L529.1917724609375,60.18029022216797 L527.8414306640625,61.00775146484375 L526.420654296875,62.13655090332031 L525.0950927734375,63.474063873291016 L524.0494384765625,64.873046875 L523.4596557617188,66.19710540771484 L523.4273071289062,67.30564880371094 L523.9758911132812,68.09374237060547 L525.0451049804688,68.46540832519531 L526.5226440429688,68.37727355957031 L528.2557373046875,67.83470916748047 L530.0658569335938,66.9166259765625 L531.7655029296875,65.73068237304688 L533.2022705078125,64.42729187011719 L534.260986328125,63.13705062866211 L534.9134521484375,61.99248504638672 L535.1793212890625,61.0732307434082 L535.1478881835938,60.415889739990234 L534.9375610351562,59.99420166015625 L534.721435546875,59.77667236328125 L534.6395263671875,59.70414352416992 L534.9202880859375,59.72151184082031 L535.6832275390625,59.76677322387695 L536.93310546875,59.791202545166016 L538.1980590820312,59.78247833251953 L539.1354370117188,59.75897216796875 M563.340087890625,61.27720260620117 L563.3672485351562,61.17671203613281 L563.3702392578125,60.96452331542969 L563.28466796875,60.61533737182617 L563.0491943359375,60.16858673095703 L562.6112670898438,59.674224853515625 L561.956298828125,59.20805740356445 L561.0906982421875,58.84014129638672 L560.017578125,58.651920318603516 L558.7459716796875,58.69784927368164 L557.314453125,59.06370544433594 L555.7619018554688,59.798458099365234 L554.1710205078125,60.90751647949219 L552.6629638671875,62.328006744384766 L551.3831787109375,63.952301025390625 L550.4947509765625,65.6143798828125 L550.1259765625,67.15392303466797 L550.3325805664062,68.41752624511719 L551.0802001953125,69.2712631225586 L552.2779541015625,69.626220703125 L553.8135375976562,69.4518814086914 L555.5723876953125,68.7757797241211 L557.4175415039062,67.68682098388672 L559.22119140625,66.31957244873047 L560.8299560546875,64.81241607666016 L562.1154174804688,63.31120300292969 L563.0093994140625,61.93760299682617 L563.521484375,60.803104400634766 L563.71875,59.97616195678711 L563.7210693359375,59.48297119140625 L563.6365966796875,59.30419921875 L563.5662231445312,59.40696334838867 L563.615966796875,59.72041702270508 L563.9034423828125,60.140777587890625 L564.5590209960938,60.488861083984375 L565.6751708984375,60.572269439697266 L567.2774658203125,60.23482131958008 L569.3194580078125,59.41606903076172 L571.6783447265625,58.136932373046875 L574.1551513671875,56.46916961669922 L576.5697021484375,54.50757598876953 L578.7306518554688,52.40486526489258 L580.478515625,50.34938049316406 L581.7315673828125,48.54876708984375 L582.458740234375,47.14494705200195 L582.6473999023438,46.20515441894531 L582.3555908203125,45.76599884033203 L581.6068725585938,45.896575927734375 L580.4097900390625,46.702674865722656 L578.7988891601562,48.30089569091797 L576.833251953125,50.701011657714844 L574.609130859375,53.81914138793945 L572.281005859375,57.492034912109375 L569.9871826171875,61.505882263183594 L567.849853515625,65.61479187011719 L565.963134765625,69.569580078125 L564.3797607421875,73.07648468017578 L563.1489868164062,75.88057708740234 L562.287109375,77.86214447021484 L561.78271484375,79.03408813476562 L561.6314086914062,79.3880615234375 L561.791259765625,79.01586151123047 L562.19287109375,78.01653289794922 L562.63818359375,76.88146209716797 L562.9737548828125,76.00120544433594 M566.738037109375,67.54850769042969 L566.7379150390625,67.0141830444336 L566.770751953125,66.30908966064453 L566.9102783203125,65.61620330810547 L567.2679443359375,65.14828491210938 L567.970458984375,64.85240173339844 L569.0842895507812,64.6383056640625 L570.679443359375,64.4065933227539 L572.671630859375,64.15203094482422 L574.8778076171875,63.86738586425781 L576.7305908203125,63.6158332824707 L577.9207153320312,63.441986083984375 M600.413818359375,60.21248245239258 M600.6907958984375,58.91636657714844 L600.65234375,58.65794372558594 L600.515380859375,58.28990936279297 L600.216552734375,57.90297317504883 L599.7154541015625,57.64971160888672 L599.0091552734375,57.58537673950195 L598.1064453125,57.7510871887207 L597.0680541992188,58.155643463134766 L595.9874267578125,58.793540954589844 L594.971923828125,59.6251220703125 L594.1485595703125,60.61772155761719 L593.6138916015625,61.72687911987305 L593.4266357421875,62.92294692993164 L593.60498046875,64.17086791992188 L594.111572265625,65.41414642333984 L594.8737182617188,66.60090637207031 L595.797607421875,67.68842315673828 L596.7445068359375,68.61842346191406 L597.5884399414062,69.3602066040039 L598.2215576171875,69.89779663085938 L598.5474243164062,70.23206329345703 L598.5196533203125,70.4023666381836 L598.092041015625,70.45186614990234 L597.2236328125,70.39862823486328 L595.9456787109375,70.26325988769531 L594.3861694335938,70.05599975585938 L592.7168579101562,69.77041625976562 L591.1608276367188,69.4176025390625 L589.891845703125,69.03775024414062 L588.9937744140625,68.6769790649414 L588.4637451171875,68.39857482910156 L588.2698974609375,68.2333984375 L588.3719482421875,68.15505981445312 L588.799072265625,68.0975570678711 L589.6224365234375,67.9981689453125 L590.8893432617188,67.78504943847656 L592.5927734375,67.41696166992188 L594.6690673828125,66.85462188720703 L597.0195922851562,66.06048583984375 L599.551025390625,65.00746154785156 L602.1734619140625,63.68935775756836 L604.7874145507812,62.10493850708008 L607.3013916015625,60.27806091308594 L609.642333984375,58.27251052856445 L611.7403564453125,56.169227600097656 L613.5457763671875,54.087181091308594 L615.016357421875,52.165672302246094 L616.112060546875,50.531314849853516 L616.8361206054688,49.2718391418457 L617.248291015625,48.432498931884766 L617.3900146484375,48.01264953613281 L617.2974853515625,48.03023910522461 L616.9608154296875,48.527427673339844 L616.3363037109375,49.569190979003906 L615.4227294921875,51.17793655395508 L614.2637939453125,53.27597427368164 L612.920166015625,55.723690032958984 L611.4837036132812,58.361236572265625 L610.0391845703125,61.01240539550781 L608.6737060546875,63.5363655090332 L607.501220703125,65.77103424072266 L606.5970458984375,67.55905151367188 L606.0219116210938,68.74681091308594 L605.7425537109375,69.36286926269531 L605.6613159179688,69.5570068359375 M606.7900390625,63.07988357543945 L606.7703857421875,63.160972595214844 L606.8218994140625,63.38396453857422 L607.0307006835938,63.778282165527344 L607.4844970703125,64.2723388671875 L608.2305908203125,64.72470092773438 L609.3155517578125,64.97301483154297 L610.728271484375,64.89693450927734 L612.438720703125,64.4532470703125 L614.3729248046875,63.674171447753906 L616.4069213867188,62.631954193115234 L618.3822021484375,61.46381759643555 L620.1189575195312,60.319828033447266 L621.4609375,59.35306167602539 L622.3233642578125,58.666229248046875 L622.70458984375,58.32314682006836 L622.63916015625,58.357398986816406 L622.16455078125,58.81496047973633 L621.3370361328125,59.72797393798828 L620.3078002929688,61.04258346557617 L619.2933959960938,62.600460052490234 L618.5376586914062,64.1832046508789 L618.204345703125,65.57616424560547 L618.3279418945312,66.64820861816406 L618.8839111328125,67.34297943115234 L619.8272705078125,67.61166381835938 L621.1002197265625,67.43035125732422 L622.6450805664062,66.8014907836914 L624.3638916015625,65.77633666992188 L626.1337890625,64.47897338867188 L627.828125,63.07390594482422 L629.30078125,61.73184585571289 L630.4195556640625,60.60442352294922 L631.1365966796875,59.78617477416992 L631.4688720703125,59.30270004272461 L631.4952392578125,59.1515998840332 L631.2918701171875,59.33790969848633 L630.8812255859375,59.90852737426758 L630.250732421875,60.9188232421875 L629.439697265625,62.386329650878906 L628.5009765625,64.25634002685547 L627.489013671875,66.4225082397461 L626.434814453125,68.7527084350586 L625.323974609375,71.12875366210938 L624.1253662109375,73.45372009277344 L622.8438720703125,75.62387084960938 L621.5048217773438,77.52552032470703 L620.1702880859375,79.04379272460938 L618.9255981445312,80.09346008300781 L617.8416137695312,80.64692687988281 L616.973876953125,80.74710083007812 L616.35986328125,80.43890380859375 L616.0238037109375,79.76973724365234 L616.0274658203125,78.77043914794922 L616.4392700195312,77.48554992675781 L617.2886962890625,75.9869384765625 L618.5723876953125,74.3653793334961 L620.2462158203125,72.6807632446289 L622.2386474609375,70.96786499023438 L624.52001953125,69.24919128417969 L627.0576171875,67.51468658447266 L629.8143920898438,65.76342010498047 L632.748046875,63.98936080932617 L635.7946166992188,62.1722297668457 L638.8641967773438,60.285377502441406 L641.88427734375,58.327781677246094 L644.7525634765625,56.2858772277832 L647.3751831054688,54.19087219238281 L649.675537109375,52.10892105102539 L651.5657958984375,50.137351989746094 L652.9617309570312,48.38839340209961 L653.823974609375,46.950111389160156 L654.1363525390625,45.8751335144043 L653.91064453125,45.20707321166992 L653.197265625,45.0 L652.02734375,45.33738708496094 L650.42724609375,46.28705596923828 L648.4796142578125,47.828826904296875 L646.3369140625,49.875335693359375 L644.1837158203125,52.27858352661133 L642.2327880859375,54.864051818847656 L640.656494140625,57.467491149902344 L639.549072265625,59.925376892089844 L638.975341796875,62.078853607177734 L638.9826049804688,63.83576202392578 L639.556396484375,65.13971710205078 L640.65625,65.96656799316406 L642.1889038085938,66.31294250488281 L644.0064697265625,66.19414520263672 L645.95654296875,65.64668273925781 L647.9086303710938,64.77759552001953 L649.7183837890625,63.69837188720703 L651.2738037109375,62.51999282836914 L652.4714965820312,61.334991455078125 L653.2278442382812,60.2213249206543 L653.51708984375,59.24049377441406 L653.3582763671875,58.476680755615234 L652.7890625,58.01853942871094 L651.8677978515625,57.95670700073242 L650.656982421875,58.34749984741211 L649.2698364257812,59.188140869140625 L647.89208984375,60.4013557434082 L646.7341918945312,61.84225082397461 L646.015380859375,63.34115219116211 L645.8994140625,64.71724700927734 L646.4768676757812,65.80827331542969 L647.7755126953125,66.49424743652344 L649.7283935546875,66.73326110839844 L652.2760009765625,66.48170471191406 L655.2164306640625,65.79729461669922 L658.2706298828125,64.7878189086914 L660.737548828125,63.82529067993164 L662.273681640625,63.15000915527344 M670.24609375,55.12565612792969 L670.3478393554688,54.76292419433594 L670.7251586914062,54.17390060424805 L671.5095825195312,53.432857513427734 L672.754638671875,52.70068359375 L674.3878173828125,52.037994384765625 L676.26318359375,51.52003479003906 L678.2105712890625,51.20033645629883 L680.0596923828125,51.13686752319336 L681.6130981445312,51.35057067871094 L682.716552734375,51.846923828125 L683.2425537109375,52.60447692871094 L683.1150512695312,53.63158416748047 L682.30126953125,54.9371452331543 L680.8311157226562,56.504638671875 L678.820556640625,58.27261734008789 L676.5054931640625,60.14433288574219 L674.1991577148438,61.98367691040039 L672.2175903320312,63.654170989990234 L670.7730712890625,65.05249786376953 L669.9628295898438,66.12773132324219 L669.781494140625,66.8818588256836 L670.170166015625,67.33786010742188 L671.094970703125,67.54708862304688 L672.5234375,67.53008270263672 L674.3908081054688,67.341796875 L676.5806274414062,67.057861328125 L678.8995361328125,66.76957702636719 L681.1514282226562,66.53956604003906 L683.1627197265625,66.41783905029297 L684.8132934570312,66.37747955322266 L685.9373168945312,66.38439178466797 L686.5435180664062,66.40148162841797 M690.191650390625,66.54398345947266 L690.2491455078125,66.55171203613281 L690.335205078125,66.55938720703125 L690.419921875,66.56460571289062 L690.4730224609375,66.56494903564453 M695.58837890625,68.0970687866211 L695.6134033203125,68.1281967163086 L695.630615234375,68.14663696289062 L695.62646484375,68.14447784423828 L695.61328125,68.09957122802734 L695.6195068359375,68.0179672241211 L695.6524047851562,67.92121124267578 L695.7168579101562,67.83544921875 L695.7802734375,67.76821899414062 L695.8155517578125,67.74972534179688 L695.8178100585938,67.76879119873047 L695.7796630859375,67.81277465820312 L695.7077026367188,67.8569564819336 L695.635498046875,67.88932800292969 L695.5850830078125,67.90113830566406 L695.565185546875,67.90287017822266 L695.569091796875,67.89886474609375 M706.3544921875,59.59404754638672 L706.383544921875,59.62310791015625 L706.5983276367188,59.59898376464844 L706.901611328125,59.53978729248047 L707.196533203125,59.46363067626953 " fill="none" stroke="black" stroke-linecap="round" stroke-width="1" /></svg>