<?xml version="1.0" encoding="utf-8" ?>
<svg baseProfile="full" height="100%" version="1.1" viewBox="0,0,1000,120" width="100%" xmlns="http://www.w3.org/2000/svg" xmlns:ev="http://www.w3.org/2001/xml-events" xmlns:xlink="http://www.w3.org/1999/xlink"><defs /><rect fill="white" height="120" width="1000" x="0" y="0" /><path d="M0,0 M358.02642822265625,52.73351287841797 L358.0329284667969,53.32381820678711 L358.0463562011719,54.5290412902832 L358.03466796875,56.382469177246094 L357.96746826171875,58.71535873413086 L357.83050537109375,61.33680725097656 L357.6620178222656,64.04610443115234 L357.513916015625,66.67756652832031 L357.4466857910156,69.03819274902344 L357.4596252441406,70.90689086914062 L357.5243225097656,72.13153076171875 L357.59210205078125,72.73417663574219 L357.6365051269531,72.89759063720703 M349.621826171875,51.44465637207031 L350.0513000488281,51.108245849609375 L350.9778747558594,50.622161865234375 L352.4736633300781,50.08852767944336 L354.4422302246094,49.635684967041016 L356.749267578125,49.25269317626953 L359.2146911621094,48.910194396972656 L361.6581726074219,48.582794189453125 L363.89971923828125,48.28239822387695 L365.78155517578125,48.02284622192383 L367.2302551269531,47.792213439941406 L368.15704345703125,47.618064880371094 L368.6260681152344,47.505916595458984 M368.494140625,47.63462829589844 L368.5177307128906,48.030860900878906 L368.534423828125,48.898345947265625 L368.51776123046875,50.313777923583984 L368.45904541015625,52.20713806152344 L368.3724365234375,54.453189849853516 L368.29473876953125,56.917816162109375 L368.243408203125,59.45556640625 L368.2413635253906,61.894500732421875 L368.2831726074219,64.03685760498047 L368.3705749511719,65.71605682373047 L368.4979248046875,66.76897430419922 L368.7104797363281,67.12666320800781 L369.0552062988281,66.79057312011719 L369.60400390625,65.81336212158203 L370.378662109375,64.33463287353516 L371.3515319824219,62.606266021728516 L372.428955078125,60.87349319458008 L373.502685546875,59.35953140258789 L374.4743347167969,58.23334503173828 L375.2886962890625,57.586204528808594 L375.9061584472656,57.48836135864258 L376.3334045410156,57.99739456176758 L376.58306884765625,59.092933654785156 L376.6846008300781,60.64563751220703 L376.73101806640625,62.45208740234375 L376.8196105957031,64.24365234375 L377.0341796875,65.79610443115234 L377.433837890625,66.92711639404297 L378.0342102050781,67.52131652832031 L378.82672119140625,67.51545715332031 L379.8074951171875,66.9195785522461 L380.91424560546875,65.78575134277344 L382.0465393066406,64.28343200683594 L383.07635498046875,62.634544372558594 L383.903076171875,61.09972381591797 L384.47857666015625,59.868587493896484 L384.8254699707031,59.063541412353516 L384.99432373046875,58.7135009765625 L385.04290771484375,58.83544921875 L385.03436279296875,59.435760498046875 L385.0330505371094,60.510009765625 L385.0863952636719,61.93062973022461 L385.2554626464844,63.52872848510742 L385.6221923828125,65.06293487548828 L386.2000732421875,66.31039428710938 L386.9574279785156,67.13833618164062 L387.6591491699219,67.56549072265625 L388.136962890625,67.69528198242188 M386.9773254394531,53.14230728149414 L387.033203125,53.176536560058594 L387.2076110839844,53.26252746582031 L387.4306945800781,53.36711502075195 L387.632568359375,53.45713424682617 M397.53350830078125,57.35175323486328 L397.29400634765625,57.27185821533203 L396.78009033203125,57.21224594116211 L395.9627990722656,57.268150329589844 L394.94305419921875,57.52614212036133 L393.87921142578125,58.009334564208984 L392.975830078125,58.69005584716797 L392.4305419921875,59.514034271240234 L392.36505126953125,60.43997573852539 L392.81439208984375,61.4384880065918 L393.7294006347656,62.47663497924805 L394.9562683105469,63.537139892578125 L396.2929992675781,64.59142303466797 L397.5289306640625,65.60394287109375 L398.43841552734375,66.52064514160156 L398.85791015625,67.296142578125 L398.7023010253906,67.89300537109375 L397.96124267578125,68.29198455810547 L396.7327575683594,68.48070526123047 L395.210205078125,68.48008728027344 L393.61053466796875,68.28369903564453 L392.16534423828125,67.93484497070312 L391.0396728515625,67.48937225341797 L390.3324890136719,67.09093475341797 L389.99652099609375,66.82105255126953 M414.75836181640625,61.11316680908203 L414.8005065917969,61.314788818359375 L414.8571472167969,61.79025650024414 L414.91552734375,62.60791015625 L414.9538879394531,63.740596771240234 L414.9874267578125,65.0927505493164 L415.03851318359375,66.53634643554688 L415.17626953125,67.96002960205078 L415.4596252441406,69.16551208496094 L415.90631103515625,69.97982025146484 L416.47271728515625,70.29364013671875 L416.9830322265625,70.24586486816406 L417.3175354003906,70.04460906982422 M424.4173583984375,59.128868103027344 M424.13494873046875,56.62820053100586 L423.68463134765625,56.51687240600586 L423.1500549316406,56.396183013916016 L422.69903564453125,56.30405044555664 M428.1444396972656,58.60955810546875 L427.8996887207031,58.81088638305664 L427.5173645019531,59.21175003051758 L427.0707092285156,59.833587646484375 L426.7195739746094,60.64374923706055 L426.5635681152344,61.610443115234375 L426.6953125,62.70822525024414 L427.1464538574219,63.89530944824219 L427.8843994140625,65.11554718017578 L428.76361083984375,66.29137420654297 L429.58929443359375,67.35176849365234 L430.15325927734375,68.23802947998047 L430.29693603515625,68.94966888427734 L429.9659118652344,69.497802734375 L429.16717529296875,69.9046630859375 L427.96954345703125,70.17506408691406 L426.5028076171875,70.30062103271484 L424.97314453125,70.28932189941406 L423.5937805175781,70.18133544921875 L422.6199951171875,70.0503921508789 L422.10125732421875,69.95304107666016 M449.66131591796875,64.72640228271484 L449.823486328125,64.57261657714844 L450.00433349609375,64.28356170654297 L450.0462646484375,63.874149322509766 L449.79400634765625,63.44209289550781 L449.17938232421875,63.08396530151367 L448.2190856933594,62.922157287597656 L447.024658203125,63.083805084228516 L445.73681640625,63.626564025878906 L444.4821472167969,64.52896881103516 L443.4239807128906,65.71269989013672 L442.6573791503906,67.01722717285156 L442.246337890625,68.26841735839844 L442.227294921875,69.35950469970703 L442.57861328125,70.16725158691406 L443.26739501953125,70.58157348632812 L444.26885986328125,70.53020477294922 L445.5128173828125,69.94672393798828 L446.9106140136719,68.8463134765625 L448.339111328125,67.37154388427734 L449.63958740234375,65.72334289550781 L450.68841552734375,64.1528091430664 L451.43194580078125,62.86260986328125 L451.8544921875,61.953895568847656 L452.0152282714844,61.49455261230469 L451.9783935546875,61.525901794433594 L451.80975341796875,62.09437561035156 L451.5863952636719,63.23244857788086 L451.4100036621094,64.81851959228516 L451.3784484863281,66.6310043334961 L451.6178894042969,68.41666412353516 L452.2020263671875,69.96324920654297 L453.2626953125,71.09371185302734 L454.8052978515625,71.7313232421875 L456.7182922363281,71.83975219726562 L458.4344787597656,71.64229583740234 L459.59735107421875,71.36560821533203 M480.6413269042969,65.91719818115234 L480.67950439453125,65.55482482910156 L480.62176513671875,64.93900299072266 L480.353759765625,64.16564178466797 L479.78045654296875,63.46982955932617 L478.8838806152344,63.05371856689453 L477.6830749511719,63.09491729736328 L476.2742919921875,63.68716812133789 L474.8052978515625,64.80735778808594 L473.4815673828125,66.31853485107422 L472.5072326660156,67.99979400634766 L471.99188232421875,69.61746978759766 L471.94659423828125,70.96011352539062 L472.33447265625,71.85936737060547 L473.09771728515625,72.1707763671875 L474.19036865234375,71.78529357910156 L475.5603942871094,70.6388931274414 L477.10986328125,68.76746368408203 L478.70587158203125,66.30545806884766 L480.22021484375,63.47509765625 L481.55169677734375,60.53776931762695 L482.61212158203125,57.765846252441406 L483.37884521484375,55.407413482666016 L483.8724365234375,53.61006546020508 L484.1289367675781,52.444976806640625 L484.1983947753906,51.934242248535156 L484.13568115234375,52.09860610961914 L483.945556640625,52.98686218261719 L483.64495849609375,54.65474319458008 L483.2779846191406,57.006980895996094 L482.9149169921875,59.85028839111328 L482.64678955078125,62.891361236572266 L482.59814453125,65.82072448730469 L482.86700439453125,68.3709716796875 L483.4976806640625,70.35618591308594 L484.5037841796875,71.63990020751953 L485.848876953125,72.16668701171875 L487.43585205078125,71.91642761230469 L489.1507568359375,70.93923950195312 L490.8487548828125,69.37305450439453 L492.3450927734375,67.4212875366211 L493.48687744140625,65.35246276855469 L494.1809997558594,63.43087387084961 L494.39752197265625,61.85483169555664 L494.19073486328125,60.76734924316406 L493.6497802734375,60.275875091552734 L492.87109375,60.416690826416016 L491.96173095703125,61.19979476928711 L491.08270263671875,62.545555114746094 L490.3931579589844,64.28645324707031 L490.0497131347656,66.19942474365234 L490.1400451660156,68.05857849121094 L490.68597412109375,69.64117431640625 L491.61187744140625,70.77767944335938 L492.8465576171875,71.31503295898438 L494.292236328125,71.15406036376953 L495.8653564453125,70.2849349975586 L497.47900390625,68.82633209228516 L499.0570068359375,67.0041275024414 L500.46734619140625,65.11917114257812 L501.6161193847656,63.43545150756836 L502.44183349609375,62.149375915527344 L502.9417419433594,61.39566421508789 L503.16107177734375,61.259037017822266 L503.17596435546875,61.757354736328125 L503.02716064453125,62.86504364013672 L502.7699279785156,64.41976928710938 L502.4798583984375,66.1433334350586 L502.2491455078125,67.74676513671875 L502.12335205078125,69.02151489257812 L502.11968994140625,69.83189392089844 L502.2326354980469,70.14431762695312 L502.48089599609375,69.9304428100586 L502.9267883300781,69.16224670410156 L503.6314392089844,67.88585662841797 L504.56494140625,66.3014144897461 L505.62506103515625,64.67806243896484 L506.666015625,63.272403717041016 L507.57232666015625,62.25326156616211 L508.3014831542969,61.69278335571289 L508.85003662109375,61.597530364990234 L509.2393798828125,61.98158264160156 L509.467041015625,62.84788513183594 L509.506103515625,64.10459899902344 L509.374755859375,65.57148742675781 L509.14556884765625,67.02134704589844 L508.8903503417969,68.24159240722656 L508.7012939453125,69.07257843017578 L508.6603088378906,69.43858337402344 L508.82080078125,69.28298950195312 L509.26043701171875,68.58216094970703 L510.04620361328125,67.39141845703125 L511.150146484375,65.88072967529297 L512.4959106445312,64.2811508178711 L513.958251953125,62.835269927978516 L515.3671875,61.702369689941406 L516.5971069335938,60.95614242553711 L517.5643310546875,60.63386154174805 L518.2140502929688,60.7684211730957 L518.556640625,61.385032653808594 L518.6116333007812,62.46812438964844 L518.4376831054688,63.908321380615234 L518.1559448242188,65.51709747314453 L517.9088134765625,67.09809875488281 L517.896240234375,68.4365005493164 L518.239990234375,69.38233947753906 L518.9302978515625,69.87299346923828 L519.6702880859375,70.0151596069336 L520.2262573242188,69.96725463867188 M527.7578125,62.47512435913086 L527.3223266601562,62.270294189453125 L526.5848388671875,62.04512023925781 L525.5975341796875,61.94300079345703 L524.5237426757812,62.13871383666992 L523.46630859375,62.68763732910156 L522.5503540039062,63.5559196472168 L521.8880615234375,64.64185333251953 L521.6178588867188,65.81745910644531 L521.8028564453125,66.92145538330078 L522.4439697265625,67.80603790283203 L523.4832763671875,68.35607147216797 L524.8134155273438,68.50041961669922 L526.2786254882812,68.2164535522461 L527.7052001953125,67.53302001953125 L528.9117431640625,66.52533721923828 L529.7565307617188,65.30758666992188 L530.1475830078125,64.00765991210938 L530.0775146484375,62.74678421020508 L529.605712890625,61.616397857666016 L528.8578491210938,60.6854248046875 L528.0106811523438,60.0013427734375 L527.2432250976562,59.5769157409668 L526.7081909179688,59.37316131591797 L526.4349365234375,59.31410598754883 M548.8387451171875,61.70828628540039 L548.73291015625,61.296714782714844 L548.443359375,60.685062408447266 L547.9041748046875,60.017173767089844 L547.1021728515625,59.53587341308594 L546.0757446289062,59.35083770751953 L544.9091796875,59.53600311279297 L543.6956176757812,60.106441497802734 L542.5574951171875,61.07166290283203 L541.6378173828125,62.379207611083984 L541.0632934570312,63.9281005859375 L540.9254150390625,65.56560516357422 L541.2724609375,67.10131072998047 L542.088134765625,68.3526840209961 L543.2921142578125,69.16283416748047 L544.7738037109375,69.4292221069336 L546.380126953125,69.10202026367188 L547.9345092773438,68.21508026123047 L549.27490234375,66.8567123413086 L550.2675170898438,65.1980209350586 L550.8157348632812,63.415184020996094 L550.904541015625,61.69243240356445 L550.6109619140625,60.165740966796875 L550.055419921875,58.951805114746094 L549.4065551757812,58.114051818847656 L548.8175048828125,57.71440887451172 L548.3946533203125,57.7553596496582 L548.2205810546875,58.21082305908203 L548.3720703125,58.99958419799805 L548.891357421875,59.969566345214844 L549.8225708007812,60.900611877441406 L551.1680908203125,61.576988220214844 L552.8807983398438,61.807228088378906 L554.8825073242188,61.466068267822266 L557.0587158203125,60.520774841308594 L559.2535400390625,58.99937438964844 L561.3240966796875,56.9969596862793 L563.1271362304688,54.671199798583984 L564.5350341796875,52.22406005859375 L565.4632568359375,49.87379837036133 L565.90380859375,47.82075881958008 L565.8886108398438,46.23017120361328 L565.49609375,45.252628326416016 L564.7962646484375,45.0 L563.8487548828125,45.565101623535156 L562.7103881835938,47.01264953613281 L561.4817504882812,49.31287384033203 L560.276611328125,52.37685775756836 L559.181640625,56.066837310791016 L558.242919921875,60.190731048583984 L557.4944458007812,64.55313110351562 L556.9461669921875,68.92106628417969 L556.6136474609375,72.9952163696289 L556.51123046875,76.47489929199219 L556.5947265625,79.12747192382812 L556.7461547851562,80.77593994140625 L556.8804931640625,81.55892181396484 M551.9274291992188,64.36743927001953 L552.0179443359375,64.15776824951172 L552.3548583984375,63.87659454345703 L553.0634765625,63.612186431884766 L554.3179931640625,63.46321105957031 L556.1119384765625,63.41325378417969 L558.301025390625,63.40834045410156 L560.2431640625,63.39946365356445 L561.5487670898438,63.382568359375 M582.7136840820312,59.34269714355469 L582.6708984375,59.212646484375 L582.5050048828125,59.02363204956055 L582.1275634765625,58.84253692626953 L581.492919921875,58.792884826660156 L580.6312255859375,58.95786666870117 L579.672119140625,59.384944915771484 L578.7911376953125,60.05659866333008 L578.1849365234375,60.92503356933594 L578.003173828125,61.9052619934082 L578.3217163085938,62.935359954833984 L579.1068115234375,63.96546936035156 L580.2513427734375,64.97332763671875 L581.5654296875,65.93675994873047 L582.8399047851562,66.84828186035156 L583.8636474609375,67.68021392822266 L584.4544677734375,68.42728424072266 L584.4861450195312,69.07464599609375 L583.91552734375,69.61005401611328 L582.7904052734375,70.01734924316406 L581.2376098632812,70.24079132080078 L579.482666015625,70.23001861572266 L577.776123046875,69.98806762695312 L576.487060546875,69.66493225097656 L575.7447509765625,69.393798828125 M592.5789794921875,50.258094787597656 L592.60693359375,50.278343200683594 L592.5872802734375,50.523033142089844 L592.476806640625,51.170989990234375 L592.2179565429688,52.330116271972656 L591.8068237304688,53.944480895996094 L591.294921875,55.912654876708984 L590.7669067382812,58.108394622802734 L590.3092651367188,60.404083251953125 L590.023193359375,62.67646408081055 L589.9461669921875,64.79229736328125 L590.0870361328125,66.608154296875 L590.4826049804688,67.98651123046875 L591.1174926757812,68.85607147216797 L591.9284057617188,69.21785736083984 L592.668701171875,69.2420654296875 L593.1705932617188,69.12994384765625 M586.3201904296875,59.58799362182617 L586.565185546875,59.71867752075195 L587.1912841796875,59.943641662597656 L588.3108520507812,60.23163604736328 L589.879150390625,60.495609283447266 L591.7410278320312,60.67325210571289 L593.7071533203125,60.70627212524414 L595.5865478515625,60.58143997192383 L597.2285766601562,60.3195686340332 L598.526123046875,59.98030471801758 L599.3887939453125,59.630226135253906 L599.79541015625,59.36537551879883 L599.807373046875,59.26545715332031 L599.4998779296875,59.41062545776367 L598.9702758789062,59.85478591918945 L598.3475341796875,60.605167388916016 L597.7666015625,61.5975227355957 L597.3588256835938,62.72880935668945 L597.2593994140625,63.85993576049805 L597.5050659179688,64.8583755493164 L598.0709228515625,65.59903717041016 L598.9102172851562,65.99415588378906 L599.9613037109375,65.984375 L601.13818359375,65.56120300292969 L602.3740234375,64.77680969238281 L603.5549926757812,63.732521057128906 L604.5684814453125,62.574607849121094 L605.3281860351562,61.48442840576172 L605.8086547851562,60.590518951416016 L606.0396728515625,59.984840393066406 L606.080810546875,59.730079650878906 L605.9853515625,59.86916732788086 L605.7847900390625,60.48350524902344 L605.504150390625,61.660118103027344 L605.1973876953125,63.40793228149414 L604.9259033203125,65.68355560302734 L604.70703125,68.38496398925781 L604.5211181640625,71.36636352539062 L604.3170166015625,74.48463439941406 L604.0316162109375,77.57698059082031 L603.6257934570312,80.45237731933594 L603.0863037109375,82.9447250366211 L602.38916015625,84.91561889648438 L601.5296630859375,86.29008483886719 L600.5372924804688,87.04388427734375 L599.459228515625,87.19009399414062 L598.3919677734375,86.75202178955078 L597.5015869140625,85.79347229003906 L596.9623413085938,84.38018035888672 L596.9329833984375,82.60153198242188 L597.5181884765625,80.53739166259766 L598.7142333984375,78.26956939697266 L600.4376220703125,75.86377716064453 L602.5767822265625,73.3731460571289 L604.9881591796875,70.82144165039062 L607.5301513671875,68.21681213378906 L610.0736083984375,65.55795288085938 L612.476318359375,62.849578857421875 L614.6253662109375,60.117637634277344 L616.435546875,57.39707946777344 L617.83349609375,54.74219512939453 L618.79833984375,52.24664306640625 L619.34619140625,50.019248962402344 L619.5045776367188,48.16074752807617 L619.348388671875,46.759674072265625 L618.9522705078125,45.888404846191406 L618.3609619140625,45.592567443847656 L617.64697265625,45.935420989990234 L616.87060546875,46.94306564331055 L616.094970703125,48.59391784667969 L615.4058837890625,50.7977294921875 L614.8851318359375,53.41242599487305 L614.5885009765625,56.23609161376953 L614.5927124023438,59.06917190551758 L614.9222412109375,61.712825775146484 L615.5904541015625,64.00875091552734 L616.5726318359375,65.82645416259766 L617.819580078125,67.08119201660156 L619.2532958984375,67.7070541381836 L620.7974853515625,67.68833923339844 L622.32568359375,67.06459045410156 L623.706298828125,65.94359588623047 L624.793212890625,64.48249816894531 L625.4701538085938,62.87599182128906 L625.6823120117188,61.31789016723633 L625.4412841796875,59.98546600341797 L624.7925415039062,59.04125213623047 L623.8297119140625,58.609928131103516 L622.6828002929688,58.75664138793945 L621.537353515625,59.47806930541992 L620.64013671875,60.695556640625 L620.20654296875,62.24034881591797 L620.4949951171875,63.916297912597656 L621.5889892578125,65.49999237060547 L623.3671875,66.79231262207031 L625.1362915039062,67.63795471191406 L626.41064453125,68.05671691894531 M641.725830078125,67.0495376586914 L642.1451416015625,66.50592803955078 L642.9279174804688,65.47128295898438 L644.0580444335938,63.953060150146484 L645.4036865234375,62.121097564697266 L646.8975830078125,60.095909118652344 L648.4600219726562,58.00187683105469 L650.015625,55.95535659790039 L651.4714965820312,54.10110855102539 L652.7073364257812,52.579994201660156 L653.6339111328125,51.47161102294922 L654.232177734375,50.81850051879883 L654.5107421875,50.64175796508789 L654.4990844726562,50.97613525390625 L654.205078125,51.885074615478516 L653.6294555664062,53.39739227294922 L652.8271484375,55.41322708129883 L651.91650390625,57.75638198852539 L651.03076171875,60.19825744628906 L650.2881469726562,62.52661895751953 L649.78466796875,64.54600524902344 L649.5670776367188,66.10385131835938 L649.640380859375,67.09060668945312 L649.8557739257812,67.56295776367188 L650.0720825195312,67.68404388427734 M655.1236572265625,60.749267578125 L655.4652709960938,60.30643844604492 L656.12255859375,59.487060546875 L657.1112670898438,58.29436111450195 L658.34326171875,56.857913970947266 L659.7619018554688,55.2530403137207 L661.247314453125,53.606483459472656 L662.658203125,52.07078552246094 L663.840576171875,50.80418395996094 L664.6842041015625,49.93683624267578 L665.1546630859375,49.56310272216797 L665.2850952148438,49.71977615356445 L665.1016845703125,50.44550704956055 L664.6190185546875,51.75054931640625 L663.880126953125,53.57841110229492 L662.966552734375,55.81671142578125 L662.0104370117188,58.312435150146484 L661.14306640625,60.890899658203125 L660.4527587890625,63.397647857666016 L659.966064453125,65.69017028808594 L659.7264404296875,67.5575942993164 L659.7551879882812,68.8208999633789 L660.048828125,69.39176940917969 L660.4290771484375,69.46311950683594 L660.74609375,69.30300903320312 M667.05419921875,65.2215805053711 L667.2159423828125,65.12195587158203 L667.4908447265625,64.89590454101562 L667.780029296875,64.62931060791016 L667.984375,64.40807342529297 M671.7291870117188,66.80169677734375 L671.8541259765625,66.74736022949219 L672.018798828125,66.6439437866211 L672.1715087890625,66.52373504638672 " fill="none" stroke="black" stroke-linecap="round" stroke-width="1" /></svg>