<?xml version="1.0" encoding="utf-8" ?>
<svg baseProfile="full" height="100%" version="1.1" viewBox="0,0,1000,120" width="100%" xmlns="http://www.w3.org/2000/svg" xmlns:ev="http://www.w3.org/2001/xml-events" xmlns:xlink="http://www.w3.org/1999/xlink"><defs /><rect fill="white" height="120" width="1000" x="0" y="0" /><path d="M0,0 M306.2937316894531,49.959938049316406 L306.38897705078125,49.947540283203125 L306.53607177734375,50.032344818115234 L306.6995544433594,50.3201904296875 L306.8292236328125,50.92411804199219 L306.8929443359375,51.90321350097656 L306.88531494140625,53.281463623046875 L306.81549072265625,55.035133361816406 L306.7131652832031,57.12019729614258 L306.6019287109375,59.450843811035156 L306.5247802734375,61.93552780151367 L306.4689636230469,64.47298431396484 L306.42962646484375,66.99424743652344 L306.3893127441406,69.43934631347656 L306.32421875,71.74720764160156 L306.2379150390625,73.84600830078125 L306.17193603515625,75.64431762695312 L306.13800048828125,77.03889465332031 L306.1502380371094,77.98439025878906 L306.1880187988281,78.50148010253906 L306.2197265625,78.70006561279297 M298.6068115234375,49.93487548828125 L298.92010498046875,49.917991638183594 L299.6352844238281,49.88572692871094 L300.8502197265625,49.824951171875 L302.52374267578125,49.713558197021484 L304.56988525390625,49.518096923828125 L306.8690490722656,49.22785186767578 L309.341796875,48.876129150390625 L311.8999328613281,48.50176239013672 L314.4544372558594,48.15331268310547 L316.88836669921875,47.866485595703125 L319.07794189453125,47.64972686767578 L320.8919982910156,47.53179931640625 L322.24810791015625,47.538429260253906 L323.1257629394531,47.66637420654297 L323.5796203613281,47.8363037109375 L323.7435607910156,47.98037338256836 M322.05322265625,47.425010681152344 L322.1006774902344,47.384239196777344 L322.1691589355469,47.38410186767578 L322.2308349609375,47.5325813293457 L322.2427978515625,47.9637451171875 L322.178466796875,48.7681884765625 L322.04296875,49.92943572998047 L321.8838195800781,51.44032669067383 L321.7153015136719,53.218910217285156 L321.570068359375,55.214080810546875 L321.45843505859375,57.388893127441406 L321.38446044921875,59.69526290893555 L321.33673095703125,62.05242156982422 L321.3210144042969,64.41326141357422 L321.3002624511719,66.68407440185547 L321.27728271484375,68.80410766601562 L321.2416687011719,70.69426727294922 L321.208740234375,72.26335144042969 L321.1854248046875,73.4314193725586 L321.18243408203125,74.18312072753906 L321.17169189453125,74.55097198486328 L321.1509704589844,74.59452056884766 L321.1183776855469,74.3368911743164 L321.1115417480469,73.74691772460938 L321.161865234375,72.7967758178711 L321.3172912597656,71.52664947509766 L321.59112548828125,70.0289535522461 L321.9959716796875,68.41015625 L322.5356140136719,66.77538299560547 L323.2222900390625,65.19712829589844 L324.0443115234375,63.7607421875 L325.00628662109375,62.548152923583984 L326.08538818359375,61.61690139770508 L327.2352294921875,60.992713928222656 L328.40838623046875,60.67951202392578 L329.56829833984375,60.66896057128906 L330.673583984375,60.98305130004883 L331.6998596191406,61.630226135253906 L332.60345458984375,62.601898193359375 L333.323974609375,63.85997772216797 L333.8409423828125,65.33729553222656 L334.15814208984375,66.93694305419922 L334.3145446777344,68.589111328125 L334.37579345703125,70.22145080566406 L334.37493896484375,71.75840759277344 L334.32891845703125,73.12263488769531 L334.26788330078125,74.24720001220703 L334.198974609375,75.0816879272461 L334.1573791503906,75.58699798583984 L334.1767272949219,75.7594223022461 L334.266357421875,75.6287841796875 L334.37823486328125,75.36890411376953 L334.4753112792969,75.1275634765625 M342.464111328125,61.59606170654297 L342.46014404296875,61.54135513305664 L342.4602966308594,61.4792594909668 L342.45111083984375,61.46553039550781 L342.43524169921875,61.60426712036133 L342.402587890625,62.006614685058594 L342.3267517089844,62.76360321044922 L342.1973571777344,63.884159088134766 L342.0130920410156,65.33000946044922 L341.769775390625,67.00021362304688 L341.5148010253906,68.79005432128906 L341.297119140625,70.61268615722656 L341.1551208496094,72.35657501220703 L341.1065673828125,73.89734649658203 L341.1285095214844,75.12103271484375 L341.208251953125,75.95336151123047 L341.3350524902344,76.27444458007812 L341.5058288574219,76.04615783691406 L341.6990051269531,75.28662872314453 L341.8629150390625,74.39234924316406 L341.958740234375,73.67889404296875 M342.7835388183594,48.99283218383789 M347.6841735839844,49.49225997924805 L347.73883056640625,49.87070083618164 L347.82635498046875,50.44620132446289 L347.9161071777344,51.01799774169922 L347.97747802734375,51.38533401489258 M360.3516845703125,66.81671905517578 L360.2304992675781,66.64039611816406 L359.94891357421875,66.31044006347656 L359.4453430175781,65.86470794677734 L358.69342041015625,65.41492462158203 L357.6875,65.07841491699219 L356.4783935546875,64.92037200927734 L355.18255615234375,64.96332550048828 L353.9365234375,65.18428039550781 L352.873779296875,65.56389617919922 L352.09576416015625,66.08214569091797 L351.6788635253906,66.73805236816406 L351.68701171875,67.50453186035156 L352.17108154296875,68.34498596191406 L353.1413269042969,69.21736145019531 L354.5375671386719,70.09829711914062 L356.23699951171875,70.97891235351562 L358.09832763671875,71.87299346923828 L359.9531555175781,72.78789520263672 L361.650634765625,73.71131134033203 L363.073486328125,74.63684844970703 L364.1285400390625,75.53225708007812 L364.775634765625,76.37882232666016 L365.0514831542969,77.167236328125 L364.97479248046875,77.88566589355469 L364.5732421875,78.50469970703125 L363.8666687011719,79.02689361572266 L362.85858154296875,79.41959381103516 L361.58465576171875,79.68010711669922 L360.12738037109375,79.80094909667969 L358.5578918457031,79.78360748291016 L356.9537353515625,79.6239242553711 L355.3817138671875,79.34645080566406 L353.882568359375,78.96514129638672 L352.51654052734375,78.51931762695312 L351.3207702636719,78.0288314819336 L350.318603515625,77.51701354980469 L349.5220947265625,77.01134490966797 L348.9340515136719,76.54735565185547 L348.56158447265625,76.20087432861328 L348.38189697265625,76.00337982177734 M388.61639404296875,66.2743911743164 L388.62646484375,66.65303039550781 L388.64385986328125,67.37043762207031 L388.6644287109375,68.43278503417969 L388.679443359375,69.7396240234375 L388.67236328125,71.23495483398438 L388.61285400390625,72.8497314453125 L388.5177001953125,74.52510070800781 L388.380615234375,76.15235137939453 L388.24462890625,77.62966918945312 L388.15582275390625,78.8531723022461 L388.13153076171875,79.77932739257812 L388.1510314941406,80.31755828857422 L388.1942138671875,80.42591857910156 L388.2043762207031,80.10757446289062 L388.18939208984375,79.62425231933594 L388.1654968261719,79.19437408447266 M388.427978515625,52.49738311767578 L388.4180603027344,52.51333236694336 L388.42840576171875,52.54180145263672 L388.4556884765625,52.580238342285156 L388.4743347167969,52.610050201416016 L388.4721374511719,52.614036560058594 L388.45745849609375,52.58909606933594 L388.43853759765625,52.55231475830078 L388.4378662109375,52.51983642578125 M401.6529235839844,64.19703674316406 L401.32012939453125,64.05643463134766 L400.7266845703125,63.90715026855469 L399.8935546875,63.8543815612793 L398.90447998046875,64.02279663085938 L397.78704833984375,64.41519165039062 L396.63568115234375,65.00850677490234 L395.59442138671875,65.73982238769531 L394.806640625,66.55133819580078 L394.431884765625,67.40524291992188 L394.53338623046875,68.2840576171875 L395.1147766113281,69.15069580078125 L396.1461486816406,69.99462127685547 L397.55841064453125,70.80128479003906 L399.2345886230469,71.57439422607422 L401.060302734375,72.33618927001953 L402.8812255859375,73.11983489990234 L404.53118896484375,73.92967987060547 L405.8719482421875,74.7679214477539 L406.8258056640625,75.62921142578125 L407.3507080078125,76.48861694335938 L407.469482421875,77.31639099121094 L407.23486328125,78.08257293701172 L406.6679992675781,78.73204803466797 L405.781982421875,79.22406768798828 L404.61224365234375,79.55421447753906 L403.1590576171875,79.71560668945312 L401.481689453125,79.71575164794922 L399.675048828125,79.57340240478516 L397.84423828125,79.29464721679688 L396.1187744140625,78.89225769042969 L394.6260986328125,78.41094970703125 L393.44586181640625,77.89295959472656 L392.63909912109375,77.39027404785156 L392.20587158203125,76.95122528076172 L392.04638671875,76.63943481445312 L392.040771484375,76.46438598632812 M438.33270263671875,67.39325714111328 L438.15631103515625,67.13323974609375 L437.8531188964844,66.71995544433594 L437.4058837890625,66.22486877441406 L436.8128662109375,65.7773208618164 L436.01544189453125,65.4365234375 L435.0140380859375,65.27928924560547 L433.84033203125,65.35706329345703 L432.60736083984375,65.71756744384766 L431.39385986328125,66.37484741210938 L430.28759765625,67.31108093261719 L429.33721923828125,68.47248077392578 L428.60443115234375,69.8099365234375 L428.155029296875,71.26587677001953 L428.0615234375,72.75791931152344 L428.3304443359375,74.18208312988281 L428.96929931640625,75.4449234008789 L429.9066162109375,76.43159484863281 L431.0879211425781,77.0726547241211 L432.434326171875,77.333251953125 L433.8877258300781,77.19514465332031 L435.3822021484375,76.65876770019531 L436.8703918457031,75.75259399414062 L438.2716979980469,74.51344299316406 L439.54840087890625,73.0341567993164 L440.61572265625,71.41780090332031 L441.43157958984375,69.7734603881836 L441.97119140625,68.19444274902344 L442.2667236328125,66.77677917480469 L442.373046875,65.61067199707031 L442.3811950683594,64.75639343261719 L442.3343811035156,64.21598815917969 L442.2545471191406,63.97842025756836 L442.16156005859375,64.03487396240234 L442.08544921875,64.42636108398438 L442.05230712890625,65.19871520996094 L442.09735107421875,66.32813262939453 L442.2398376464844,67.72732543945312 L442.45361328125,69.28172302246094 L442.74591064453125,70.8776626586914 L443.1190185546875,72.45299530029297 L443.55718994140625,73.9429702758789 L444.03857421875,75.27978515625 L444.52825927734375,76.4103012084961 L444.9609375,77.26396179199219 L445.31036376953125,77.80071258544922 L445.5827331542969,78.04203033447266 L445.7620544433594,78.07884216308594 L445.861328125,78.02555847167969 M476.7299499511719,70.28739166259766 L476.5534362792969,70.097412109375 L476.26080322265625,69.78144073486328 L475.8529968261719,69.37733459472656 L475.34759521484375,68.9800033569336 L474.69842529296875,68.64783477783203 L473.8595275878906,68.42904663085938 L472.81231689453125,68.37374877929688 L471.6068115234375,68.53720092773438 L470.31292724609375,68.95256805419922 L469.029296875,69.6428451538086 L467.8480529785156,70.5906982421875 L466.83306884765625,71.7620849609375 L466.04095458984375,73.11522674560547 L465.51861572265625,74.59659576416016 L465.314697265625,76.12434387207031 L465.4743957519531,77.59977722167969 L466.0320129394531,78.89544677734375 L466.97747802734375,79.9007568359375 L468.2468566894531,80.54212951660156 L469.7542724609375,80.78832244873047 L471.40692138671875,80.63400268554688 L473.10015869140625,80.09294891357422 L474.78155517578125,79.1815185546875 L476.40283203125,77.9105224609375 L477.9085998535156,76.31248474121094 L479.285888671875,74.42472076416016 L480.50244140625,72.2921371459961 L481.50927734375,69.97760772705078 L482.2999572753906,67.56048583984375 L482.866455078125,65.11561584472656 L483.22119140625,62.749481201171875 L483.42919921875,60.57925033569336 L483.5392150878906,58.720272064208984 L483.5757751464844,57.25788497924805 L483.5767822265625,56.23503875732422 L483.56292724609375,55.63773727416992 L483.54364013671875,55.449378967285156 L483.53863525390625,55.69392395019531 L483.5410461425781,56.419639587402344 L483.521728515625,57.64638137817383 L483.47149658203125,59.34281921386719 L483.3921203613281,61.408058166503906 L483.29339599609375,63.717445373535156 L483.21014404296875,66.14917755126953 L483.16229248046875,68.58531188964844 L483.16998291015625,70.9046401977539 L483.24029541015625,72.98918914794922 L483.35986328125,74.74181365966797 L483.5106201171875,76.11439514160156 L483.6680603027344,77.0902099609375 L483.7946472167969,77.70478820800781 L483.90814208984375,77.97323608398438 L484.0318603515625,77.92137145996094 L484.19134521484375,77.59796905517578 L484.3538818359375,77.2024917602539 L484.48193359375,76.88143920898438 M487.5139465332031,74.56317901611328 L487.66046142578125,74.65135192871094 L488.031982421875,74.7237319946289 L488.7327880859375,74.69000244140625 L489.7772521972656,74.44661712646484 L491.12017822265625,73.96505737304688 L492.63385009765625,73.25367736816406 L494.1788635253906,72.35636138916016 L495.6260986328125,71.33206176757812 L496.88421630859375,70.24141693115234 L497.84356689453125,69.14435577392578 L498.42608642578125,68.10340881347656 L498.55987548828125,67.17845916748047 L498.2401123046875,66.4178237915039 L497.5133056640625,65.88375091552734 L496.46746826171875,65.62828826904297 L495.1888427734375,65.69168090820312 L493.7956848144531,66.09648132324219 L492.3809509277344,66.82564544677734 L491.05615234375,67.82278442382812 L489.91619873046875,69.0340576171875 L489.0308532714844,70.40074920654297 L488.4482116699219,71.8757553100586 L488.217529296875,73.41839599609375 L488.3397521972656,74.9582748413086 L488.83721923828125,76.40238952636719 L489.7054443359375,77.65288543701172 L490.91943359375,78.62576293945312 L492.44610595703125,79.28193664550781 L494.21270751953125,79.6243896484375 L496.096435546875,79.69386291503906 L497.992919921875,79.53266143798828 L499.7994384765625,79.14888000488281 L501.4141845703125,78.57696533203125 L502.77313232421875,77.87789154052734 L503.72119140625,77.25447082519531 L504.23797607421875,76.84248352050781 M504.64801025390625,65.20406341552734 L504.7322998046875,65.5106430053711 L504.8628845214844,66.08900451660156 L505.0240478515625,66.9505615234375 L505.16558837890625,68.03224182128906 L505.2607116699219,69.30692291259766 L505.296875,70.72840118408203 L505.28851318359375,72.23824310302734 L505.25811767578125,73.7393798828125 L505.2496337890625,75.12035369873047 L505.28009033203125,76.2754135131836 L505.33331298828125,77.12615203857422 L505.3780517578125,77.62904357910156 L505.396728515625,77.77766418457031 L505.3814392089844,77.5764389038086 L505.3500061035156,77.03411865234375 L505.3431396484375,76.16200256347656 L505.3721923828125,75.00367736816406 L505.45367431640625,73.62222290039062 L505.61529541015625,72.10330963134766 L505.8639221191406,70.52637481689453 L506.2091064453125,68.96644592285156 L506.67034912109375,67.48039245605469 L507.24798583984375,66.13873291015625 L507.9371643066406,64.9969253540039 L508.72650146484375,64.11021423339844 L509.5761413574219,63.509368896484375 L510.4542236328125,63.22010040283203 L511.33294677734375,63.251434326171875 L512.211669921875,63.613887786865234 L513.0821533203125,64.29436492919922 L513.92724609375,65.25940704345703 L514.7150268554688,66.45048522949219 L515.4169311523438,67.795166015625 L515.9874267578125,69.2148208618164 L516.414306640625,70.64459228515625 L516.6958618164062,72.01209259033203 L516.8436889648438,73.22705078125 L516.8878173828125,74.21977996826172 L516.8748779296875,74.93897247314453 L516.8181762695312,75.36576843261719 L516.7603759765625,75.51750183105469 L516.72607421875,75.39666748046875 L516.7258911132812,74.97623443603516 L516.777587890625,74.24169921875 L516.9017333984375,73.2198715209961 L517.10205078125,71.9830093383789 L517.411865234375,70.64364624023438 L517.8519897460938,69.30321502685547 L518.4259033203125,68.03103637695312 L519.130615234375,66.86460876464844 L519.9505615234375,65.83936309814453 L520.8696899414062,64.98445129394531 L521.8740234375,64.34236907958984 L522.9566650390625,63.954429626464844 L524.08984375,63.84860610961914 L525.2371826171875,64.03453063964844 L526.350830078125,64.50872802734375 L527.3876953125,65.24118041992188 L528.2931518554688,66.19906616210938 L529.0414428710938,67.34374237060547 L529.614501953125,68.6078872680664 L530.0303955078125,69.9135971069336 L530.32421875,71.18196105957031 L530.537841796875,72.33478546142578 L530.6885375976562,73.31703186035156 L530.809814453125,74.10508728027344 L530.9146118164062,74.68938446044922 L531.0435791015625,75.03426361083984 L531.2305297851562,75.12326049804688 L531.4931640625,74.97370910644531 L531.7462158203125,74.72567749023438 L531.9349365234375,74.50480651855469 M545.4295654296875,66.10160064697266 L545.36962890625,65.73530578613281 L545.1943969726562,65.17015075683594 L544.8367309570312,64.51360321044922 L544.25537109375,63.95923614501953 L543.4290771484375,63.59276580810547 L542.40087890625,63.476497650146484 L541.225830078125,63.633644104003906 L539.96435546875,64.07989501953125 L538.6986083984375,64.79900360107422 L537.5064086914062,65.76663970947266 L536.46435546875,66.94489288330078 L535.6744384765625,68.30436706542969 L535.1930541992188,69.78353118896484 L535.0738525390625,71.3017807006836 L535.3576049804688,72.75150299072266 L536.048828125,74.0264663696289 L537.1261596679688,75.0263671875 L538.5479736328125,75.68798828125 L540.2174072265625,75.97158813476562 L542.0289916992188,75.86866760253906 L543.860107421875,75.40103149414062 L545.5938720703125,74.6123046875 L547.1124877929688,73.56181335449219 L548.3123779296875,72.31150817871094 L549.11865234375,70.93437957763672 L549.4873046875,69.49230194091797 L549.423583984375,68.07041931152344 L548.9481201171875,66.74103546142578 L548.154052734375,65.59111022949219 L547.1346435546875,64.65760803222656 L546.220947265625,64.02861022949219 L545.6038208007812,63.68915557861328 M577.5930786132812,65.9919204711914 L577.4700927734375,65.65423583984375 L577.2484130859375,65.11487579345703 L576.9104614257812,64.455078125 L576.452392578125,63.827579498291016 L575.8146362304688,63.2881965637207 L574.9619750976562,62.8776741027832 L573.8914794921875,62.618865966796875 L572.6357421875,62.543312072753906 L571.2639770507812,62.67288589477539 L569.8582763671875,63.02482986450195 L568.4554443359375,63.597251892089844 L567.1103515625,64.39744567871094 L565.885498046875,65.43602752685547 L564.854248046875,66.6892318725586 L564.1203002929688,68.11890411376953 L563.77490234375,69.65333557128906 L563.8514404296875,71.17959594726562 L564.3864135742188,72.5964584350586 L565.3682861328125,73.80855560302734 L566.765625,74.73408508300781 L568.5203857421875,75.33226776123047 L570.5382690429688,75.5755844116211 L572.6827392578125,75.45775604248047 L574.8285522460938,75.00267791748047 L576.8389892578125,74.2366714477539 L578.611328125,73.19284057617188 L580.0820922851562,71.92121887207031 L581.2129516601562,70.4901123046875 L581.9714965820312,68.9904556274414 L582.3447875976562,67.5215072631836 L582.3037109375,66.17212677001953 L581.8402709960938,65.00550842285156 L581.0050048828125,64.06969451904297 L579.88232421875,63.388816833496094 L578.5948486328125,62.97488021850586 L577.3084716796875,62.811126708984375 L576.1722412109375,62.85181427001953 L575.3114013671875,63.03167724609375 L574.7944946289062,63.23487854003906 L574.569580078125,63.381717681884766 M595.024658203125,49.22829055786133 L594.7696533203125,48.58351135253906 L594.3079223632812,47.641929626464844 L593.6478271484375,46.601566314697266 L592.8482055664062,45.769927978515625 L591.929443359375,45.22187042236328 L590.903076171875,45.0 L589.79736328125,45.10652160644531 L588.6830444335938,45.598228454589844 L587.6383056640625,46.49411392211914 L586.72607421875,47.79810333251953 L586.0084838867188,49.505035400390625 L585.5108642578125,51.5908203125 L585.24609375,53.99908447265625 L585.2083740234375,56.66608810424805 L585.35595703125,59.49302291870117 L585.6337890625,62.376441955566406 L585.9998779296875,65.21544647216797 L586.418701171875,67.91963195800781 L586.8751220703125,70.40048217773438 L587.343017578125,72.58015441894531 L587.7679443359375,74.38040161132812 L588.0982055664062,75.73628997802734 L588.294189453125,76.6595230102539 L588.35546875,77.15673828125 L588.328125,77.27001190185547 L588.2628784179688,77.0477294921875 L588.2037353515625,76.70082092285156 L588.17138671875,76.38607788085938 M581.41748046875,63.07658386230469 L581.4959106445312,63.05207061767578 L581.79541015625,63.03339385986328 L582.4354858398438,63.04318618774414 L583.4675903320312,63.092220306396484 L584.8560791015625,63.17802429199219 L586.48779296875,63.272254943847656 L588.2622680664062,63.35671615600586 L590.116943359375,63.435909271240234 L591.94677734375,63.516204833984375 L593.6392822265625,63.59546661376953 L594.9140625,63.663482666015625 L595.6578369140625,63.70648956298828 M619.0186767578125,63.98063278198242 L618.8609008789062,63.757484436035156 L618.5258178710938,63.404605865478516 L617.9581909179688,62.98448181152344 L617.1817626953125,62.61886215209961 L616.212158203125,62.35544204711914 L615.1111450195312,62.20756530761719 L613.989990234375,62.17085266113281 L612.979736328125,62.23918151855469 L612.16845703125,62.4027099609375 L611.6497802734375,62.68230056762695 L611.4395751953125,63.09852981567383 L611.5507202148438,63.656585693359375 L612.0098876953125,64.36228942871094 L612.8203125,65.19111633300781 L613.9326171875,66.08706665039062 L615.2835693359375,67.00513458251953 L616.7653198242188,67.9161605834961 L618.266357421875,68.8021469116211 L619.7066650390625,69.67623138427734 L620.99072265625,70.54714965820312 L622.0404052734375,71.4308853149414 L622.7958374023438,72.31562805175781 L623.22314453125,73.19237518310547 L623.2928466796875,74.03157806396484 L623.0130615234375,74.8010025024414 L622.368896484375,75.45653533935547 L621.3889770507812,76.00384521484375 L620.0904541015625,76.4135971069336 L618.5262451171875,76.67234802246094 L616.76611328125,76.76614379882812 L614.9118041992188,76.68802642822266 L613.05224609375,76.40901947021484 L611.3223876953125,75.97218322753906 L609.7908935546875,75.3985595703125 L608.5047607421875,74.75006103515625 L607.5277099609375,74.07289123535156 L606.8897094726562,73.41432189941406 L606.5828857421875,72.77130889892578 L606.5228271484375,72.26795196533203 L606.576904296875,71.94593811035156 M628.702880859375,47.85295104980469 L628.665283203125,47.8465576171875 L628.6480712890625,47.95027160644531 L628.678955078125,48.27830505371094 L628.776611328125,48.92164611816406 L628.9005126953125,49.89897537231445 L628.9976806640625,51.185386657714844 L629.0250244140625,52.7359619140625 L628.9859008789062,54.52825164794922 L628.9012451171875,56.55531692504883 L628.806884765625,58.77532196044922 L628.7166748046875,61.13740921020508 L628.6318969726562,63.54645919799805 L628.5498046875,65.90215301513672 L628.479248046875,68.11965942382812 L628.4334716796875,70.12866973876953 L628.4195556640625,71.82783508300781 L628.427001953125,73.15028381347656 L628.4423828125,74.05626678466797 L628.445556640625,74.58199310302734 L628.4375,74.73516082763672 L628.4338989257812,74.55564880371094 L628.4517822265625,74.06710052490234 L628.4822998046875,73.50718688964844 L628.5152587890625,73.06121826171875 M623.7255859375,60.84326934814453 L623.9021606445312,61.000728607177734 L624.3304443359375,61.262939453125 L625.0945434570312,61.590087890625 L626.212646484375,61.89018630981445 L627.6465454101562,62.10982894897461 L629.3181762695312,62.22283935546875 L631.100341796875,62.242347717285156 L632.89208984375,62.18419647216797 L634.57373046875,62.082889556884766 L636.0489501953125,61.958866119384766 L637.1104736328125,61.852088928222656 L637.7160034179688,61.78227233886719 M640.132568359375,62.84578323364258 L640.2340087890625,63.112850189208984 L640.39111328125,63.652442932128906 L640.5750732421875,64.49111938476562 L640.736083984375,65.57760620117188 L640.8727416992188,66.86189270019531 L641.0159301757812,68.28209686279297 L641.2191772460938,69.74838256835938 L641.5457153320312,71.15064239501953 L642.053466796875,72.366943359375 L642.7578735351562,73.29059600830078 L643.6586303710938,73.84896087646484 L644.707275390625,73.9996109008789 L645.852783203125,73.71588897705078 L647.05224609375,73.02682495117188 L648.2833251953125,71.99343872070312 L649.524169921875,70.7034683227539 L650.760009765625,69.27301788330078 L651.9375610351562,67.80459594726562 L653.015380859375,66.38813781738281 L653.9283447265625,65.12113952636719 L654.62841796875,64.09304809570312 L655.1005859375,63.33899688720703 L655.35302734375,62.87920379638672 L655.4166870117188,62.72128677368164 L655.3370361328125,62.8778190612793 L655.10107421875,63.38865661621094 L654.6903076171875,64.30680084228516 L654.089111328125,65.60794067382812 L653.2874755859375,67.24117279052734 L652.3226318359375,69.14346313476562 L651.2637939453125,71.25946044921875 L650.1633911132812,73.55646514892578 L649.0887451171875,76.00926208496094 L648.0994262695312,78.54627990722656 L647.2357177734375,81.07890319824219 L646.5316162109375,83.50525665283203 L646.0123291015625,85.72832489013672 L645.6781005859375,87.65634155273438 L645.5027465820312,89.23783874511719 L645.4647216796875,90.36865997314453 L645.5344848632812,90.98865509033203 L645.6627197265625,91.08946228027344 L645.7886962890625,90.89300537109375 L645.878662109375,90.62090301513672 M656.93115234375,53.03535842895508 L657.0211181640625,53.231746673583984 L657.1619262695312,53.630096435546875 L657.322509765625,54.2703857421875 L657.4459228515625,55.12893295288086 L657.5230712890625,56.223384857177734 L657.5489501953125,57.556861877441406 L657.52880859375,59.13715362548828 L657.491943359375,60.949222564697266 L657.436279296875,62.96152877807617 L657.3575439453125,65.09615325927734 L657.265380859375,67.2834243774414 L657.1641845703125,69.42158508300781 L657.0955810546875,71.44083404541016 L657.10009765625,73.23810577392578 L657.1871948242188,74.73462677001953 L657.357666015625,75.84412384033203 L657.5748901367188,76.53361511230469 L657.7862548828125,76.82596588134766 L657.9493408203125,76.8743896484375 L658.04150390625,76.81405639648438 M663.98486328125,68.67081451416016 L664.27099609375,68.56285095214844 L664.8328857421875,68.34994506835938 L665.701171875,68.0240249633789 L666.809814453125,67.59951782226562 L668.0984497070312,67.07852172851562 L669.4827880859375,66.46460723876953 L670.8487548828125,65.76202392578125 L672.0745849609375,65.0093994140625 L673.0465698242188,64.2524185180664 L673.681640625,63.52762985229492 L673.93359375,62.859886169433594 L673.8115234375,62.27359390258789 L673.334228515625,61.79996109008789 L672.5261840820312,61.49641418457031 L671.4088745117188,61.4080924987793 L670.0323486328125,61.56510925292969 L668.4896240234375,61.96739196777344 L666.900146484375,62.59878921508789 L665.3900146484375,63.44511032104492 L664.0380249023438,64.47809600830078 L662.8909912109375,65.65623474121094 L661.972900390625,66.93594360351562 L661.333984375,68.27436065673828 L661.0081787109375,69.63356018066406 L661.059814453125,70.99028015136719 L661.5015869140625,72.2879867553711 L662.3455810546875,73.45519256591797 L663.5776977539062,74.40764617919922 L665.1820068359375,75.089599609375 L667.11328125,75.47760772705078 L669.322509765625,75.60724639892578 L671.72509765625,75.50748443603516 L674.168212890625,75.2352066040039 L676.452880859375,74.8498764038086 L678.1687622070312,74.49325561523438 L679.1666259765625,74.24767303466797 M705.107666015625,56.74668884277344 L704.9207763671875,56.434974670410156 L704.537109375,55.949302673339844 L703.9232177734375,55.37424850463867 L703.0906982421875,54.86682891845703 L702.0668334960938,54.494529724121094 L700.8890991210938,54.296390533447266 L699.6220703125,54.27064514160156 L698.3568115234375,54.43407440185547 L697.18359375,54.7783317565918 L696.1646728515625,55.294246673583984 L695.3720703125,55.97663116455078 L694.8477783203125,56.818023681640625 L694.6512451171875,57.80620193481445 L694.8189697265625,58.91731643676758 L695.3711547851562,60.10683822631836 L696.2914428710938,61.3206672668457 L697.5638427734375,62.52296447753906 L699.1367797851562,63.70005416870117 L700.9544067382812,64.86029815673828 L702.9082641601562,66.00081634521484 L704.8821411132812,67.11841583251953 L706.739990234375,68.19815826416016 L708.38623046875,69.23918914794922 L709.7449951171875,70.24150848388672 L710.7892456054688,71.21328735351562 L711.510986328125,72.15779876708984 L711.9421997070312,73.07255554199219 L712.0767822265625,73.93841552734375 L711.9256591796875,74.73174285888672 L711.4754638671875,75.41088104248047 L710.71826171875,75.92327880859375 L709.6673583984375,76.23445129394531 L708.3668212890625,76.30668640136719 L706.85107421875,76.11609649658203 L705.1873168945312,75.65666198730469 L703.4603881835938,74.94456481933594 L701.7645263671875,73.99755096435547 L700.2115478515625,72.86134338378906 L698.9019775390625,71.56512451171875 L697.910888671875,70.15129089355469 L697.2738647460938,68.65094757080078 L697.0196533203125,67.10962677001953 L697.1505126953125,65.5577163696289 L697.6522827148438,64.02196502685547 L698.5070190429688,62.52070617675781 L699.6763916015625,61.08690643310547 L701.0933837890625,59.74543762207031 L702.7042846679688,58.53291320800781 L704.4574584960938,57.46160888671875 L706.2999267578125,56.53916931152344 L708.1802978515625,55.77156066894531 L710.0262451171875,55.17316818237305 L711.7706909179688,54.748191833496094 L713.3544311523438,54.487762451171875 L714.7432861328125,54.3674430847168 L715.933837890625,54.394874572753906 L716.9002685546875,54.54829788208008 L717.634765625,54.81357192993164 L718.1100463867188,55.0850715637207 L718.3488159179688,55.281070709228516 M720.1737060546875,75.2625503540039 L720.1668701171875,75.23798370361328 L720.1417236328125,75.19669342041016 L720.0845947265625,75.14495849609375 L720.0001220703125,75.10456848144531 L719.8983154296875,75.09403228759766 L719.812255859375,75.10794067382812 L719.7625122070312,75.12663269042969 " fill="none" stroke="black" stroke-linecap="round" stroke-width="1" /></svg>