<?xml version="1.0" encoding="utf-8" ?>
<svg baseProfile="full" height="100%" version="1.1" viewBox="0,0,1000,120" width="100%" xmlns="http://www.w3.org/2000/svg" xmlns:ev="http://www.w3.org/2001/xml-events" xmlns:xlink="http://www.w3.org/1999/xlink"><defs /><rect fill="white" height="120" width="1000" x="0" y="0" /><path d="M0,0 M382.567626953125,48.064788818359375 L382.65155029296875,48.15397262573242 L382.7104187011719,48.42351531982422 L382.67340087890625,49.010345458984375 L382.4862060546875,50.04437255859375 L382.1711120605469,51.609012603759766 L381.77490234375,53.72321319580078 L381.3505554199219,56.33285903930664 L380.92291259765625,59.301029205322266 L380.5043029785156,62.44521713256836 L380.11065673828125,65.5472183227539 L379.734130859375,68.36724090576172 L379.4158020019531,70.59491729736328 L379.20556640625,71.9937744140625 L379.142578125,72.47522735595703 L379.18218994140625,72.3552474975586 L379.2651672363281,72.01774597167969 M379.1853332519531,47.22608184814453 L379.2732849121094,46.98004150390625 L379.50823974609375,46.64277648925781 L379.9508972167969,46.301231384277344 L380.6515197753906,46.06489562988281 L381.6284484863281,45.92527770996094 L382.8722229003906,45.86553955078125 L384.30731201171875,45.84538650512695 L385.89349365234375,45.8412971496582 L387.5213623046875,45.82238006591797 L389.0967102050781,45.76328659057617 L390.3202819824219,45.685089111328125 L391.07000732421875,45.618385314941406 M392.5616760253906,45.0 L392.5711975097656,45.15229797363281 L392.51300048828125,45.62704086303711 L392.3476257324219,46.60990524291992 L392.057861328125,48.19277572631836 L391.6942443847656,50.339508056640625 L391.31610107421875,52.913963317871094 L390.96063232421875,55.70720291137695 L390.63055419921875,58.523582458496094 L390.3233337402344,61.1667366027832 L390.0201721191406,63.44108200073242 L389.7350158691406,65.20419311523438 L389.50177001953125,66.34276580810547 L389.394775390625,66.80863189697266 L389.494384765625,66.63516998291016 L389.8623352050781,65.846923828125 L390.5081787109375,64.48213195800781 L391.4018249511719,62.67138671875 L392.4737548828125,60.60691452026367 L393.6591491699219,58.56143569946289 L394.8638000488281,56.81309509277344 L395.9918518066406,55.54810333251953 L396.96636962890625,54.84146499633789 L397.7431945800781,54.727027893066406 L398.3208312988281,55.21657943725586 L398.7218933105469,56.31108093261719 L398.9641418457031,57.935707092285156 L399.0768127441406,59.91046905517578 L399.1221923828125,61.97308349609375 L399.1813659667969,63.86897659301758 L399.34033203125,65.4181900024414 L399.6637878417969,66.53783416748047 L400.19696044921875,67.18978118896484 L400.946044921875,67.35196685791016 L401.9020690917969,67.00308990478516 L403.00482177734375,66.14368438720703 L404.1492614746094,64.82730865478516 L405.2222595214844,63.18095397949219 L406.1572265625,61.38146209716797 L406.9268798828125,59.64164352416992 L407.54571533203125,58.149906158447266 L408.0186462402344,57.0256233215332 L408.33935546875,56.3316650390625 L408.47857666015625,56.10040283203125 L408.441650390625,56.36561965942383 L408.257080078125,57.17500305175781 L407.9735107421875,58.5297966003418 L407.65716552734375,60.319217681884766 L407.397705078125,62.346336364746094 L407.236083984375,64.34068298339844 L407.19830322265625,66.065673828125 L407.2763977050781,67.37875366210938 L407.4765319824219,68.13821411132812 L407.8035888671875,68.29473876953125 L408.27679443359375,67.90097045898438 L408.73956298828125,67.2930908203125 L409.0794677734375,66.76505279541016 M411.3643798828125,48.93166732788086 L411.3308410644531,49.069217681884766 L411.265869140625,49.37237548828125 L411.19342041015625,49.726261138916016 L411.13739013671875,50.01599884033203 M419.264404296875,56.7813835144043 L419.3656005859375,56.44498062133789 L419.3495788574219,55.829158782958984 L419.2422180175781,55.162384033203125 L419.0694580078125,54.673133850097656 M415.9891662597656,53.94734191894531 L415.53424072265625,54.107177734375 L414.94732666015625,54.46831512451172 L414.4478759765625,55.08502197265625 L414.3376770019531,55.95499801635742 L414.6893310546875,57.06955337524414 L415.467041015625,58.41079330444336 L416.5172119140625,59.95598602294922 L417.6730041503906,61.674808502197266 L418.7132568359375,63.47877883911133 L419.466552734375,65.2105484008789 L419.8095703125,66.6970443725586 L419.69281005859375,67.79047393798828 L419.13958740234375,68.4228744506836 L418.219482421875,68.62201690673828 L416.98931884765625,68.40302276611328 L415.6012268066406,67.82691955566406 L414.2118225097656,67.00669860839844 L413.12506103515625,66.23440551757812 L412.47967529296875,65.70246887207031 M439.199951171875,58.32727813720703 L439.1580810546875,58.56498336791992 L439.02496337890625,59.13145446777344 L438.7765808105469,60.1370849609375 L438.43487548828125,61.60002517700195 L438.0624694824219,63.46879196166992 L437.724853515625,65.58667755126953 L437.46490478515625,67.71988677978516 L437.31304931640625,69.53478240966797 L437.28387451171875,70.74879455566406 L437.37945556640625,71.23088836669922 L437.52191162109375,71.20336151123047 L437.6502685546875,70.97105407714844 M441.8642578125,49.89708709716797 L441.9132080078125,49.7424430847168 L441.9852294921875,49.5649528503418 L442.05523681640625,49.420799255371094 L442.0982666015625,49.36616516113281 M450.2186279296875,57.518497467041016 L450.1726989746094,57.265830993652344 L449.95526123046875,56.87178421020508 L449.48077392578125,56.44046401977539 L448.7447814941406,56.17057800292969 L447.85198974609375,56.18780517578125 L446.96429443359375,56.53295135498047 L446.24139404296875,57.167564392089844 L445.8055114746094,58.033878326416016 L445.72698974609375,59.08191680908203 L446.02685546875,60.30280685424805 L446.6617736816406,61.69506072998047 L447.516357421875,63.215850830078125 L448.42803955078125,64.79598236083984 L449.22174072265625,66.32976531982422 L449.7447509765625,67.71687316894531 L449.9071044921875,68.86563873291016 L449.68023681640625,69.7108383178711 L449.0618591308594,70.19165802001953 L448.10443115234375,70.2878189086914 L446.88214111328125,69.96414184570312 L445.5360412597656,69.28160858154297 L444.24713134765625,68.37062072753906 L443.28179931640625,67.54855346679688 L442.728271484375,67.00301361083984 M477.691650390625,59.65576934814453 L477.618408203125,59.239158630371094 L477.3247985839844,58.566856384277344 L476.68548583984375,57.779937744140625 L475.65240478515625,57.15480041503906 L474.2834777832031,56.87067413330078 L472.72039794921875,57.02696228027344 L471.1217956542969,57.6407470703125 L469.6128234863281,58.681827545166016 L468.29296875,60.08915710449219 L467.25054931640625,61.78459548950195 L466.55438232421875,63.65056228637695 L466.24383544921875,65.51143646240234 L466.310546875,67.18156433105469 L466.7064208984375,68.47083282470703 L467.3728942871094,69.24162292480469 L468.2845764160156,69.41609191894531 L469.4402160644531,68.97517395019531 L470.78955078125,67.94906616210938 L472.24700927734375,66.45587921142578 L473.68084716796875,64.67221069335938 L474.9427490234375,62.851280212402344 L475.9344482421875,61.24563217163086 L476.62371826171875,60.034156799316406 L477.0140075683594,59.27655029296875 L477.162109375,58.95359802246094 L477.11456298828125,59.01179885864258 L476.8961181640625,59.466087341308594 L476.5460205078125,60.38882827758789 L476.1356201171875,61.80655288696289 L475.7702941894531,63.622127532958984 L475.5556945800781,65.62300109863281 L475.62298583984375,67.51459503173828 L476.020751953125,69.04347229003906 L476.7276306152344,70.09321594238281 L477.45849609375,70.6664810180664 L478.00323486328125,70.88697814941406 M503.99945068359375,62.64379119873047 L504.0696105957031,62.135536193847656 L504.02392578125,61.321815490722656 L503.7314758300781,60.32855224609375 L503.0709228515625,59.41307067871094 L502.0487976074219,58.72181701660156 L500.7423400878906,58.38570785522461 L499.2568359375,58.49287033081055 L497.6995849609375,59.12187576293945 L496.20062255859375,60.275333404541016 L494.8761901855469,61.90064239501953 L493.83428955078125,63.89183044433594 L493.15667724609375,66.0602798461914 L492.8793640136719,68.17042541503906 L493.0173645019531,69.99369812011719 L493.5624084472656,71.3249282836914 L494.49578857421875,72.03367614746094 L495.7890625,72.05325317382812 L497.3658447265625,71.33442687988281 L499.11553955078125,69.89299774169922 L500.910888671875,67.83306121826172 L502.6363220214844,65.32379150390625 L504.1993408203125,62.55678176879883 L505.55865478515625,59.72993469238281 L506.67218017578125,57.019935607910156 L507.52276611328125,54.640625 L508.11688232421875,52.78705978393555 L508.4969482421875,51.559669494628906 L508.7017822265625,50.936378479003906 L508.7646484375,50.8463134765625 L508.6844482421875,51.25177764892578 L508.44525146484375,52.22401809692383 L508.044921875,53.851951599121094 L507.5252380371094,56.10014724731445 L506.9407043457031,58.789710998535156 L506.3537902832031,61.642093658447266 L505.82806396484375,64.37491607666016 L505.40496826171875,66.77228546142578 L505.13800048828125,68.71809387207031 L505.09228515625,70.1524658203125 L505.3218994140625,71.06935119628906 L505.87994384765625,71.49040985107422 L506.7867431640625,71.44530487060547 L508.0163879394531,70.94771575927734 L509.520751953125,70.02933502197266 L511.20257568359375,68.73926544189453 L512.9309692382812,67.14630126953125 L514.5677490234375,65.33708190917969 L515.9647827148438,63.417991638183594 L517.0243530273438,61.52457046508789 L517.6978759765625,59.80289077758789 L517.9813842773438,58.3904914855957 L517.9112548828125,57.3839111328125 L517.5195922851562,56.82554626464844 L516.824462890625,56.73371505737305 L515.8827514648438,57.1368522644043 L514.7783813476562,58.04359436035156 L513.646240234375,59.42427444458008 L512.6533203125,61.18729782104492 L511.9296569824219,63.17097091674805 L511.54998779296875,65.16887664794922 L511.534912109375,66.98274230957031 L511.8345947265625,68.45694732666016 L512.3768310546875,69.49252319335938 L513.1006469726562,70.04144287109375 L513.965576171875,70.07242584228516 L514.971923828125,69.55879211425781 L516.1193237304688,68.52120971679688 L517.3538208007812,67.04617309570312 L518.60986328125,65.2908935546875 L519.8201904296875,63.449981689453125 L520.9146728515625,61.70114517211914 L521.8517456054688,60.1844367980957 L522.5992431640625,59.00839614868164 L523.10791015625,58.257652282714844 L523.3597412109375,58.015995025634766 L523.35888671875,58.36211395263672 L523.1079711914062,59.33597183227539 L522.6461791992188,60.89795684814453 L522.0438842773438,62.86149215698242 L521.39404296875,64.92355346679688 L520.8032836914062,66.75331115722656 L520.3372802734375,68.11215209960938 L520.03466796875,68.89448547363281 L519.9360961914062,69.13571166992188 L520.071533203125,68.86040496826172 L520.4840087890625,68.05731201171875 L521.19873046875,66.7248306274414 L522.1657104492188,64.97019958496094 L523.3143310546875,63.0141487121582 L524.5740966796875,61.1973762512207 L525.8365478515625,59.75785827636719 L527.0059814453125,58.815155029296875 L528.0068359375,58.38050842285156 L528.7744140625,58.44084930419922 L529.2774047851562,58.98271942138672 L529.53759765625,60.02861785888672 L529.56494140625,61.48316955566406 L529.400634765625,63.183406829833984 L529.1123046875,64.88310241699219 L528.7783813476562,66.35160827636719 L528.4615478515625,67.4446792602539 L528.2190551757812,68.12808227539062 L528.0894775390625,68.38926696777344 L528.1273193359375,68.23021697998047 L528.3883056640625,67.59867858886719 L528.9116821289062,66.47677612304688 L529.6991577148438,64.96855926513672 L530.7124633789062,63.278480529785156 L531.8834228515625,61.657318115234375 L533.119140625,60.312110900878906 L534.312744140625,59.324161529541016 L535.3729248046875,58.700950622558594 L536.235595703125,58.451637268066406 L536.8788452148438,58.60385513305664 L537.3017578125,59.215187072753906 L537.5089111328125,60.30488204956055 L537.50732421875,61.787841796875 L537.3388061523438,63.49824523925781 L537.0592041015625,65.22737884521484 L536.76123046875,66.78297424316406 L536.5173950195312,68.0383529663086 L536.3973388671875,68.92494201660156 L536.3764038085938,69.43389892578125 L536.4118041992188,69.64986419677734 M548.101318359375,58.895408630371094 L548.0498046875,58.57426834106445 L547.8238525390625,58.107173919677734 L547.3238525390625,57.61692810058594 L546.5096435546875,57.317237854003906 L545.4342041015625,57.32699966430664 L544.2012329101562,57.743865966796875 L542.9540405273438,58.596405029296875 L541.809326171875,59.86412811279297 L540.8780517578125,61.43193054199219 L540.2514038085938,63.14395523071289 L539.9840087890625,64.83566284179688 L540.0787353515625,66.37425231933594 L540.5134887695312,67.65056610107422 L541.239501953125,68.58611297607422 L542.208984375,69.09381103515625 L543.3602294921875,69.11748504638672 L544.5984497070312,68.61969757080078 L545.7927856445312,67.63362121582031 L546.8160400390625,66.25653839111328 L547.58837890625,64.66073608398438 L548.0824584960938,63.0059814453125 L548.3384399414062,61.45615005493164 L548.4200439453125,60.096466064453125 L548.4757690429688,58.99407958984375 L548.6592407226562,58.19011306762695 L549.0792236328125,57.70466995239258 L549.57080078125,57.47605895996094 L549.9799194335938,57.421234130859375 M567.2674560546875,59.70716094970703 M564.735107421875,59.20515060424805 L563.9678344726562,59.408355712890625 L562.7830810546875,59.862239837646484 L561.4107055664062,60.62428665161133 L560.2413940429688,61.68229675292969 L559.42626953125,63.000732421875 L559.0249633789062,64.48639678955078 L559.024658203125,66.01231384277344 L559.425048828125,67.42284393310547 L560.1915893554688,68.56217956542969 L561.2481079101562,69.31060028076172 L562.5057373046875,69.60261535644531 L563.837890625,69.4028549194336 L565.1064453125,68.71121978759766 L566.1935424804688,67.57077026367188 L566.9996948242188,66.07610321044922 L567.476318359375,64.37400817871094 L567.6636352539062,62.65812301635742 L567.6517333984375,61.12548065185547 L567.5490112304688,59.92689514160156 L567.4820556640625,59.14265060424805 L567.54150390625,58.75605392456055 L567.7991943359375,58.66422653198242 L568.2968139648438,58.72530746459961 L569.0508422851562,58.808372497558594 L570.0386962890625,58.77971267700195 L571.2056274414062,58.53868865966797 L572.46728515625,58.003211975097656 L573.7335205078125,57.140525817871094 L574.8981323242188,55.97715759277344 L575.89404296875,54.635074615478516 L576.6727294921875,53.26171112060547 L577.2061767578125,52.0185546875 L577.5015869140625,51.0054931640625 L577.5665283203125,50.29692840576172 L577.4105834960938,49.96540832519531 L577.0618286132812,50.122982025146484 L576.5354614257812,50.883033752441406 L575.87158203125,52.34215545654297 L575.1348876953125,54.472660064697266 L574.37109375,57.15579605102539 L573.6136474609375,60.21633529663086 L572.8870239257812,63.46058654785156 L572.1968994140625,66.73579406738281 L571.5823364257812,69.8642807006836 L571.0951538085938,72.64359283447266 L570.78173828125,74.66300201416016 L570.6294555664062,75.80769348144531 M572.40185546875,63.840843200683594 L572.3421020507812,63.639015197753906 L572.2366943359375,63.39680099487305 L572.0894775390625,63.20012664794922 L571.9425659179688,63.14591979980469 L571.8221435546875,63.21358871459961 L571.76025390625,63.35260772705078 L571.7437744140625,63.48025131225586 L571.756103515625,63.5692138671875 M589.7098999023438,59.07172393798828 L589.7670288085938,58.851287841796875 L589.722900390625,58.53301239013672 L589.474609375,58.21045684814453 L588.9495239257812,58.01832962036133 L588.2109985351562,58.016090393066406 L587.396240234375,58.24049758911133 L586.6619873046875,58.69864273071289 L586.1438598632812,59.371376037597656 L585.948486328125,60.23463439941406 L586.1016845703125,61.251731872558594 L586.5670776367188,62.4085807800293 L587.23486328125,63.6958122253418 L587.9310913085938,65.07721710205078 L588.4940185546875,66.47647094726562 L588.784423828125,67.78785705566406 L588.737548828125,68.90838623046875 L588.360595703125,69.77581787109375 L587.6946411132812,70.350341796875 L586.8207397460938,70.63926696777344 L585.8448486328125,70.59406280517578 L584.8838500976562,70.19202423095703 L584.0803833007812,69.47077178955078 L583.5481567382812,68.72480010986328 L583.2841796875,68.16512298583984 M597.2714233398438,49.79412078857422 L597.3080444335938,49.87727355957031 L597.2962036132812,50.23291015625 L597.1766967773438,51.06359100341797 L596.9108276367188,52.5025520324707 L596.5211181640625,54.537628173828125 L596.0457763671875,57.0220832824707 L595.5194091796875,59.71266555786133 L594.94970703125,62.36910629272461 L594.358642578125,64.7624282836914 L593.78466796875,66.7248306274414 L593.3396606445312,68.05155181884766 L593.0718994140625,68.75091552734375 M595.4056396484375,59.845272064208984 L595.4154663085938,59.85723114013672 L595.4213256835938,59.935890197753906 L595.4490966796875,60.12013244628906 L595.5444946289062,60.40934753417969 L595.8002319335938,60.7449836730957 L596.30224609375,61.04909896850586 L597.0701904296875,61.23479080200195 L598.0782470703125,61.23408126831055 L599.2552490234375,61.01290512084961 L600.4774169921875,60.57962417602539 L601.6432495117188,59.99515151977539 L602.6591796875,59.35406494140625 L603.4558715820312,58.74831771850586 L604.00927734375,58.24360656738281 L604.2964477539062,57.895992279052734 L604.28369140625,57.78364944458008 L603.9710693359375,58.006351470947266 L603.385986328125,58.649757385253906 L602.618408203125,59.71771240234375 L601.8343505859375,61.09662628173828 L601.1806030273438,62.608062744140625 L600.7689819335938,64.06963348388672 L600.6691284179688,65.34146881103516 L600.8916625976562,66.33867645263672 L601.415283203125,66.9964599609375 L602.22998046875,67.25066375732422 L603.2923583984375,67.06124877929688 L604.5302124023438,66.43061828613281 L605.8566284179688,65.42642974853516 L607.1688232421875,64.16730499267578 L608.3638916015625,62.79567337036133 L609.3726196289062,61.45138931274414 L610.1525268554688,60.258419036865234 L610.6898803710938,59.30366134643555 L611.0123291015625,58.64112091064453 L611.1633911132812,58.301544189453125 L611.1598510742188,58.3181037902832 L611.01513671875,58.7447624206543 L610.7276611328125,59.63874816894531 L610.321533203125,61.03411865234375 L609.8441772460938,62.899723052978516 L609.3448486328125,65.15302276611328 L608.8311767578125,67.6626968383789 L608.3046875,70.28527069091797 L607.7234497070312,72.857421875 L607.05859375,75.2339859008789 L606.2978515625,77.25724029541016 L605.4683837890625,78.81359100341797 L604.6159057617188,79.8303451538086 L603.824951171875,80.29753112792969 L603.1615600585938,80.24055480957031 L602.6827392578125,79.69761657714844 L602.4397583007812,78.67645263671875 L602.4995727539062,77.21952819824219 L602.9107055664062,75.41445922851562 L603.7133178710938,73.40375518798828 L604.8984985351562,71.36686706542969 L606.40576171875,69.43743896484375 L608.149658203125,67.67691040039062 L610.0422973632812,66.07778930664062 L611.9930419921875,64.58819580078125 L613.923828125,63.14617156982422 L615.7490234375,61.705135345458984 L617.3941650390625,60.21763229370117 L618.8179931640625,58.66279983520508 L619.9907836914062,57.020538330078125 L620.9027099609375,55.31526184082031 L621.5511474609375,53.63837432861328 L621.926025390625,52.1092529296875 L622.0343017578125,50.857093811035156 L621.9053344726562,49.98663330078125 L621.560791015625,49.56123733520508 L621.0258178710938,49.63241195678711 L620.339599609375,50.26756286621094 L619.5448608398438,51.48442077636719 L618.7149047851562,53.24653625488281 L617.9406127929688,55.42679214477539 L617.299560546875,57.85287094116211 L616.850830078125,60.32692337036133 L616.6383056640625,62.68280792236328 L616.6754150390625,64.78217315673828 L616.9776611328125,66.5201187133789 L617.5674438476562,67.8232650756836 L618.4501953125,68.65335845947266 L619.605712890625,68.96456146240234 L620.9733276367188,68.73149108886719 L622.4444580078125,67.97817993164062 L623.876953125,66.77202606201172 L625.1405029296875,65.24085235595703 L626.1179809570312,63.568031311035156 L626.7374267578125,61.93746566772461 L626.978759765625,60.51411819458008 L626.8571166992188,59.440242767333984 L626.3941650390625,58.80618667602539 L625.6468505859375,58.651878356933594 L624.697998046875,59.00594711303711 L623.6826782226562,59.856807708740234 L622.7713623046875,61.13193893432617 L622.1231689453125,62.708595275878906 L621.8279418945312,64.41748809814453 L621.9302978515625,66.06832122802734 L622.42529296875,67.51034545898438 L623.274169921875,68.6453857421875 L624.5064697265625,69.36572265625 L626.07421875,69.62194061279297 L627.85498046875,69.43522644042969 L629.3857421875,69.05137634277344 L630.39111328125,68.69159698486328 M642.8590087890625,55.59162521362305 L642.8569946289062,55.74393081665039 L642.7720947265625,56.065982818603516 L642.535400390625,56.58781051635742 L642.109130859375,57.291259765625 L641.51904296875,58.14999771118164 L640.8303833007812,59.11086654663086 L640.1571655273438,60.12089157104492 L639.5787963867188,61.09821701049805 L639.157958984375,61.958377838134766 L638.9531860351562,62.65744400024414 L638.9771118164062,63.17547607421875 L639.2341918945312,63.51966094970703 L639.7369384765625,63.71383285522461 L640.4439697265625,63.766761779785156 L641.28466796875,63.67554473876953 L642.1817626953125,63.47163772583008 L643.017822265625,63.19242858886719 L643.7155151367188,62.89298629760742 L644.2347412109375,62.61513900756836 L644.5722045898438,62.389495849609375 L644.7568359375,62.22540283203125 L644.8414306640625,62.12453079223633 L644.8682861328125,62.08000946044922 L644.8745727539062,62.08519744873047 L644.87158203125,62.11044692993164 L644.8624267578125,62.13685989379883 L644.84521484375,62.1506233215332 L644.826416015625,62.14476776123047 L644.8167724609375,62.126983642578125 L644.8168334960938,62.10588073730469 L644.82177734375,62.0789909362793 L644.827392578125,62.05195617675781 L644.8251342773438,62.01991653442383 L644.8154296875,61.98295211791992 L644.8050537109375,61.95248031616211 L644.7904663085938,61.91994857788086 L644.7738037109375,61.87696075439453 L644.7646484375,61.826141357421875 L644.757080078125,61.76132583618164 L644.7526245117188,61.69132614135742 L644.7528076171875,61.63993453979492 L644.7496337890625,61.60022735595703 L644.7403564453125,61.56540298461914 L644.728271484375,61.528350830078125 L644.7072143554688,61.47850799560547 L644.68359375,61.423500061035156 L644.6626586914062,61.38044738769531 L644.6512451171875,61.34695053100586 L644.6471557617188,61.31755447387695 L644.640869140625,61.277217864990234 L644.628173828125,61.21725845336914 L644.6109619140625,61.152862548828125 L644.5866088867188,61.09208679199219 L644.5801391601562,61.04842758178711 L644.5806884765625,61.011531829833984 L644.5784912109375,60.9712028503418 L644.577880859375,60.92496871948242 L644.5771484375,60.87914276123047 L644.5670166015625,60.82319641113281 L644.570556640625,60.77231979370117 L644.5684814453125,60.715782165527344 L644.571533203125,60.67149353027344 L644.5792236328125,60.641265869140625 L644.5827026367188,60.618404388427734 L644.5706787109375,60.58892059326172 L644.5474853515625,60.55316162109375 L644.5118408203125,60.510643005371094 L644.4930419921875,60.485355377197266 L644.489990234375,60.4683952331543 L644.4976196289062,60.45429229736328 L644.510498046875,60.44245910644531 L644.5145263671875,60.421607971191406 L644.510498046875,60.39657211303711 L644.504638671875,60.37212371826172 L644.4952392578125,60.341468811035156 L644.4815673828125,60.307430267333984 L644.4706420898438,60.277889251708984 L644.4530029296875,60.243316650390625 L644.4407958984375,60.21173858642578 L644.4351806640625,60.17972183227539 L644.4317016601562,60.1425895690918 L644.421142578125,60.10152816772461 L644.3997802734375,60.062339782714844 L644.363037109375,60.02677536010742 L644.335205078125,60.010868072509766 L644.3244018554688,60.00941467285156 L644.329833984375,60.012760162353516 L644.3443603515625,60.01095962524414 L644.3521118164062,60.001277923583984 L644.3477172851562,59.98466110229492 L644.3352661132812,59.97315979003906 L644.3214111328125,59.9607048034668 L644.3175048828125,59.950260162353516 L644.3282470703125,59.93336868286133 L644.3410034179688,59.90647506713867 L644.349609375,59.86750411987305 L644.341064453125,59.82050323486328 L644.3253784179688,59.77202224731445 L644.3095703125,59.7321891784668 L644.3009033203125,59.69778060913086 L644.2943115234375,59.6689453125 L644.282958984375,59.6395263671875 L644.2598876953125,59.61112976074219 L644.238037109375,59.59454345703125 L644.2189331054688,59.58403778076172 L644.216552734375,59.57633972167969 L644.23291015625,59.57194137573242 L644.2486572265625,59.555519104003906 L644.2517700195312,59.53208923339844 L644.244140625,59.507286071777344 L644.2322387695312,59.4788818359375 L644.220947265625,59.44107437133789 L644.2132568359375,59.39166259765625 L644.1981201171875,59.32545471191406 L644.17822265625,59.2633056640625 L644.1596069335938,59.21358871459961 L644.1524658203125,59.1771240234375 L644.1417236328125,59.13705825805664 L644.127197265625,59.09316635131836 L644.1141967773438,59.055355072021484 L644.108154296875,59.0367317199707 L644.1069946289062,59.02906799316406 L644.108642578125,59.017730712890625 L644.0999755859375,58.99168395996094 L644.083251953125,58.95691680908203 L644.0704345703125,58.925453186035156 L644.060546875,58.89027404785156 L644.0592041015625,58.84781265258789 L644.0665893554688,58.79880142211914 L644.079345703125,58.75143051147461 L644.095458984375,58.713836669921875 L644.1114501953125,58.694217681884766 L644.1113891601562,58.67102813720703 L644.1007080078125,58.6427116394043 L644.0833740234375,58.6088752746582 L644.0660400390625,58.57050704956055 L644.054931640625,58.5301513671875 L644.0570068359375,58.505516052246094 L644.06103515625,58.48530960083008 L644.0682373046875,58.47199630737305 L644.0828857421875,58.46055221557617 L644.1051025390625,58.439659118652344 L644.1273193359375,58.40025329589844 L644.1509399414062,58.360939025878906 L644.1649169921875,58.31700897216797 L644.1669921875,58.2769660949707 L644.166259765625,58.24232482910156 L644.1636352539062,58.2142333984375 L644.15625,58.19093704223633 L644.1339111328125,58.17091751098633 L644.0914306640625,58.14175033569336 L644.0366821289062,58.10493850708008 L643.9945678710938,58.06623840332031 L643.9837646484375,58.04563903808594 L643.99462890625,58.04111099243164 L643.9991455078125,58.038055419921875 L643.9855346679688,58.02833557128906 L643.9556884765625,58.0125846862793 L643.9342041015625,57.99264144897461 L643.9443359375,57.98175811767578 L643.9592895507812,57.96168518066406 L643.9738159179688,57.93333435058594 L643.984375,57.90379333496094 L643.984619140625,57.88234329223633 L643.9832763671875,57.869415283203125 L643.990478515625,57.873165130615234 L643.98974609375,57.87320327758789 L643.994140625,57.872840881347656 L644.006591796875,57.86814498901367 L644.0169677734375,57.845970153808594 L644.018798828125,57.79298782348633 L644.0103759765625,57.71810531616211 L643.992919921875,57.62704086303711 L643.9815673828125,57.5467643737793 L643.9815673828125,57.49277877807617 L643.9844360351562,57.45564270019531 L643.98486328125,57.426570892333984 L643.978271484375,57.406917572021484 L643.961181640625,57.39401626586914 L643.948974609375,57.39252471923828 L643.9415283203125,57.38883590698242 L643.9334716796875,57.3647575378418 L643.9276733398438,57.32670593261719 L643.9298095703125,57.292118072509766 L643.921630859375,57.26441192626953 L643.9072265625,57.24212646484375 L643.879638671875,57.209022521972656 L643.842529296875,57.16250991821289 L643.8067626953125,57.11811065673828 L643.79736328125,57.09280014038086 L643.80029296875,57.08011245727539 L643.8251953125,57.07950210571289 L643.8575439453125,57.084598541259766 L643.8890380859375,57.0939826965332 L643.9133911132812,57.10732650756836 L643.936279296875,57.119659423828125 L643.9440307617188,57.12082290649414 L643.9630126953125,57.12092590332031 L643.9844360351562,57.11708450317383 L644.0076293945312,57.109745025634766 L644.0321044921875,57.102874755859375 L644.053955078125,57.09900665283203 L644.0643310546875,57.10105514526367 L644.0709228515625,57.11101531982422 L644.068115234375,57.110374450683594 L644.0613403320312,57.09660720825195 L644.0496215820312,57.06826400756836 L644.04052734375,57.03575134277344 L644.0376586914062,57.011932373046875 L644.03857421875,56.9981575012207 L644.048095703125,56.979530334472656 L644.065673828125,56.959529876708984 L644.071533203125,56.9244384765625 L644.07421875,56.880062103271484 L644.0802001953125,56.842735290527344 L644.0869140625,56.81682205200195 L644.0999755859375,56.79909896850586 L644.117431640625,56.792640686035156 L644.1246337890625,56.77976989746094 L644.131591796875,56.76338577270508 L644.146484375,56.749752044677734 L644.1622314453125,56.73650360107422 L644.1787109375,56.719383239746094 L644.194580078125,56.6982421875 L644.2075805664062,56.67277526855469 L644.21240234375,56.652565002441406 L644.2144775390625,56.64025115966797 L644.2177734375,56.63481140136719 L644.2257080078125,56.62737274169922 L644.2457275390625,56.620845794677734 L644.2811889648438,56.621307373046875 L644.3072509765625,56.62937927246094 L644.3203735351562,56.64126968383789 L644.3240356445312,56.650508880615234 L644.3223876953125,56.65147399902344 L644.3216552734375,56.64165496826172 L644.3363037109375,56.6318244934082 L644.352294921875,56.6226692199707 L644.3604736328125,56.60541915893555 L644.365478515625,56.579708099365234 L644.3712158203125,56.551025390625 L644.364990234375,56.510536193847656 L644.3671264648438,56.481849670410156 L644.3680419921875,56.464141845703125 L644.3564453125,56.44284439086914 L644.3563842773438,56.42915725708008 L644.3701782226562,56.42203140258789 L644.3785400390625,56.40487289428711 L644.39306640625,56.39458084106445 L644.3917236328125,56.3836784362793 L644.3751220703125,56.36970138549805 L644.3648681640625,56.36000061035156 L644.358154296875,56.34519958496094 L644.3455200195312,56.311641693115234 L644.3375244140625,56.27199172973633 L644.3243408203125,56.22848892211914 L644.32470703125,56.2009162902832 L644.3372802734375,56.18762969970703 L644.350341796875,56.18581008911133 L644.3536987304688,56.1851692199707 L644.3461303710938,56.176937103271484 L644.3272094726562,56.154720306396484 L644.3053588867188,56.11674118041992 L644.2839965820312,56.059635162353516 L644.2645874023438,55.994773864746094 L644.2576904296875,55.935791015625 L644.26904296875,55.891517639160156 L644.294189453125,55.87143325805664 L644.3097534179688,55.85641860961914 L644.3098754882812,55.83468246459961 L644.289794921875,55.80015563964844 L644.2623291015625,55.75830841064453 L644.2455444335938,55.71590805053711 L644.2468872070312,55.686767578125 L644.2557983398438,55.66884231567383 L644.2686767578125,55.66038513183594 L644.2782592773438,55.65794372558594 L644.2786865234375,55.663883209228516 L644.2785034179688,55.67454528808594 L644.2887573242188,55.69679260253906 L644.3096923828125,55.729095458984375 L644.33740234375,55.75733184814453 L644.35888671875,55.76554489135742 L644.3656005859375,55.755836486816406 L644.3638916015625,55.73399353027344 L644.3644409179688,55.71358108520508 L644.3740234375,55.70237350463867 L644.391845703125,55.70030975341797 L644.4119873046875,55.70289993286133 L644.43017578125,55.70731735229492 L644.4410400390625,55.7071533203125 L644.447509765625,55.699703216552734 L644.4564208984375,55.6833381652832 L644.4761962890625,55.67189407348633 L644.5050048828125,55.66891860961914 L644.5347900390625,55.66901397705078 L644.547607421875,55.661624908447266 L644.543701171875,55.64813995361328 L644.52978515625,55.62466049194336 L644.5225830078125,55.604312896728516 L644.524658203125,55.58565139770508 L644.5388793945312,55.5699577331543 L644.5546875,55.554100036621094 L644.5675048828125,55.544700622558594 L644.573486328125,55.540348052978516 L644.58251953125,55.53455352783203 L644.5989990234375,55.525657653808594 L644.6241455078125,55.513729095458984 L644.6524047851562,55.49717712402344 L644.671875,55.47003936767578 L644.6751708984375,55.443721771240234 L644.6739501953125,55.40074157714844 L644.6767578125,55.35585021972656 L644.6849365234375,55.31350326538086 L644.700439453125,55.283023834228516 L644.71728515625,55.26023483276367 L644.7308349609375,55.26412582397461 L644.7435302734375,55.26702117919922 L644.748779296875,55.266563415527344 L644.7471313476562,55.25045394897461 L644.74658203125,55.22694396972656 L644.75634765625,55.190067291259766 L644.7727661132812,55.161529541015625 L644.791259765625,55.14008712768555 M644.594482421875,59.282283782958984 L644.566162109375,59.371402740478516 L644.451904296875,59.6181755065918 L644.18359375,60.13412857055664 L643.7290649414062,61.03704071044922 L643.0916137695312,62.39492416381836 L642.3217163085938,64.1667709350586 L641.51123046875,66.28376770019531 L640.7636108398438,68.61505126953125 L640.167724609375,71.03995513916016 L639.8035888671875,73.4632339477539 L639.69677734375,75.76823425292969 L639.826171875,77.81682586669922 L640.1251220703125,79.4957275390625 L640.48828125,80.7154541015625 L640.8106689453125,81.482421875 L641.046630859375,81.78951263427734 L641.2034912109375,81.68743133544922 L641.3341064453125,81.24432373046875 L641.44580078125,80.71484375 L641.5316162109375,80.28823852539062 M648.43310546875,75.97952270507812 L648.460693359375,76.1313705444336 L648.4812622070312,76.3128662109375 L648.4794921875,76.46047973632812 L648.4456787109375,76.49906158447266 L648.4090576171875,76.45921325683594 L648.400634765625,76.38555145263672 L648.4356079101562,76.32943725585938 L648.4893798828125,76.26849365234375 L648.556640625,76.19174194335938 L648.608642578125,76.1090087890625 L648.6397705078125,76.0411148071289 " fill="none" stroke="black" stroke-linecap="round" stroke-width="1" /></svg>