<?xml version="1.0" encoding="utf-8" ?>
<svg baseProfile="full" height="100%" version="1.1" viewBox="0,0,1000,120" width="100%" xmlns="http://www.w3.org/2000/svg" xmlns:ev="http://www.w3.org/2001/xml-events" xmlns:xlink="http://www.w3.org/1999/xlink"><defs /><rect fill="white" height="120" width="1000" x="0" y="0" /><path d="M0,0 M354.3882751464844,45.54828643798828 L354.39056396484375,45.64323425292969 L354.4248352050781,45.972930908203125 L354.51226806640625,46.684844970703125 L354.65472412109375,47.86518096923828 L354.8385925292969,49.53068923950195 L355.01885986328125,51.628379821777344 L355.1808166503906,54.060752868652344 L355.3314514160156,56.70736312866211 L355.499755859375,59.43661117553711 L355.7149963378906,62.095619201660156 L355.9812927246094,64.5480728149414 L356.2618408203125,66.59581756591797 L356.510498046875,68.06075286865234 L356.6873779296875,68.86073303222656 L356.78271484375,69.13256072998047 L356.8189697265625,69.10762786865234 M344.6973876953125,45.730140686035156 L344.77728271484375,45.805355072021484 L345.0902404785156,45.9112663269043 L345.7929382324219,46.03117370605469 L346.9796142578125,46.1206169128418 L348.6564025878906,46.167789459228516 L350.7413024902344,46.15913391113281 L353.094482421875,46.09076690673828 L355.5945129394531,45.94853210449219 L358.07421875,45.75580596923828 L360.35382080078125,45.534156799316406 L362.0582275390625,45.348388671875 L363.052978515625,45.23225402832031 M364.755126953125,45.45857620239258 L364.8584899902344,45.83855438232422 L365.023681640625,46.62425994873047 L365.2242431640625,47.893333435058594 L365.3995056152344,49.5991325378418 L365.5148620605469,51.69266891479492 L365.5546875,54.06830596923828 L365.53961181640625,56.579410552978516 L365.50360107421875,59.04121398925781 L365.4939270019531,61.257972717285156 L365.5386962890625,63.055419921875 L365.6463928222656,64.3262939453125 L365.80963134765625,65.01084899902344 L366.0203552246094,65.0826644897461 L366.2910461425781,64.5486831665039 L366.6557312011719,63.43404769897461 L367.16546630859375,61.84294509887695 L367.87176513671875,59.98004150390625 L368.7849426269531,58.096561431884766 L369.8497314453125,56.441917419433594 L370.9830322265625,55.22643280029297 L372.0811767578125,54.57542419433594 L373.0564270019531,54.547672271728516 L373.86651611328125,55.15829086303711 L374.4762268066406,56.359893798828125 L374.8480224609375,58.03590774536133 L375.00091552734375,60.01390075683594 L374.984130859375,62.08806228637695 L374.925537109375,64.00169372558594 L374.9740295410156,65.53406524658203 L375.2127685546875,66.54684448242188 L375.5244140625,67.05780029296875 L375.79364013671875,67.21309661865234 M381.1041564941406,58.03794860839844 L381.0940856933594,58.253971099853516 L381.0517578125,58.779541015625 L380.9668273925781,59.6906852722168 L380.841796875,60.944515228271484 L380.7215270996094,62.422035217285156 L380.6407165527344,63.958984375 L380.6121520996094,65.39563751220703 L380.6470031738281,66.51118469238281 L380.72808837890625,67.12698364257812 L380.824462890625,67.1519546508789 L380.9103698730469,66.83612060546875 L380.9654235839844,66.45146942138672 M381.1913757324219,51.08972930908203 L381.1932373046875,50.99137878417969 L381.20745849609375,50.88874053955078 L381.2294921875,50.81406784057617 M394.44647216796875,57.85734558105469 L394.3883056640625,57.644065856933594 L394.1443176269531,57.31024932861328 L393.5880432128906,56.93091583251953 L392.6583557128906,56.64644241333008 L391.41204833984375,56.54257583618164 L389.9914855957031,56.65611267089844 L388.6141052246094,56.975093841552734 L387.502685546875,57.48276901245117 L386.8267822265625,58.14122009277344 L386.70367431640625,58.916725158691406 L387.1829833984375,59.77952194213867 L388.2288513183594,60.69499588012695 L389.7567443847656,61.626556396484375 L391.61639404296875,62.56715774536133 L393.5850830078125,63.49892807006836 L395.43402099609375,64.40016174316406 L396.96533203125,65.2502670288086 L398.0284729003906,66.02649688720703 L398.5654602050781,66.70127868652344 L398.5705871582031,67.27555084228516 L398.05804443359375,67.73994445800781 L397.0841064453125,68.0797348022461 L395.7329406738281,68.28652954101562 L394.11712646484375,68.35093688964844 L392.4028625488281,68.27767181396484 L390.7602233886719,68.1020278930664 L389.309326171875,67.87045288085938 L388.14410400390625,67.62754821777344 L387.2999267578125,67.41299438476562 L386.765380859375,67.24493408203125 L386.49481201171875,67.13594055175781 L386.4063415527344,67.08073425292969 M411.8057556152344,57.496498107910156 L411.78375244140625,57.475379943847656 L411.775390625,57.532230377197266 L411.79693603515625,57.788856506347656 L411.8563537597656,58.37019729614258 L411.94097900390625,59.34727096557617 L412.0359191894531,60.66831970214844 L412.1256103515625,62.224578857421875 L412.2291259765625,63.869537353515625 L412.3592834472656,65.4358901977539 L412.52545166015625,66.7740707397461 L412.6842346191406,67.70855712890625 L412.8002624511719,68.206787109375 M411.4435729980469,48.9906120300293 L411.3551025390625,48.72486114501953 L411.2706298828125,48.42174530029297 L411.21435546875,48.176918029785156 L411.2104187011719,48.086036682128906 M424.20147705078125,56.676300048828125 L423.9252624511719,56.42101287841797 L423.2843322753906,56.071800231933594 L422.2080078125,55.757713317871094 L420.770263671875,55.66250991821289 L419.15185546875,55.84267044067383 L417.628662109375,56.29574966430664 L416.46728515625,56.950439453125 L415.88275146484375,57.74481964111328 L416.0126647949219,58.61448287963867 L416.880859375,59.503639221191406 L418.3999328613281,60.354026794433594 L420.41668701171875,61.13519287109375 L422.69512939453125,61.83127212524414 L424.9825744628906,62.46343231201172 L427.0516662597656,63.06361389160156 L428.7209167480469,63.65346908569336 L429.853271484375,64.24551391601562 L430.39935302734375,64.83401489257812 L430.34735107421875,65.41127014160156 L429.7124328613281,65.95614624023438 L428.552734375,66.44491577148438 L426.9651794433594,66.83763122558594 L425.07940673828125,67.11418914794922 L423.0708923339844,67.25033569335938 L421.11798095703125,67.25639343261719 L419.3562927246094,67.14225769042969 L417.8895263671875,66.94114685058594 L416.8115234375,66.66645050048828 L416.1653747558594,66.35469055175781 L415.94281005859375,66.02913665771484 L415.986572265625,65.7672119140625 L416.1224060058594,65.60116577148438 M451.857177734375,57.90972900390625 M449.4685974121094,57.321617126464844 L448.8511657714844,57.57734680175781 L447.840087890625,58.09783172607422 L446.5591735839844,58.937618255615234 L445.3046875,60.05976104736328 L444.2523193359375,61.409454345703125 L443.56072998046875,62.86226272583008 L443.2895812988281,64.24049377441406 L443.46490478515625,65.359619140625 L444.0328063964844,66.08680725097656 L444.9190979003906,66.33193969726562 L446.0473937988281,66.06478118896484 L447.3348083496094,65.30531311035156 L448.65496826171875,64.10267639160156 L449.89862060546875,62.5694580078125 L450.9678039550781,60.87648391723633 L451.800048828125,59.222259521484375 L452.3739013671875,57.79470443725586 L452.70953369140625,56.73107147216797 L452.8311767578125,56.10286331176758 L452.8211364746094,55.95017623901367 L452.75274658203125,56.280723571777344 L452.68914794921875,57.0914306640625 L452.6910095214844,58.32477951049805 L452.798828125,59.860801696777344 L453.0396728515625,61.54664611816406 L453.4425048828125,63.234676361083984 L454.07080078125,64.79700469970703 L454.9329833984375,66.13249206542969 L455.98638916015625,67.16372680664062 L456.92919921875,67.81897735595703 L457.568603515625,68.13592529296875 M477.95977783203125,60.21954345703125 L477.89202880859375,59.79021453857422 L477.71044921875,59.14474105834961 L477.3189697265625,58.41276168823242 L476.6506652832031,57.82828903198242 L475.67437744140625,57.493568420410156 L474.42816162109375,57.50297927856445 L473.00079345703125,57.90677261352539 L471.5474853515625,58.7443962097168 L470.2147216796875,59.97547912597656 L469.161376953125,61.49911880493164 L468.52618408203125,63.16061782836914 L468.37969970703125,64.78312683105469 L468.7210998535156,66.1928482055664 L469.51458740234375,67.25242614746094 L470.67828369140625,67.84335327148438 L472.1151123046875,67.89119720458984 L473.72259521484375,67.36032104492188 L475.38287353515625,66.25813293457031 L476.97100830078125,64.62887573242188 L478.40692138671875,62.562496185302734 L479.6237487792969,60.167755126953125 L480.5943908691406,57.586727142333984 L481.31048583984375,54.98128128051758 L481.78424072265625,52.530975341796875 L482.04669189453125,50.40179443359375 L482.159423828125,48.72000503540039 L482.16864013671875,47.578975677490234 L482.1119384765625,47.050601959228516 L482.00634765625,47.18031311035156 L481.8553466796875,47.9914436340332 L481.683349609375,49.47444534301758 L481.51593017578125,51.51993179321289 L481.3973388671875,53.97142028808594 L481.3726806640625,56.62736892700195 L481.4901123046875,59.26407241821289 L481.81427001953125,61.69287109375 L482.3619384765625,63.76822280883789 L483.07928466796875,65.37673950195312 L483.74005126953125,66.4153060913086 L484.18994140625,66.93830108642578 M485.4530029296875,63.999427795410156 L485.7595520019531,63.95047378540039 L486.38104248046875,63.76774978637695 L487.33209228515625,63.380252838134766 L488.50677490234375,62.75421905517578 L489.7939758300781,61.923377990722656 L491.0587463378906,60.93342590332031 L492.1751708984375,59.858158111572266 L493.02532958984375,58.76935958862305 L493.5166931152344,57.7572135925293 L493.5878601074219,56.91033935546875 L493.23065185546875,56.32183837890625 L492.4897766113281,56.065338134765625 L491.43963623046875,56.200828552246094 L490.21759033203125,56.75300216674805 L488.9993896484375,57.702823638916016 L487.97784423828125,58.96957015991211 L487.3154602050781,60.434932708740234 L487.1235656738281,61.967018127441406 L487.40155029296875,63.431312561035156 L488.1907958984375,64.69518280029297 L489.42437744140625,65.64567565917969 L490.9820556640625,66.22335052490234 L492.3863220214844,66.47967529296875 L493.3426513671875,66.53326416015625 M498.05474853515625,56.92753601074219 L498.0734558105469,57.15673828125 L498.12054443359375,57.66645431518555 L498.1990966796875,58.51345443725586 L498.29864501953125,59.655181884765625 L498.3919677734375,61.008880615234375 L498.46710205078125,62.4288330078125 L498.51507568359375,63.76300811767578 L498.5469665527344,64.8637466430664 L498.59326171875,65.59899139404297 L498.68536376953125,65.87007141113281 L498.8384094238281,65.63101196289062 L499.094970703125,64.87651062011719 L499.4753723144531,63.68230438232422 L500.00360107421875,62.20303726196289 L500.6920471191406,60.614566802978516 L501.51885986328125,59.10135269165039 L502.42431640625,57.81208801269531 L503.3556823730469,56.84783172607422 L504.2445068359375,56.282264709472656 L505.044921875,56.175899505615234 L505.7093505859375,56.54216384887695 L506.2001647949219,57.3712043762207 L506.48736572265625,58.58418655395508 L506.5881042480469,60.03554153442383 L506.5445556640625,61.521949768066406 L506.4337463378906,62.83454895019531 L506.3232421875,63.80622100830078 L506.27667236328125,64.34574890136719 L506.320068359375,64.41450500488281 L506.4901123046875,64.01411437988281 L506.81585693359375,63.173370361328125 L507.323486328125,61.96696472167969 L508.0223388671875,60.537227630615234 L508.91973876953125,59.06547164916992 L509.96429443359375,57.7209587097168 L511.08599853515625,56.64567565917969 L512.1802978515625,55.94152069091797 L513.1383056640625,55.665199279785156 L513.8657836914062,55.84197235107422 L514.3323974609375,56.47317886352539 L514.5307006835938,57.50048065185547 L514.5076293945312,58.8249397277832 L514.3240966796875,60.31211471557617 L514.1016845703125,61.817012786865234 L513.9436645507812,63.18186950683594 L513.9364624023438,64.30096435546875 L514.0286254882812,65.05086517333984 L514.1480712890625,65.43997192382812 M523.8494873046875,58.75410079956055 L523.6836547851562,58.37841796875 L523.3181762695312,57.89060592651367 L522.6979370117188,57.48908615112305 L521.823974609375,57.429344177246094 L520.7332763671875,57.795658111572266 L519.5457763671875,58.60152816772461 L518.4389038085938,59.76054763793945 L517.5970458984375,61.15067672729492 L517.1939086914062,62.60277557373047 L517.3309326171875,63.911712646484375 L518.0274047851562,64.91344451904297 L519.2221069335938,65.50041961669922 L520.7789916992188,65.62084197998047 L522.4991455078125,65.2832260131836 L524.177734375,64.53604125976562 L525.6185913085938,63.45830154418945 L526.65869140625,62.15964126586914 L527.19384765625,60.77461624145508 L527.2022705078125,59.430870056152344 L526.6874389648438,58.25969314575195 L525.759521484375,57.36011505126953 L524.6033935546875,56.78779220581055 L523.5902099609375,56.50648498535156 L522.9303588867188,56.42601776123047 M545.2485961914062,59.12541580200195 L544.8203735351562,59.0153923034668 L544.0595092773438,58.954368591308594 L543.00244140625,59.077842712402344 L541.826904296875,59.52793884277344 L540.6646728515625,60.32223129272461 L539.6963500976562,61.408721923828125 L539.0748291015625,62.673248291015625 L538.9334106445312,63.97599792480469 L539.3211669921875,65.1541519165039 L540.2288208007812,66.07001495361328 L541.5734252929688,66.61204528808594 L543.2376098632812,66.71671295166016 L545.057373046875,66.37000274658203 L546.8267822265625,65.59457397460938 L548.3367919921875,64.45409393310547 L549.416015625,63.07623291015625 L549.93994140625,61.62879943847656 L549.896484375,60.271202087402344 L549.364501953125,59.11975860595703 L548.472900390625,58.264564514160156 L547.4266967773438,57.74695587158203 L546.4207763671875,57.56101989746094 L545.6690673828125,57.587642669677734 L545.248046875,57.69438171386719 M561.0952758789062,49.30061721801758 L560.8809814453125,48.61756134033203 L560.428955078125,47.676292419433594 L559.727783203125,46.74290466308594 L558.8577880859375,46.213050842285156 L557.9126586914062,46.19978332519531 L556.99169921875,46.750511169433594 L556.18798828125,47.83332824707031 L555.5618896484375,49.43828582763672 L555.1732788085938,51.49029541015625 L555.0299682617188,53.891754150390625 L555.0966186523438,56.530426025390625 L555.303955078125,59.27214431762695 L555.5902709960938,61.97334289550781 L555.9049072265625,64.49515533447266 L556.2337036132812,66.70303344726562 L556.5328369140625,68.45184326171875 L556.7713623046875,69.65556335449219 L556.905517578125,70.29133605957031 L556.9483642578125,70.50118255615234 L556.9365844726562,70.48400115966797 M552.2640380859375,60.27280807495117 L552.42431640625,60.06155776977539 L552.8878173828125,59.77332305908203 L553.763427734375,59.482234954833984 L555.129638671875,59.30513381958008 L556.8986206054688,59.25448226928711 L558.8764038085938,59.316558837890625 L560.5368041992188,59.413726806640625 L561.6014404296875,59.500633239746094 M581.4696044921875,56.65741729736328 L581.2073364257812,56.36605453491211 L580.6378173828125,55.96607971191406 L579.6634521484375,55.58634567260742 L578.2962646484375,55.41767883300781 L576.6170043945312,55.506195068359375 L574.8284912109375,55.85575485229492 L573.2021484375,56.407867431640625 L572.0381469726562,57.11466979980469 L571.534423828125,57.92150115966797 L571.786865234375,58.785743713378906 L572.77001953125,59.65250015258789 L574.3661499023438,60.496055603027344 L576.396240234375,61.29926681518555 L578.6390991210938,62.073089599609375 L580.8363647460938,62.84221649169922 L582.7455444335938,63.6059684753418 L584.162109375,64.34452819824219 L584.955810546875,65.04607391357422 L585.0750732421875,65.69075012207031 L584.5338745117188,66.27716827392578 L583.3993530273438,66.81431579589844 L581.8046264648438,67.26936340332031 L579.9259643554688,67.60582733154297 L577.9774169921875,67.77863311767578 L576.1799926757812,67.76468658447266 L574.7105712890625,67.58918762207031 L573.7327880859375,67.37399291992188 L573.2349853515625,67.20449829101562 M589.5577392578125,47.14284896850586 L589.506103515625,47.55112075805664 L589.3871459960938,48.37801742553711 L589.1918334960938,49.6646728515625 L588.9444580078125,51.3288459777832 L588.6864013671875,53.29084777832031 L588.47216796875,55.44400405883789 L588.3525390625,57.663169860839844 L588.3472900390625,59.813804626464844 L588.4458618164062,61.73305892944336 L588.6114501953125,63.2943000793457 L588.7671508789062,64.33794403076172 L588.869873046875,64.88079833984375 M584.7347412109375,57.29405212402344 L584.98193359375,57.40301513671875 L585.5147705078125,57.60634231567383 L586.3868408203125,57.88080978393555 L587.622314453125,58.16693878173828 L589.1651611328125,58.42965316772461 L590.893798828125,58.63874816894531 L592.364501953125,58.772335052490234 L593.3196411132812,58.844505310058594 M596.3697509765625,57.410179138183594 L596.540283203125,57.67813491821289 L596.87939453125,58.17705154418945 L597.4017333984375,58.900428771972656 L598.0632934570312,59.75205612182617 L598.834716796875,60.66735076904297 L599.6787109375,61.57133102416992 L600.5625,62.40384292602539 L601.4664916992188,63.07221603393555 L602.3578491210938,63.503936767578125 L603.1924438476562,63.6581916809082 L603.8290405273438,63.62788772583008 L604.212890625,63.524356842041016 M606.2530517578125,58.180362701416016 L606.24169921875,58.36250305175781 L606.114501953125,58.7952766418457 L605.7838134765625,59.56757736206055 L605.1866455078125,60.693153381347656 L604.3544311523438,62.167076110839844 L603.354736328125,63.904136657714844 L602.2916259765625,65.80992889404297 L601.276123046875,67.78252410888672 L600.4296264648438,69.69692993164062 L599.8194580078125,71.4275131225586 L599.5213012695312,72.79835510253906 L599.5423583984375,73.64201354980469 L599.8255615234375,73.89875793457031 L600.1770629882812,73.78119659423828 L600.4610595703125,73.53313446044922 M611.608642578125,49.24491500854492 L611.6685791015625,49.45547103881836 L611.6871337890625,49.96605682373047 L611.6165771484375,50.87627410888672 L611.4144287109375,52.18829345703125 L611.1309814453125,53.85096740722656 L610.8333740234375,55.755489349365234 L610.5810546875,57.772186279296875 L610.4356079101562,59.785736083984375 L610.4465942382812,61.66034698486328 L610.603515625,63.26066207885742 L610.8107299804688,64.38312530517578 L610.9830322265625,64.99406433105469 M614.6259765625,63.26593780517578 L614.9769287109375,63.08644104003906 L615.6652221679688,62.69908905029297 L616.6878662109375,62.06654739379883 L617.9105834960938,61.21607208251953 L619.1990966796875,60.202938079833984 L620.3946533203125,59.11484146118164 L621.359130859375,58.047733306884766 L621.980712890625,57.098819732666016 L622.1738891601562,56.350162506103516 L621.9048461914062,55.87607192993164 L621.1964111328125,55.74030303955078 L620.1256103515625,56.00850296020508 L618.83984375,56.70700454711914 L617.5396728515625,57.803279876708984 L616.459716796875,59.19505310058594 L615.8289184570312,60.737091064453125 L615.833984375,62.256107330322266 L616.5588989257812,63.60242462158203 L617.9732666015625,64.65141296386719 L620.025634765625,65.30419921875 L622.513916015625,65.5412826538086 L625.15283203125,65.41858673095703 L627.3048095703125,65.1457748413086 L628.6464233398438,64.89872741699219 M645.1085205078125,49.35045623779297 L644.8162841796875,49.22745895385742 L644.2596435546875,49.139183044433594 L643.423828125,49.218143463134766 L642.3907470703125,49.6249885559082 L641.2181396484375,50.41352462768555 L639.993408203125,51.58896255493164 L638.82373046875,53.09434127807617 L637.8426513671875,54.848976135253906 L637.1837768554688,56.74177551269531 L636.9725952148438,58.652305603027344 L637.2854614257812,60.425106048583984 L638.152099609375,61.91350173950195 L639.5484619140625,62.98823547363281 L641.3802490234375,63.56525802612305 L643.5146484375,63.608097076416016 L645.782958984375,63.12498474121094 L648.004150390625,62.13350296020508 L650.0026245117188,60.6805419921875 L651.6239013671875,58.83720397949219 L652.75244140625,56.69961166381836 L653.327880859375,54.38543701171875 L653.3265380859375,52.037559509277344 L652.759521484375,49.803619384765625 L651.664794921875,47.84272003173828 L650.1002807617188,46.31325912475586 L648.1734008789062,45.345420837402344 L646.032470703125,45.0 L643.8721923828125,45.34497833251953 L641.9248657226562,46.317771911621094 L640.3994140625,47.74601745605469 L639.4371337890625,49.10169982910156 L638.9891357421875,50.04371643066406 M654.551513671875,70.1951904296875 L654.5664672851562,70.19393920898438 L654.6007080078125,70.17851257324219 L654.6502685546875,70.15726470947266 L654.6983032226562,70.13713073730469 L654.7352294921875,70.14620971679688 L654.7537841796875,70.17657470703125 L654.7572021484375,70.21370697021484 L654.756103515625,70.23896789550781 M659.4764404296875,54.28752899169922 L659.49853515625,54.35053634643555 L659.5284423828125,54.54301834106445 L659.548828125,54.918212890625 L659.5360717773438,55.48956298828125 L659.4622802734375,56.21057891845703 L659.3131103515625,57.04176330566406 L659.087890625,57.92149353027344 L658.8189697265625,58.79934310913086 L658.5777587890625,59.60987854003906 L658.425048828125,60.2800178527832 L658.3822021484375,60.73211669921875 L658.4376220703125,60.923377990722656 L658.5665893554688,60.81333923339844 L658.7606201171875,60.39340591430664 L659.075439453125,59.679100036621094 L659.54638671875,58.721248626708984 L660.1846313476562,57.61905288696289 L660.94677734375,56.4943733215332 L661.76416015625,55.45906448364258 L662.537353515625,54.596214294433594 L663.2076416015625,53.956260681152344 L663.723876953125,53.568599700927734 L664.0770263671875,53.47102355957031 L664.2862548828125,53.70969772338867 L664.3677978515625,54.30654525756836 L664.3397216796875,55.23728942871094 L664.2508544921875,56.411285400390625 L664.1494140625,57.68144989013672 L664.099853515625,58.89084243774414 L664.1414184570312,59.93114471435547 L664.270751953125,60.70412826538086 L664.4957885742188,61.14834976196289 L664.8421020507812,61.19987487792969 L665.3375244140625,60.8095703125 L666.0132446289062,59.98417663574219 L666.931884765625,58.697200775146484 L667.8087768554688,57.4132080078125 L668.4529418945312,56.4614372253418 " fill="none" stroke="black" stroke-linecap="round" stroke-width="1" /></svg>