<?xml version="1.0" encoding="utf-8" ?>
<svg baseProfile="full" height="100%" version="1.1" viewBox="0,0,1000,120" width="100%" xmlns="http://www.w3.org/2000/svg" xmlns:ev="http://www.w3.org/2001/xml-events" xmlns:xlink="http://www.w3.org/1999/xlink"><defs /><rect fill="white" height="120" width="1000" x="0" y="0" /><path d="M0,0 M338.3813171386719,48.507713317871094 L338.400146484375,48.73807907104492 L338.427734375,49.302669525146484 L338.4325866699219,50.306156158447266 L338.3746032714844,51.74003219604492 L338.2413330078125,53.542213439941406 L338.0571594238281,55.623687744140625 L337.83026123046875,57.87472915649414 L337.60552978515625,60.1917839050293 L337.4071350097656,62.46115493774414 L337.2374267578125,64.54264831542969 L337.114013671875,66.34199523925781 L337.0284729003906,67.73963165283203 L336.9424743652344,68.63988494873047 L336.83563232421875,69.00835418701172 L336.734619140625,69.0168228149414 L336.654052734375,68.86276245117188 M329.4068298339844,48.825233459472656 L329.6856384277344,48.796077728271484 L330.40008544921875,48.758331298828125 L331.679443359375,48.7267951965332 L333.48870849609375,48.705623626708984 L335.6790466308594,48.685028076171875 L338.0725402832031,48.63804244995117 L340.495361328125,48.55337905883789 L342.8516540527344,48.423431396484375 L345.03192138671875,48.260833740234375 L346.92486572265625,48.074737548828125 L348.2774963378906,47.91645050048828 L349.0416259765625,47.81108093261719 M350.0269775390625,47.40255355834961 L350.093994140625,47.7195930480957 L350.1951904296875,48.41020584106445 L350.29254150390625,49.540252685546875 L350.31927490234375,51.05322265625 L350.232421875,52.86432647705078 L350.039794921875,54.863616943359375 L349.77581787109375,56.94294738769531 L349.5163879394531,58.98653030395508 L349.336181640625,60.866764068603516 L349.2689514160156,62.44963836669922 L349.2843933105469,63.64970397949219 L349.348388671875,64.44190979003906 L349.4030456542969,64.83304595947266 L349.4429931640625,64.8320541381836 L349.5292053222656,64.42393493652344 L349.73211669921875,63.576385498046875 L350.0965270996094,62.336204528808594 L350.656005859375,60.843441009521484 L351.4109802246094,59.2746467590332 L352.3683166503906,57.79850769042969 L353.5342712402344,56.53571319580078 L354.86077880859375,55.541160583496094 L356.2785339355469,54.861087799072266 L357.7020263671875,54.53452682495117 L359.05474853515625,54.578521728515625 L360.27984619140625,54.99623489379883 L361.32452392578125,55.769718170166016 L362.1373291015625,56.860145568847656 L362.6983337402344,58.21549606323242 L363.023681640625,59.7603759765625 L363.1634216308594,61.38962936401367 L363.1832580566406,62.98247528076172 L363.150146484375,64.39292907714844 L363.1227722167969,65.50704193115234 L363.1202392578125,66.2685546875 L363.17437744140625,66.6109390258789 L363.2992858886719,66.53286743164062 L363.5104675292969,66.0893783569336 L363.7332763671875,65.54122161865234 L363.9107360839844,65.1005859375 M368.59259033203125,57.82020568847656 L368.68707275390625,57.958251953125 L368.8303527832031,58.33536911010742 L368.97052001953125,59.04115676879883 L369.0343322753906,60.0726432800293 L369.0023498535156,61.349510192871094 L368.8917236328125,62.731788635253906 L368.76568603515625,64.08844757080078 L368.6838073730469,65.24020385742188 L368.6675720214844,66.0428466796875 L368.7144775390625,66.41242980957031 L368.7837829589844,66.46260070800781 L368.83837890625,66.35562133789062 M369.98565673828125,49.05347442626953 L369.97418212890625,48.98987579345703 L369.981201171875,48.91697692871094 L370.0039978027344,48.85674285888672 L370.0648498535156,48.8528938293457 L370.1712646484375,48.91464614868164 L370.3495788574219,49.047569274902344 L370.5398254394531,49.1933708190918 L370.69757080078125,49.31182861328125 M382.051025390625,55.02857971191406 L381.795654296875,55.028587341308594 L381.2169189453125,55.08258819580078 L380.258056640625,55.246212005615234 L378.999267578125,55.57294464111328 L377.5865783691406,56.06861877441406 L376.22705078125,56.68899154663086 L375.1409606933594,57.37451171875 L374.4875183105469,58.08440399169922 L374.39239501953125,58.7957763671875 L374.9058532714844,59.50277328491211 L376.005615234375,60.19222640991211 L377.59356689453125,60.85246276855469 L379.4868469238281,61.484130859375 L381.4586486816406,62.11417007446289 L383.27264404296875,62.755767822265625 L384.69970703125,63.39458084106445 L385.6241760253906,64.00466918945312 L386.0104064941406,64.56250762939453 L385.85772705078125,65.05325317382812 L385.1972961425781,65.47989654541016 L384.05975341796875,65.82325744628906 L382.47869873046875,66.05912017822266 L380.55804443359375,66.17460632324219 L378.42913818359375,66.17398834228516 L376.253173828125,66.08724212646484 L374.1717224121094,65.9522476196289 L372.3126525878906,65.7923812866211 L370.76971435546875,65.61792755126953 L369.59613037109375,65.43297576904297 L368.79876708984375,65.24723052978516 L368.3563232421875,65.09988403320312 L368.1706237792969,65.00955200195312 M408.08282470703125,54.85744857788086 L408.1850891113281,55.060829162597656 L408.370849609375,55.520835876464844 L408.62255859375,56.29258728027344 L408.8841857910156,57.347530364990234 L409.0910339355469,58.625545501708984 L409.2009582519531,60.03937530517578 L409.20831298828125,61.49525451660156 L409.13037109375,62.875770568847656 L409.0222473144531,64.0550537109375 L408.9449157714844,64.93120574951172 L408.91156005859375,65.4550552368164 L408.9126281738281,65.68399047851562 M409.36065673828125,47.50627899169922 L409.3618469238281,47.50099182128906 L409.3885498046875,47.5516471862793 L409.4287414550781,47.634925842285156 L409.4703674316406,47.72752380371094 M423.5379333496094,54.56830978393555 L423.17767333984375,54.50712203979492 L422.4562072753906,54.497459411621094 L421.3372497558594,54.62031173706055 L419.930908203125,54.9422492980957 L418.3883972167969,55.44643020629883 L416.9201354980469,56.07823181152344 L415.72833251953125,56.76093292236328 L415.0075988769531,57.45856475830078 L414.8778991699219,58.134552001953125 L415.3955078125,58.77391052246094 L416.5462341308594,59.3800163269043 L418.226806640625,59.95790100097656 L420.2720031738281,60.52708053588867 L422.4862976074219,61.12473678588867 L424.6611633300781,61.773292541503906 L426.60076904296875,62.474525451660156 L428.1573486328125,63.217105865478516 L429.231201171875,63.951229095458984 L429.8023681640625,64.63774108886719 L429.89471435546875,65.25406646728516 L429.55267333984375,65.80056762695312 L428.7899475097656,66.2625503540039 L427.6221923828125,66.62351989746094 L426.08013916015625,66.84127044677734 L424.24835205078125,66.8895034790039 L422.2367858886719,66.76141357421875 L420.20330810546875,66.50584411621094 L418.2945251464844,66.17528533935547 L416.6594543457031,65.83761596679688 L415.42327880859375,65.55081176757812 L414.62030029296875,65.34120178222656 L414.23321533203125,65.20417785644531 L414.20318603515625,65.13900756835938 L414.4407043457031,65.11824035644531 L414.753662109375,65.1191635131836 L415.0175476074219,65.13056182861328 M456.4947814941406,57.915863037109375 L456.25811767578125,57.64503860473633 L455.8466796875,57.24347686767578 L455.23394775390625,56.815757751464844 L454.4256896972656,56.53971862792969 L453.373046875,56.520729064941406 L452.09271240234375,56.83521270751953 L450.6468505859375,57.50886917114258 L449.16876220703125,58.5374870300293 L447.7867431640625,59.85881042480469 L446.63153076171875,61.369384765625 L445.8092956542969,62.93907928466797 L445.4060363769531,64.43235778808594 L445.4735107421875,65.7205581665039 L445.9941711425781,66.68608093261719 L446.9019775390625,67.23479461669922 L448.125732421875,67.30725860595703 L449.55767822265625,66.88124084472656 L451.0864562988281,65.99113464355469 L452.61614990234375,64.72399139404297 L454.04827880859375,63.197021484375 L455.293212890625,61.56039047241211 L456.321044921875,59.97238540649414 L457.10418701171875,58.59272766113281 L457.63970947265625,57.517478942871094 L457.95135498046875,56.789485931396484 L458.10089111328125,56.436866760253906 L458.1162414550781,56.49246597290039 L458.06243896484375,57.01145935058594 L457.9913330078125,58.0569953918457 L457.9442443847656,59.55396270751953 L457.9708251953125,61.31958770751953 L458.17877197265625,63.163448333740234 L458.59222412109375,64.87300872802734 L459.215576171875,66.31209564208984 L459.832763671875,67.32070922851562 L460.27581787109375,67.87506103515625 M488.96405029296875,60.155941009521484 L488.7746276855469,59.8452033996582 L488.4483642578125,59.3709716796875 L487.94805908203125,58.83147430419922 L487.2667541503906,58.410308837890625 L486.3393859863281,58.2076416015625 L485.14703369140625,58.29543685913086 L483.72979736328125,58.72615432739258 L482.2099609375,59.551204681396484 L480.7195739746094,60.769405364990234 L479.4130859375,62.32668685913086 L478.4295654296875,64.08440399169922 L477.862548828125,65.83419036865234 L477.751953125,67.3714370727539 L478.10772705078125,68.52783203125 L478.90093994140625,69.19369506835938 L480.0566101074219,69.31499481201172 L481.4932861328125,68.85587310791016 L483.095703125,67.80937957763672 L484.7415771484375,66.22557830810547 L486.32666015625,64.20295715332031 L487.77508544921875,61.89175033569336 L489.0098876953125,59.447540283203125 L489.99737548828125,57.00125503540039 L490.7479248046875,54.66688919067383 L491.30352783203125,52.57841110229492 L491.7064208984375,50.85703659057617 L492.0003662109375,49.58979797363281 L492.19329833984375,48.82119369506836 L492.28985595703125,48.558475494384766 L492.3012390136719,48.796348571777344 L492.2489013671875,49.57945251464844 L492.15032958984375,50.922462463378906 L492.02716064453125,52.751853942871094 L491.89593505859375,54.93026351928711 L491.7936096191406,57.2724609375 L491.74298095703125,59.58402633666992 L491.79248046875,61.72003173828125 L491.98052978515625,63.558311462402344 L492.3266906738281,64.99789428710938 L492.8302001953125,65.96305847167969 L493.4849548339844,66.41024017333984 L494.26812744140625,66.3368911743164 L495.1883544921875,65.7759780883789 L496.2311096191406,64.81102752685547 L497.3489990234375,63.56804656982422 L498.46630859375,62.174983978271484 L499.4851379394531,60.75505828857422 L500.31927490234375,59.419227600097656 L500.91510009765625,58.23638916015625 L501.24139404296875,57.26924133300781 L501.2660827636719,56.56026840209961 L500.98126220703125,56.13870620727539 L500.3883056640625,56.049598693847656 L499.5260925292969,56.34764099121094 L498.48223876953125,57.05185317993164 L497.411376953125,58.143306732177734 L496.4778137207031,59.521724700927734 L495.854736328125,61.03127670288086 L495.6585388183594,62.52127456665039 L495.9330139160156,63.86306381225586 L496.6717834472656,64.95598602294922 L497.82708740234375,65.7381362915039 L499.3083190917969,66.17042541503906 L501.06524658203125,66.18643951416016 L502.97613525390625,65.79437255859375 L504.8753967285156,65.06148529052734 L506.37310791015625,64.3033676147461 L507.2858581542969,63.747657775878906 M509.26336669921875,57.302947998046875 L509.0956115722656,57.28101348876953 L508.86505126953125,57.39082336425781 L508.6376953125,57.77130126953125 L508.4906311035156,58.52323913574219 L508.42578125,59.61262893676758 L508.421875,60.925514221191406 L508.45111083984375,62.291316986083984 L508.48516845703125,63.545204162597656 L508.5199890136719,64.57608795166016 L508.54486083984375,65.3063735961914 L508.56610107421875,65.65894317626953 L508.6094970703125,65.5827865600586 L508.73748779296875,65.03800964355469 L508.97369384765625,64.02790069580078 L509.37066650390625,62.66131591796875 L509.9583740234375,61.099735260009766 L510.7555847167969,59.5145149230957 L511.76641845703125,58.07768249511719 L512.9940185546875,56.92010498046875 L514.349365234375,56.13055419921875 L515.744873046875,55.76688003540039 L517.062255859375,55.83474349975586 L518.213623046875,56.30412292480469 L519.1357421875,57.12397384643555 L519.8060302734375,58.215267181396484 L520.1923828125,59.48036575317383 L520.3267211914062,60.78627395629883 L520.2631225585938,61.99042892456055 L520.1066284179688,62.98189163208008 L519.9430541992188,63.676971435546875 L519.8533935546875,64.00523376464844 L519.8735961914062,63.93152618408203 L520.0411376953125,63.428924560546875 L520.3948974609375,62.5220947265625 L520.9822998046875,61.323333740234375 L521.8057861328125,59.9887809753418 L522.872314453125,58.66878890991211 L524.1480712890625,57.500953674316406 L525.5862426757812,56.57354736328125 L527.1192626953125,55.94282913208008 L528.6782836914062,55.65298080444336 L530.16162109375,55.733951568603516 L531.49658203125,56.18529510498047 L532.605712890625,56.982112884521484 L533.4407958984375,58.07317352294922 L533.9689331054688,59.365169525146484 L534.21484375,60.73952865600586 L534.2523193359375,62.071022033691406 L534.201171875,63.22541046142578 L534.1705322265625,64.10608673095703 L534.189453125,64.6546401977539 L534.2354736328125,64.90998077392578 M544.5577392578125,57.18852996826172 L544.4345703125,56.982635498046875 L544.1390991210938,56.71076965332031 L543.6016845703125,56.50408935546875 L542.7947387695312,56.543357849121094 L541.7610473632812,56.922367095947266 L540.610107421875,57.675384521484375 L539.481689453125,58.74238967895508 L538.560546875,60.015689849853516 L537.9749145507812,61.36175537109375 L537.8107299804688,62.64336395263672 L538.1357421875,63.747623443603516 L538.9593505859375,64.5904541015625 L540.22900390625,65.09837341308594 L541.8560180664062,65.22163391113281 L543.6590576171875,64.9329605102539 L545.453369140625,64.24343872070312 L547.0740356445312,63.21453094482422 L548.3814697265625,61.94312286376953 L549.2777709960938,60.543426513671875 L549.67431640625,59.15132522583008 L549.4929809570312,57.876373291015625 L548.72265625,56.80363082885742 L547.4474487304688,55.99842834472656 L545.8471069335938,55.5142822265625 L544.2197875976562,55.361534118652344 L542.8070068359375,55.51752471923828 L541.8432006835938,55.79808807373047 L541.34814453125,56.048221588134766 M573.3681640625,58.09907531738281 L573.204833984375,57.83901596069336 L572.84521484375,57.48319625854492 L572.2255859375,57.15193557739258 L571.3282470703125,57.02580642700195 L570.1708984375,57.178680419921875 L568.8294677734375,57.652374267578125 L567.4247436523438,58.434364318847656 L566.1135864257812,59.48431396484375 L565.0609741210938,60.72298812866211 L564.3970336914062,62.046226501464844 L564.23779296875,63.342735290527344 L564.6338500976562,64.50918579101562 L565.5777587890625,65.43771362304688 L567.0177001953125,66.0301284790039 L568.8463134765625,66.2125015258789 L570.9076538085938,65.94567108154297 L573.0346069335938,65.24967956542969 L575.034912109375,64.19241333007812 L576.7418212890625,62.88178634643555 L578.0184936523438,61.45283508300781 L578.759521484375,60.05175018310547 L578.943115234375,58.80025100708008 L578.6159057617188,57.77942657470703 L577.8548583984375,57.03673553466797 L576.8297119140625,56.58491897583008 L575.71240234375,56.40150833129883 L574.7979736328125,56.39132308959961 L574.236083984375,56.45302200317383 M590.812255859375,47.94036865234375 L590.8717041015625,47.38098907470703 L590.8860473632812,46.57872772216797 L590.7557373046875,45.742305755615234 L590.37841796875,45.185482025146484 L589.7340087890625,45.0 L588.8507080078125,45.24323272705078 L587.8092651367188,45.915645599365234 L586.7132568359375,47.017822265625 L585.6712036132812,48.53003692626953 L584.75390625,50.4011344909668 L584.024658203125,52.5477180480957 L583.482666015625,54.881568908691406 L583.1162109375,57.300537109375 L582.9166259765625,59.689552307128906 L582.869384765625,61.94507598876953 L582.9244384765625,63.94321060180664 L583.0482177734375,65.5500259399414 L583.1761474609375,66.68627166748047 L583.2652587890625,67.33538055419922 L583.311279296875,67.60176086425781 M579.36767578125,58.431488037109375 L579.4450073242188,58.43099594116211 L579.7581176757812,58.451416015625 L580.45068359375,58.509483337402344 L581.6322021484375,58.627864837646484 L583.220458984375,58.808380126953125 L584.999755859375,59.02149963378906 L586.48486328125,59.20597457885742 L587.4150390625,59.3250732421875 M609.7726440429688,57.857662200927734 L609.533447265625,57.592838287353516 L609.0187377929688,57.19805908203125 L608.193359375,56.772125244140625 L607.0853271484375,56.46044921875 L605.7664184570312,56.316566467285156 L604.387939453125,56.36243438720703 L603.1204833984375,56.578800201416016 L602.1241455078125,56.9556884765625 L601.5631103515625,57.487220764160156 L601.489501953125,58.14793395996094 L601.9386596679688,58.92783737182617 L602.900146484375,59.802650451660156 L604.2899169921875,60.73960876464844 L605.99365234375,61.7151985168457 L607.8385009765625,62.69819259643555 L609.58154296875,63.63364791870117 L611.0081787109375,64.48237609863281 L611.94580078125,65.21112823486328 L612.2821044921875,65.80138397216797 L612.0281982421875,66.26769256591797 L611.2142333984375,66.61852264404297 L609.9178466796875,66.83877563476562 L608.2420654296875,66.90914154052734 L606.3287353515625,66.81521606445312 L604.35302734375,66.56391143798828 L602.514892578125,66.20748901367188 L600.9398803710938,65.79834747314453 L599.7867431640625,65.33574676513672 L599.1351318359375,64.81027221679688 L598.9990844726562,64.210693359375 L599.169189453125,63.67669677734375 L599.4271240234375,63.31138610839844 M619.034912109375,47.98906326293945 L619.0533447265625,48.196128845214844 L619.0626831054688,48.73191452026367 L619.019775390625,49.69981384277344 L618.8807983398438,51.0894775390625 L618.61865234375,52.81397247314453 L618.258056640625,54.76490783691406 L617.8575439453125,56.834144592285156 L617.50439453125,58.91572952270508 L617.2584228515625,60.8847770690918 L617.1522216796875,62.618507385253906 L617.1591796875,64.03306579589844 L617.244140625,65.05958557128906 L617.351318359375,65.67735290527344 L617.4518432617188,65.91099548339844 L617.5205688476562,65.89812469482422 L617.558349609375,65.78974914550781 M612.9649658203125,58.436073303222656 L613.2349243164062,58.49571990966797 L613.8782958984375,58.60746383666992 L614.9932861328125,58.75621032714844 L616.5713500976562,58.895538330078125 L618.489501953125,58.955379486083984 L620.57958984375,58.87892532348633 L622.6776123046875,58.63334655761719 L624.6619262695312,58.23717498779297 L626.4346313476562,57.73771667480469 L627.94140625,57.21064376831055 L629.09716796875,56.71433639526367 L629.8604125976562,56.294036865234375 L630.232666015625,56.00389862060547 L630.2494506835938,55.92276382446289 L629.96875,56.12332534790039 L629.4769287109375,56.67098617553711 L628.8798828125,57.55997848510742 L628.31005859375,58.68896484375 L627.9246826171875,59.906620025634766 L627.8321533203125,61.055274963378906 L628.09033203125,62.005615234375 L628.6951904296875,62.678314208984375 L629.610107421875,63.03147506713867 L630.782470703125,63.04745101928711 L632.1576538085938,62.72284698486328 L633.6648559570312,62.085655212402344 L635.2056274414062,61.19979476928711 L636.6588134765625,60.14371109008789 L637.91845703125,59.0186653137207 L638.9217529296875,57.948692321777344 L639.646484375,57.03351593017578 L640.128173828125,56.340301513671875 L640.3935546875,55.913570404052734 L640.46435546875,55.78144454956055 L640.3663330078125,55.97711181640625 L640.1320190429688,56.56078338623047 L639.78759765625,57.56464385986328 L639.3834228515625,58.96468734741211 L638.9471435546875,60.69718551635742 L638.4912109375,62.68300247192383 L638.0203247070312,64.83435821533203 L637.511962890625,67.06278228759766 L636.921875,69.2776107788086 L636.2138671875,71.38377380371094 L635.3284912109375,73.27793884277344 L634.2141723632812,74.87129974365234 L632.8499755859375,76.08414459228516 L631.25634765625,76.84416961669922 L629.5133666992188,77.12655639648438 L627.750244140625,76.95121002197266 L626.0882568359375,76.38194274902344 L624.6768798828125,75.43006134033203 L623.6323852539062,74.16033935546875 L623.0244140625,72.6772689819336 L622.7802734375,71.38508605957031 L622.75927734375,70.52506256103516 M646.5439453125,46.78360366821289 L646.538330078125,47.01773452758789 L646.5087280273438,47.55364990234375 L646.449951171875,48.46533966064453 L646.359130859375,49.73218536376953 L646.248291015625,51.30356979370117 L646.1116943359375,53.089115142822266 L645.93505859375,54.99384689331055 L645.7521362304688,56.92245864868164 L645.6187133789062,58.7763671875 L645.60400390625,60.457584381103516 L645.766845703125,61.89116668701172 L646.12646484375,63.02082824707031 L646.6655883789062,63.7873649597168 L647.42724609375,64.1596450805664 L648.431640625,64.11737060546875 L649.6995849609375,63.66291809082031 L651.2013549804688,62.84641647338867 L652.8367309570312,61.76261901855469 L654.4559936523438,60.5001220703125 L655.9249267578125,59.153804779052734 L657.1106567382812,57.80908966064453 L657.944580078125,56.54716491699219 L658.3828125,55.441375732421875 L658.4005126953125,54.57600784301758 L657.9930419921875,54.003944396972656 L657.1815185546875,53.773048400878906 L656.010986328125,53.92975616455078 L654.6024780273438,54.50392150878906 L653.1284790039062,55.460758209228516 L651.8201293945312,56.734188079833984 L650.8936157226562,58.18830871582031 L650.68505859375,59.697479248046875 L651.3447875976562,61.12916946411133 L652.84912109375,62.370880126953125 L654.5066528320312,63.24637985229492 L655.77783203125,63.73142623901367 M677.85205078125,45.79977035522461 L678.0256958007812,45.756656646728516 L678.5715942382812,45.71595001220703 L679.6408081054688,45.70948791503906 L681.2874755859375,45.750911712646484 L683.42626953125,45.83479309082031 L685.896728515625,45.944671630859375 L688.5136108398438,46.06544876098633 L691.092529296875,46.20973205566406 L693.4278564453125,46.38957214355469 L695.370849609375,46.590633392333984 L696.8175048828125,46.812652587890625 L697.7396240234375,47.04783630371094 L698.1878051757812,47.31678771972656 L698.2537841796875,47.66984558105469 L698.0234375,48.161399841308594 L697.5771484375,48.83388900756836 L696.9698486328125,49.70436477661133 L696.24365234375,50.76548385620117 L695.439697265625,51.999656677246094 L694.5938110351562,53.401153564453125 L693.7123413085938,54.946800231933594 L692.781005859375,56.61117935180664 L691.8003540039062,58.340572357177734 L690.7833251953125,60.07688903808594 L689.78076171875,61.73541259765625 L688.862548828125,63.23581314086914 L688.0897216796875,64.5009994506836 L687.4969482421875,65.44143676757812 L687.1065063476562,65.99759674072266 L686.9002075195312,66.17938232421875 L686.8267822265625,66.12760925292969 L686.8243408203125,65.99515533447266 M684.5287475585938,57.28123092651367 L685.017822265625,57.326194763183594 L686.01171875,57.3780403137207 L687.52001953125,57.41238021850586 L689.4156494140625,57.39573669433594 L691.50732421875,57.333953857421875 L693.5858154296875,57.248390197753906 L695.21484375,57.173316955566406 L696.208984375,57.126670837402344 M703.2965087890625,65.72309875488281 L703.323974609375,65.76726531982422 L703.3609008789062,65.82878112792969 L703.385009765625,65.88777160644531 L703.377685546875,65.91101837158203 L703.351806640625,65.89688110351562 L703.3162841796875,65.8572998046875 L703.2838134765625,65.8048324584961 L703.2708740234375,65.756103515625 L703.2730712890625,65.72039031982422 L703.2819213867188,65.69536590576172 L703.29150390625,65.6849365234375 L703.286376953125,65.68939208984375 L703.2540283203125,65.69332885742188 L703.2120361328125,65.69430541992188 L703.1771240234375,65.69140625 " fill="none" stroke="black" stroke-linecap="round" stroke-width="1" /></svg>