<?xml version="1.0" encoding="utf-8" ?>
<svg baseProfile="full" height="100%" version="1.1" viewBox="0,0,1000,120" width="100%" xmlns="http://www.w3.org/2000/svg" xmlns:ev="http://www.w3.org/2001/xml-events" xmlns:xlink="http://www.w3.org/1999/xlink"><defs /><rect fill="white" height="120" width="1000" x="0" y="0" /><path d="M0,0 M379.2739562988281,52.29310607910156 L379.2607116699219,52.65567398071289 L379.2438659667969,53.457698822021484 L379.2247009277344,54.78355407714844 L379.1956481933594,56.57911682128906 L379.13470458984375,58.74834060668945 L379.0282897949219,61.128990173339844 L378.8954162597656,63.53599548339844 L378.7767333984375,65.73572540283203 L378.7233581542969,67.48579406738281 L378.7552185058594,68.62626647949219 L378.83087158203125,69.19026947021484 L378.9013671875,69.34986877441406 M373.2621765136719,49.77310562133789 L373.6381530761719,49.89431381225586 L374.4918212890625,50.08254623413086 L375.90045166015625,50.29904556274414 L377.8694152832031,50.464996337890625 L380.2542724609375,50.55149841308594 L382.83062744140625,50.54958724975586 L384.96209716796875,50.50502395629883 L386.32171630859375,50.45584487915039 M390.6412353515625,49.61750030517578 L390.5045166015625,50.228363037109375 L390.2842712402344,51.368892669677734 L390.0108337402344,53.036651611328125 L389.7278137207031,55.06322479248047 L389.4432678222656,57.35187911987305 L389.1751708984375,59.73809051513672 L388.9445495605469,62.01446533203125 L388.78021240234375,63.947792053222656 L388.7204895019531,65.34228515625 L388.75823974609375,66.07637023925781 L388.89959716796875,66.13043212890625 L389.1809387207031,65.53474426269531 L389.6441955566406,64.364013671875 L390.3155212402344,62.800048828125 L391.19097900390625,61.08046340942383 L392.20574951171875,59.4519157409668 L393.28271484375,58.12455749511719 L394.3724365234375,57.22942352294922 L395.4134521484375,56.82255935668945 L396.3670654296875,56.953125 L397.1576843261719,57.6179084777832 L397.7248229980469,58.783241271972656 L398.02227783203125,60.352088928222656 L398.09075927734375,62.17425537109375 L398.0008544921875,64.0169677734375 L397.8846435546875,65.65548706054688 L397.803466796875,66.80925750732422 L397.7799987792969,67.42805480957031 M403.83148193359375,57.666473388671875 L403.814208984375,58.08158874511719 L403.7615966796875,58.96089172363281 L403.6594543457031,60.33881378173828 L403.52191162109375,62.051429748535156 L403.402587890625,63.889644622802734 L403.3434143066406,65.60664367675781 L403.3655700683594,66.98230743408203 L403.4786376953125,67.68080139160156 L403.6695251464844,67.4915542602539 L403.9298400878906,66.37711334228516 L404.18365478515625,64.97245788574219 L404.3700256347656,63.831512451171875 M406.460205078125,51.63860321044922 L406.4491882324219,51.63136291503906 L406.4426574707031,51.637046813964844 L406.44268798828125,51.65392303466797 M415.9330749511719,56.81779098510742 L415.6222839355469,56.71669006347656 L414.9669189453125,56.60758972167969 L413.94891357421875,56.57994842529297 L412.6947021484375,56.728797912597656 L411.3970947265625,57.07736587524414 L410.2848205566406,57.6070442199707 L409.56585693359375,58.27356719970703 L409.38623046875,59.02036666870117 L409.8291320800781,59.80610656738281 L410.8699951171875,60.58657455444336 L412.3774108886719,61.33161163330078 L414.12054443359375,62.04621124267578 L415.8247375488281,62.74541473388672 L417.23046875,63.43445587158203 L418.1611022949219,64.11515808105469 L418.515869140625,64.77532196044922 L418.2473449707031,65.38780975341797 L417.38299560546875,65.93406677246094 L416.01678466796875,66.37699890136719 L414.3244323730469,66.67179107666016 L412.5703125,66.80838012695312 L411.0185241699219,66.81665802001953 L409.93194580078125,66.7615966796875 L409.3605041503906,66.70691680908203 M429.74609375,57.18980026245117 L429.72845458984375,57.592281341552734 L429.7034912109375,58.420372009277344 L429.6682434082031,59.6958122253418 L429.6223449707031,61.290306091308594 L429.54736328125,63.000614166259766 L429.45257568359375,64.59709167480469 L429.36444091796875,65.77474975585938 L429.3047180175781,66.43917083740234 M429.854736328125,51.057212829589844 L429.9056396484375,51.063968658447266 L430.0532531738281,51.14933776855469 L430.2389221191406,51.27641296386719 L430.40399169921875,51.408302307128906 M442.91485595703125,56.74275207519531 L442.567626953125,56.53142547607422 L441.86883544921875,56.27663040161133 L440.80743408203125,56.11519241333008 L439.5120849609375,56.20442199707031 L438.1638488769531,56.58464431762695 L436.96923828125,57.220157623291016 L436.12493896484375,58.037967681884766 L435.7621154785156,58.9769287109375 L435.9432678222656,59.98854446411133 L436.6412048339844,61.030189514160156 L437.7611999511719,62.072608947753906 L439.1346435546875,63.08119201660156 L440.5572509765625,64.01168060302734 L441.812255859375,64.83799743652344 L442.73040771484375,65.52273559570312 L443.1932678222656,66.05406188964844 L443.12261962890625,66.44613647460938 L442.4935607910156,66.72360229492188 L441.3349609375,66.89979553222656 L439.75616455078125,66.98162841796875 L437.9805603027344,66.95349884033203 L436.2779235839844,66.82990264892578 L435.0074157714844,66.68252563476562 L434.29119873046875,66.56794738769531 M463.0851135253906,60.02927780151367 M462.8529357910156,58.5247688293457 L462.68878173828125,58.26737976074219 L462.3690185546875,57.87751770019531 L461.8590393066406,57.45625686645508 L461.15594482421875,57.1900634765625 L460.2409362792969,57.209327697753906 L459.1480712890625,57.615013122558594 L457.96270751953125,58.44086456298828 L456.8531494140625,59.65193557739258 L455.9866638183594,61.13063430786133 L455.5099182128906,62.70024490356445 L455.5078430175781,64.16921997070312 L455.9729309082031,65.33055877685547 L456.85797119140625,66.03636932373047 L458.0843811035156,66.18464660644531 L459.52685546875,65.76617431640625 L461.0660705566406,64.83975982666016 L462.5711975097656,63.53782653808594 L463.89642333984375,62.00827407836914 L464.94415283203125,60.45208740234375 L465.66961669921875,59.043678283691406 L466.0814514160156,57.933006286621094 L466.2464294433594,57.19854736328125 L466.2525634765625,56.89714050292969 L466.1712951660156,57.0546875 L466.0578918457031,57.72602462768555 L465.9488525390625,58.90755081176758 L465.9068908691406,60.543426513671875 L465.979248046875,62.436195373535156 L466.2076110839844,64.34224700927734 L466.4848327636719,65.81953430175781 L466.7162780761719,66.6988296508789 M488.0157775878906,59.47506332397461 L487.79595947265625,59.21208190917969 L487.3608093261719,58.81523513793945 L486.6582946777344,58.38629150390625 L485.69769287109375,58.1109619140625 L484.4874267578125,58.10808563232422 L483.06494140625,58.45579147338867 L481.54559326171875,59.19813919067383 L480.10479736328125,60.3283805847168 L478.90911865234375,61.7559700012207 L478.12359619140625,63.33570098876953 L477.85467529296875,64.86550903320312 L478.11224365234375,66.123779296875 L478.85748291015625,66.92670440673828 L480.01043701171875,67.15094757080078 L481.44036865234375,66.7323989868164 L483.03607177734375,65.68196105957031 L484.6826171875,64.06288146972656 L486.2664794921875,61.988426208496094 L487.6972961425781,59.61394500732422 L488.9091796875,57.134254455566406 L489.8504638671875,54.77177810668945 L490.5096435546875,52.72930145263672 L490.90301513671875,51.138160705566406 L491.0896911621094,50.043846130371094 L491.13714599609375,49.43999481201172 L491.10711669921875,49.30377197265625 L491.0457763671875,49.672279357910156 L490.9383544921875,50.60654830932617 L490.7691650390625,52.11662673950195 L490.55133056640625,54.12568283081055 L490.309814453125,56.47944259643555 L490.0960693359375,58.95343780517578 L490.00274658203125,61.34327697753906 L490.0699462890625,63.460330963134766 L490.35235595703125,65.15670776367188 L490.89404296875,66.32543182373047 L491.70733642578125,66.90078735351562 L492.768310546875,66.86148071289062 L494.0281982421875,66.25423431396484 L495.3610534667969,65.1590805053711 L496.6400146484375,63.7128791809082 L497.74700927734375,62.0635986328125 L498.60247802734375,60.365657806396484 L499.14996337890625,58.763816833496094 L499.3546142578125,57.39185333251953 L499.19097900390625,56.34634780883789 L498.6806640625,55.71476745605469 L497.8905029296875,55.56273651123047 L496.9468688964844,55.94407653808594 L495.98626708984375,56.86627197265625 L495.1346435546875,58.27094650268555 L494.54412841796875,60.020263671875 L494.3787841796875,61.90872573852539 L494.75885009765625,63.70059585571289 L495.7315368652344,65.17266845703125 L497.2815246582031,66.09037017822266 L499.2066650390625,66.33623504638672 L501.2713623046875,65.9555892944336 L502.95733642578125,65.3271713256836 L504.00445556640625,64.78160095214844 M505.51275634765625,55.94577407836914 L505.5142517089844,56.205020904541016 L505.5257263183594,56.780399322509766 L505.56207275390625,57.7419319152832 L505.6144714355469,59.045101165771484 L505.6707763671875,60.597679138183594 L505.7193603515625,62.23167037963867 L505.75494384765625,63.751766204833984 L505.7866516113281,64.97422790527344 L505.85272216796875,65.76114654541016 L505.9757080078125,66.02692413330078 L506.1800537109375,65.75208282470703 L506.5047607421875,64.9568862915039 L506.9659729003906,63.71950912475586 L507.5549011230469,62.179359436035156 L508.26300048828125,60.508358001708984 L509.0727844238281,58.88639831542969 L509.9385986328125,57.4630012512207 L510.82806396484375,56.35986328125 L511.6834716796875,55.659420013427734 L512.4383544921875,55.422237396240234 L513.0333251953125,55.68159484863281 L513.4337158203125,56.44045639038086 L513.6091918945312,57.64500045776367 L513.5787353515625,59.184425354003906 L513.4051513671875,60.85319137573242 L513.1818237304688,62.426719665527344 L512.99560546875,63.70372772216797 L512.91357421875,64.52271270751953 L512.966796875,64.78739166259766 L513.1900024414062,64.47792053222656 L513.6318359375,63.60614013671875 L514.3126220703125,62.29283142089844 L515.2169799804688,60.73837661743164 L516.2800903320312,59.15991973876953 L517.4061279296875,57.75702667236328 L518.5220947265625,56.69782638549805 L519.5810546875,56.060943603515625 L520.529052734375,55.908348083496094 L521.3154296875,56.269798278808594 L521.8731689453125,57.12666702270508 L522.15185546875,58.406551361083984 L522.1674194335938,59.99709701538086 L522.0029296875,61.7216911315918 L521.82275390625,63.36656951904297 L521.783203125,64.72733306884766 L521.9644775390625,65.66011810302734 L522.24658203125,66.15274047851562 L522.4990234375,66.32298278808594 M531.2658081054688,57.41255187988281 L530.9612426757812,57.0767707824707 L530.3961791992188,56.645816802978516 L529.573974609375,56.29497146606445 L528.5701904296875,56.263370513916016 L527.43359375,56.63479232788086 L526.2566528320312,57.45061111450195 L525.1812744140625,58.674842834472656 L524.3494262695312,60.20922088623047 L523.9126586914062,61.881343841552734 L523.9490966796875,63.46529006958008 L524.4750366210938,64.73816680908203 L525.4609985351562,65.54681396484375 L526.832275390625,65.81253051757812 L528.44921875,65.51832580566406 L530.1590576171875,64.71654510498047 L531.76318359375,63.509159088134766 L533.0630493164062,62.0279541015625 L533.92578125,60.438350677490234 L534.3077392578125,58.90727233886719 L534.20751953125,57.57533645629883 L533.7321166992188,56.552093505859375 L533.0277099609375,55.892669677734375 L532.3687133789062,55.55703353881836 L531.9231567382812,55.44636917114258 M552.7318115234375,58.32917404174805 L552.688232421875,57.83639144897461 L552.557861328125,57.077476501464844 L552.26708984375,56.201290130615234 L551.7532958984375,55.47682571411133 L550.9807739257812,55.037437438964844 L549.9658203125,54.993255615234375 L548.7762451171875,55.40009689331055 L547.53564453125,56.30073547363281 L546.3731689453125,57.64554977416992 L545.4512939453125,59.311859130859375 L544.9269409179688,61.09728240966797 L544.9134521484375,62.77592086791992 L545.4505615234375,64.14143371582031 L546.4869384765625,65.04164123535156 L547.8861083984375,65.39092254638672 L549.4955444335938,65.18842315673828 L551.1362915039062,64.45930480957031 L552.6495361328125,63.294105529785156 L553.899658203125,61.829532623291016 L554.7606201171875,60.220947265625 L555.1948852539062,58.66850662231445 L555.2525634765625,57.34899139404297 L555.1092529296875,56.43913269042969 L554.93798828125,55.95928955078125 M563.1253662109375,58.09918975830078 L563.3846435546875,57.599403381347656 L563.8281860351562,56.66157913208008 L564.3974609375,55.29520797729492 L564.9413452148438,53.66352081298828 L565.3648071289062,51.88152313232422 L565.5960083007812,50.067962646484375 L565.6185302734375,48.34474563598633 L565.4555053710938,46.85038757324219 L565.14794921875,45.71775817871094 L564.7254028320312,45.068565368652344 L564.2030029296875,45.0 L563.5892944335938,45.576263427734375 L562.9039306640625,46.827396392822266 L562.2188720703125,48.7249870300293 L561.6029052734375,51.15338134765625 L561.12158203125,53.93151092529297 L560.8019409179688,56.85776138305664 L560.6510009765625,59.74811553955078 L560.651611328125,62.444725036621094 L560.80419921875,64.81144714355469 L561.0711669921875,66.70599365234375 L561.4102783203125,68.04086303710938 L561.7100830078125,68.80351257324219 L561.9089965820312,69.12162780761719 M558.3797607421875,59.01905059814453 L558.7800903320312,59.088932037353516 L559.571533203125,59.20170211791992 L560.460205078125,59.31752014160156 L561.1519165039062,59.39654541015625 M583.4920654296875,55.46689224243164 L583.1317138671875,55.25237274169922 L582.449951171875,55.00223159790039 L581.4443359375,54.84267044067383 L580.2268676757812,54.916831970214844 L578.907958984375,55.23405456542969 L577.66552734375,55.767311096191406 L576.69775390625,56.45857238769531 L576.1795043945312,57.27279281616211 L576.22998046875,58.17463684082031 L576.860595703125,59.12724304199219 L578.000732421875,60.09043884277344 L579.5199584960938,61.039642333984375 L581.2098388671875,61.946041107177734 L582.8318481445312,62.78069305419922 L584.1748046875,63.52211380004883 L585.069580078125,64.1535415649414 L585.4262084960938,64.65988159179688 L585.2413940429688,65.04249572753906 L584.5078125,65.2928695678711 L583.2489013671875,65.3812484741211 L581.6068115234375,65.31449890136719 L579.8133544921875,65.12525939941406 L578.3409423828125,64.91320037841797 L577.4419555664062,64.75868225097656 M590.1554565429688,50.22319412231445 L590.1531982421875,50.42155838012695 L590.1285400390625,50.89707946777344 L590.070556640625,51.736698150634766 L589.969970703125,52.95895004272461 L589.83642578125,54.52131271362305 L589.68505859375,56.33821487426758 L589.5396118164062,58.28709411621094 L589.4332275390625,60.2403564453125 L589.390869140625,62.04277038574219 L589.4180908203125,63.575374603271484 L589.4803466796875,64.6412124633789 L589.5371704101562,65.21995544433594 M587.4954833984375,57.99535369873047 L587.6424560546875,58.020721435546875 L588.0081176757812,58.11212921142578 L588.6597900390625,58.29627990722656 L589.64501953125,58.567405700683594 L590.9217529296875,58.88021469116211 L592.3683471679688,59.172996520996094 L593.597412109375,59.37868118286133 L594.3946533203125,59.487125396728516 M597.6140747070312,57.021995544433594 L597.7568969726562,57.21810531616211 L597.9959716796875,57.608638763427734 L598.3116455078125,58.21340560913086 L598.6673583984375,58.99195861816406 L599.0746459960938,59.909854888916016 L599.54443359375,60.899253845214844 L600.0613403320312,61.876556396484375 L600.6488647460938,62.72251892089844 L601.3048706054688,63.321895599365234 L602.0250244140625,63.6087532043457 L602.6456909179688,63.66046142578125 L603.0673828125,63.59432601928711 M607.4718017578125,58.605342864990234 L607.3731689453125,58.696372985839844 L607.1243896484375,58.99009704589844 L606.65234375,59.60392379760742 L605.9095458984375,60.599727630615234 L604.897705078125,61.972774505615234 L603.6788330078125,63.67221450805664 L602.3665771484375,65.59339141845703 L601.1199951171875,67.57847595214844 L600.096435546875,69.41857147216797 L599.3845825195312,70.90375518798828 L598.9986572265625,71.86329650878906 L598.8563842773438,72.3255615234375 M613.5910034179688,51.1550407409668 L613.6343994140625,51.225677490234375 L613.6404418945312,51.523033142089844 L613.55224609375,52.18793487548828 L613.3175048828125,53.28426742553711 L612.9545288085938,54.76124954223633 L612.512939453125,56.52274703979492 L612.052001953125,58.44189453125 L611.6429443359375,60.42389678955078 L611.348388671875,62.343421936035156 L611.1932983398438,64.05033874511719 L611.1517333984375,65.28189849853516 L611.170166015625,65.97219848632812 M615.1465454101562,63.213462829589844 L615.6642456054688,62.977935791015625 L616.5521240234375,62.508296966552734 L617.7288818359375,61.79701232910156 L618.9557495117188,60.9002571105957 L620.093994140625,59.891483306884766 L621.0086669921875,58.844512939453125 L621.6038208007812,57.84891891479492 L621.8160400390625,56.99825668334961 L621.624267578125,56.389652252197266 L621.0244140625,56.09229278564453 L620.064208984375,56.18128204345703 L618.8356323242188,56.68364334106445 L617.5038452148438,57.59534454345703 L616.275634765625,58.84782791137695 L615.3533935546875,60.33003616333008 L615.0040283203125,61.91329574584961 L615.37841796875,63.451210021972656 L616.4700317382812,64.80191040039062 L617.7392578125,65.76616668701172 L618.73876953125,66.29750061035156 M639.3780517578125,51.25873947143555 L639.328857421875,51.42354965209961 L639.2132568359375,51.803462982177734 L639.02783203125,52.44422912597656 L638.8032836914062,53.31538009643555 L638.60205078125,54.3580322265625 L638.4866943359375,55.49557113647461 L638.5086059570312,56.6518440246582 L638.710205078125,57.78460693359375 L639.1015625,58.861717224121094 L639.6680297851562,59.86384582519531 L640.372314453125,60.78504943847656 L641.1676025390625,61.61748123168945 L642.00634765625,62.35144805908203 L642.8760375976562,62.98855972290039 L643.7677001953125,63.549156188964844 L644.6668090820312,64.05990600585938 L645.526611328125,64.55322265625 L646.2711181640625,65.05350494384766 L646.8073120117188,65.57022094726562 L647.086181640625,66.09608459472656 L647.0885009765625,66.64187622070312 L646.795654296875,67.19866180419922 L646.1800537109375,67.75774383544922 L645.19580078125,68.29988861083984 L643.8123779296875,68.79168701171875 L642.08544921875,69.19627380371094 L640.1480712890625,69.50347900390625 L638.1251831054688,69.64891052246094 L636.181640625,69.59159851074219 L634.44677734375,69.31732940673828 L633.1752319335938,68.97168731689453 L632.4436645507812,68.68382263183594 M634.5533447265625,52.87171936035156 L634.7982177734375,52.867698669433594 L635.4658813476562,52.84812545776367 L636.6970825195312,52.805301666259766 L638.5223388671875,52.729183197021484 L640.735595703125,52.614200592041016 L643.067138671875,52.48099136352539 L644.939208984375,52.36869430541992 L646.0848999023438,52.29563522338867 M651.6324462890625,66.38896179199219 L651.6043701171875,66.39453887939453 L651.5780639648438,66.40194702148438 L651.5609130859375,66.4085464477539 L651.560302734375,66.41167449951172 M657.7788696289062,58.71272277832031 L657.90478515625,58.71470642089844 L658.079833984375,58.712162017822266 L658.249267578125,58.70588302612305 " fill="none" stroke="black" stroke-linecap="round" stroke-width="1" /></svg>