<?xml version="1.0" encoding="utf-8" ?>
<svg baseProfile="full" height="100%" version="1.1" viewBox="0,0,1000,120" width="100%" xmlns="http://www.w3.org/2000/svg" xmlns:ev="http://www.w3.org/2001/xml-events" xmlns:xlink="http://www.w3.org/1999/xlink"><defs /><rect fill="white" height="120" width="1000" x="0" y="0" /><path d="M0,0 M367.89825439453125,50.368873596191406 L368.08563232421875,50.69107437133789 L368.3730163574219,51.398681640625 L368.6813049316406,52.58279037475586 L368.8790283203125,54.21893310546875 L368.9130859375,56.25315856933594 L368.8026123046875,58.56428146362305 L368.6436462402344,61.010108947753906 L368.5596008300781,63.41172409057617 L368.63104248046875,65.56291961669922 L368.85772705078125,67.28742980957031 L369.1195068359375,68.41615295410156 L369.31781005859375,68.97952270507812 M360.6448059082031,47.66240692138672 L360.9011535644531,47.77561569213867 L361.53533935546875,47.98857498168945 L362.65869140625,48.25940704345703 L364.2562561035156,48.49434280395508 L366.2406311035156,48.61427688598633 L368.4631042480469,48.56479263305664 L370.759521484375,48.3671760559082 L372.969970703125,48.06150817871094 L374.93157958984375,47.67979431152344 L376.5296325683594,47.26611328125 L377.60870361328125,46.92246627807617 L378.1814880371094,46.69646453857422 M379.02191162109375,46.739830017089844 L379.0616760253906,47.1832160949707 L379.11358642578125,48.05535125732422 L379.1441650390625,49.37833786010742 L379.11932373046875,51.032615661621094 L379.0456237792969,52.933345794677734 L378.9342346191406,54.9635124206543 L378.8357849121094,57.00687026977539 L378.7940673828125,58.91337966918945 L378.81658935546875,60.53145217895508 L378.9010009765625,61.70559310913086 L379.0726318359375,62.31519317626953 L379.3662109375,62.29245376586914 L379.8551330566406,61.65403747558594 L380.60577392578125,60.51683044433594 L381.59735107421875,59.10468673706055 L382.73760986328125,57.66655349731445 L383.9188537597656,56.426265716552734 L385.0296325683594,55.5577507019043 L386.00128173828125,55.186946868896484 L386.8176574707031,55.405155181884766 L387.44232177734375,56.239383697509766 L387.84136962890625,57.636497497558594 L388.0252685546875,59.446136474609375 L388.04815673828125,61.436676025390625 L388.0314025878906,63.337623596191406 L388.1459045410156,64.88362121582031 L388.5332336425781,65.83704376220703 L389.266357421875,66.06256103515625 L390.34442138671875,65.53878784179688 L391.6742858886719,64.36270141601562 L393.1136169433594,62.77243423461914 L394.4967346191406,61.084964752197266 L395.65753173828125,59.58158874511719 L396.4764709472656,58.48841857910156 L396.9214172363281,57.928993225097656 L397.0381774902344,57.918155670166016 L396.9405822753906,58.458431243896484 L396.7518615722656,59.52629089355469 L396.56396484375,60.98012161254883 L396.47412109375,62.59128952026367 L396.54302978515625,64.08173370361328 L396.78857421875,65.19822692871094 L397.089599609375,65.84196472167969 L397.3352355957031,66.1053237915039 M397.2098388671875,51.76982116699219 L397.2030029296875,51.80070877075195 L397.2958068847656,51.91819763183594 L397.4455871582031,52.074581146240234 L397.60955810546875,52.222164154052734 M406.59051513671875,57.215972900390625 L406.2233581542969,57.25723648071289 L405.52777099609375,57.371402740478516 L404.5483703613281,57.58739471435547 L403.5038146972656,57.922760009765625 L402.643798828125,58.38643264770508 L402.23883056640625,58.969295501708984 L402.4693603515625,59.643367767333984 L403.3977966308594,60.38783264160156 L404.9289855957031,61.16429901123047 L406.8230285644531,61.94918441772461 L408.78076171875,62.754276275634766 L410.502685546875,63.570655822753906 L411.74102783203125,64.3758773803711 L412.3460388183594,65.15209197998047 L412.2485046386719,65.83900451660156 L411.4715576171875,66.3823013305664 L410.14886474609375,66.75263214111328 L408.51202392578125,66.9095687866211 L406.8245849609375,66.84473419189453 L405.373291015625,66.55789184570312 L404.3513488769531,66.06771087646484 L403.8447570800781,65.43946075439453 L403.7191162109375,64.87432098388672 L403.7886657714844,64.49124145507812 M425.9571838378906,55.777137756347656 L425.9969177246094,56.19203186035156 L426.03253173828125,56.98157501220703 L426.0460205078125,58.13667297363281 L426.01806640625,59.51850891113281 L425.972412109375,61.02083206176758 L425.9610595703125,62.53117752075195 L426.0242919921875,63.96548080444336 L426.208251953125,65.13914489746094 L426.52203369140625,65.87184143066406 L426.92498779296875,66.04371643066406 L427.2877197265625,65.84858703613281 L427.5310974121094,65.53544616699219 M427.1043395996094,50.85508728027344 L427.0488586425781,50.787723541259766 L427.0174255371094,50.73920440673828 L427.0155029296875,50.721290588378906 L427.048583984375,50.74574279785156 M437.4205322265625,56.404415130615234 L437.1335754394531,56.37753677368164 L436.4831237792969,56.338497161865234 L435.4190673828125,56.340065002441406 L434.07025146484375,56.46268081665039 L432.66461181640625,56.77799987792969 L431.4969482421875,57.322078704833984 L430.8161926269531,58.071807861328125 L430.786376953125,58.97804641723633 L431.46820068359375,59.97606658935547 L432.810791015625,61.005924224853516 L434.6396789550781,62.02429962158203 L436.7064208984375,63.00896453857422 L438.6859130859375,63.9339485168457 L440.27288818359375,64.79273986816406 L441.2507019042969,65.5548095703125 L441.4877014160156,66.19413757324219 L440.9675598144531,66.70243835449219 L439.7870788574219,67.07140350341797 L438.11553955078125,67.29087829589844 L436.2061462402344,67.34506225585938 L434.37066650390625,67.23473358154297 L432.8585510253906,66.98943328857422 L431.8699035644531,66.72980499267578 L431.3891296386719,66.54005432128906 M458.2508544921875,57.35897445678711 L457.78851318359375,57.27073669433594 L456.93011474609375,57.302101135253906 L455.69927978515625,57.6116943359375 L454.3033142089844,58.33658981323242 L452.93670654296875,59.47012710571289 L451.7974853515625,60.90436553955078 L451.05029296875,62.46672058105469 L450.8009033203125,63.95930099487305 L451.0679626464844,65.158935546875 L451.8361511230469,65.87376403808594 L453.018310546875,65.98312377929688 L454.4889831542969,65.44638061523438 L456.11395263671875,64.34144592285156 L457.69488525390625,62.83344268798828 L459.04522705078125,61.17552185058594 L460.0389709472656,59.633052825927734 L460.61602783203125,58.408470153808594 L460.82940673828125,57.62910842895508 L460.8137512207031,57.36345291137695 L460.68487548828125,57.63386917114258 L460.5387268066406,58.45894241333008 L460.459228515625,59.78610610961914 L460.51019287109375,61.439483642578125 L460.8506774902344,63.179229736328125 L461.5798034667969,64.74182891845703 L462.69775390625,65.93266296386719 L463.80828857421875,66.65923309326172 L464.61773681640625,66.99227905273438 M481.6018981933594,59.407413482666016 L481.34515380859375,59.18070602416992 L480.85662841796875,58.87936782836914 L480.1081848144531,58.644325256347656 L479.1429138183594,58.69034957885742 L478.00323486328125,59.12949752807617 L476.7975769042969,60.00932693481445 L475.70233154296875,61.24931716918945 L474.91546630859375,62.67805480957031 L474.59185791015625,64.08229064941406 L474.8128662109375,65.24397277832031 L475.56463623046875,65.96755981445312 L476.77020263671875,66.09974670410156 L478.3004455566406,65.54044342041016 L479.9747314453125,64.25616455078125 L481.6000671386719,62.33113479614258 L483.0108642578125,59.940311431884766 L484.07843017578125,57.31964874267578 L484.76409912109375,54.707977294921875 L485.10498046875,52.35383224487305 L485.18701171875,50.422393798828125 L485.118896484375,49.028480529785156 L485.00592041015625,48.244972229003906 L484.9108581542969,48.113525390625 L484.8398132324219,48.65532684326172 L484.80694580078125,49.913997650146484 L484.82623291015625,51.8179931640625 L484.9263000488281,54.203834533691406 L485.1700134277344,56.84566116333008 L485.6286315917969,59.47077178955078 L486.32861328125,61.81418228149414 L487.31036376953125,63.67439270019531 L488.562744140625,64.87503051757812 L490.0230712890625,65.30738067626953 L491.5804443359375,64.95955657958984 L493.08966064453125,63.90840148925781 L494.38604736328125,62.335636138916016 L495.349609375,60.50634765625 L495.90753173828125,58.70477294921875 L496.0406799316406,57.1929931640625 L495.7492980957031,56.17798614501953 L495.0845947265625,55.78635025024414 L494.1428527832031,56.07271957397461 L493.0828857421875,57.021583557128906 L492.12371826171875,58.52044677734375 L491.498046875,60.36222457885742 L491.37701416015625,62.27711868286133 L491.865966796875,63.97774124145508 L492.96551513671875,65.196533203125 L494.5763244628906,65.74508666992188 L496.52789306640625,65.54345703125 L498.6055603027344,64.63736724853516 L500.59039306640625,63.183834075927734 L502.2980651855469,61.45262145996094 L503.6096496582031,59.736419677734375 L504.4864501953125,58.29633712768555 L504.9642333984375,57.32732391357422 L505.11700439453125,56.967506408691406 L505.0511169433594,57.26274108886719 L504.850341796875,58.20499801635742 L504.5978698730469,59.67326354980469 L504.39605712890625,61.42033386230469 L504.30950927734375,63.12229919433594 L504.37744140625,64.49945068359375 L504.6263427734375,65.327880859375 L505.04510498046875,65.50154113769531 L505.64398193359375,65.02375793457031 L506.444091796875,63.986698150634766 L507.3914794921875,62.569358825683594 L508.40802001953125,61.038230895996094 L509.3988952636719,59.64091110229492 L510.27862548828125,58.589351654052734 L511.01690673828125,58.03146743774414 L511.6065979003906,58.03398513793945 L512.0341186523438,58.5867919921875 L512.2823486328125,59.60350799560547 L512.3693237304688,60.896244049072266 L512.3411865234375,62.23344421386719 L512.2636108398438,63.388423919677734 L512.2139892578125,64.16777038574219 L512.2708740234375,64.4503173828125 L512.481689453125,64.18881225585938 L512.9234008789062,63.408451080322266 L513.6170654296875,62.22156524658203 L514.51953125,60.82587814331055 L515.5477294921875,59.442840576171875 L516.5963745117188,58.289344787597656 L517.559814453125,57.52019119262695 L518.3971557617188,57.22698211669922 L519.0643920898438,57.434112548828125 L519.526123046875,58.12223815917969 L519.7661743164062,59.215065002441406 L519.8411865234375,60.5938835144043 L519.8473510742188,62.06093215942383 L519.9034423828125,63.40479278564453 L520.0093383789062,64.37001037597656 L520.1263427734375,64.89298248291016 M529.1688842773438,57.93326187133789 L528.8984375,57.653602600097656 L528.3379516601562,57.31911087036133 L527.4598999023438,57.10676574707031 L526.3444213867188,57.24843215942383 L525.1329345703125,57.82390213012695 L524.0244750976562,58.81943893432617 L523.2161254882812,60.11614227294922 L522.8794555664062,61.55940628051758 L523.115234375,62.945091247558594 L523.9252319335938,64.0755844116211 L525.236083984375,64.77812194824219 L526.8953247070312,64.93651580810547 L528.6790771484375,64.50811767578125 L530.3411865234375,63.545936584472656 L531.632568359375,62.17021560668945 L532.3786010742188,60.57461929321289 L532.4893798828125,58.96724319458008 L531.985107421875,57.541351318359375 L530.990478515625,56.448184967041016 L529.7493896484375,55.813419342041016 L528.5325927734375,55.658843994140625 L527.6055297851562,55.92824172973633 L527.07275390625,56.35294723510742 L526.8724975585938,56.712162017822266 M549.3850708007812,57.3240852355957 L549.195556640625,57.014495849609375 L548.7805786132812,56.61896514892578 L548.0819091796875,56.30942916870117 L547.1215209960938,56.326568603515625 L545.9607543945312,56.76164245605469 L544.731689453125,57.629146575927734 L543.6207275390625,58.84245681762695 L542.8390502929688,60.271942138671875 L542.5458984375,61.724365234375 L542.8284301757812,63.00008010864258 L543.6622314453125,63.920196533203125 L544.9413452148438,64.34671783447266 L546.4932250976562,64.20675659179688 L548.1077270507812,63.51359176635742 L549.5617065429688,62.35643768310547 L550.6583251953125,60.902435302734375 L551.2523193359375,59.36767578125 L551.3094482421875,57.94356155395508 L550.9133911132812,56.78261947631836 L550.2493896484375,56.02482223510742 L549.5472412109375,55.721343994140625 L548.98388671875,55.836669921875 L548.6412353515625,56.14667510986328 L548.4954833984375,56.44207000732422 M562.753662109375,48.93863296508789 L562.637939453125,48.11768341064453 L562.3469848632812,46.957393646240234 L561.826171875,45.78289794921875 L561.0838012695312,45.0748405456543 L560.1703491210938,45.0 L559.1817016601562,45.642616271972656 L558.2061767578125,46.97795867919922 L557.3182983398438,48.98649215698242 L556.570068359375,51.57794189453125 L555.9942626953125,54.60666275024414 L555.6048583984375,57.88825225830078 L555.4320068359375,61.229034423828125 L555.4766845703125,64.36055755615234 L555.7125244140625,67.01952362060547 L555.9981079101562,68.85648345947266 L556.2233276367188,69.83291625976562 M552.2032470703125,59.06217956542969 L552.4076538085938,59.04435729980469 L552.975341796875,59.04597091674805 L554.02197265625,59.07730484008789 L555.65625,59.11883544921875 L557.8130493164062,59.1285285949707 L560.2991333007812,59.07014846801758 L562.4371337890625,58.97613525390625 L563.8463134765625,58.89183807373047 M578.0665893554688,56.497955322265625 L577.85693359375,56.238311767578125 L577.4428100585938,55.88981246948242 L576.801025390625,55.58295822143555 L575.971923828125,55.493927001953125 L575.0283203125,55.687252044677734 L574.1085205078125,56.17271041870117 L573.3955078125,56.91215896606445 L573.0707397460938,57.85892868041992 L573.256591796875,58.94737243652344 L573.9545288085938,60.08852767944336 L575.0881958007812,61.206260681152344 L576.5006103515625,62.2371940612793 L578.0,63.142356872558594 L579.3761596679688,63.91611862182617 L580.4451293945312,64.57386779785156 L581.0454711914062,65.12776184082031 L581.0933227539062,65.6069564819336 L580.5537109375,66.02081298828125 L579.4871826171875,66.38116455078125 L577.9945678710938,66.67900085449219 L576.2512817382812,66.90001678466797 L574.4558715820312,67.03062438964844 L572.8388671875,67.0670394897461 L571.7340087890625,66.85798645019531 L571.4046630859375,66.29947662353516 L571.9224243164062,65.31372833251953 L572.8191528320312,64.2598648071289 L573.630126953125,63.44707107543945 M586.5846557617188,48.342018127441406 L586.6259765625,48.66324996948242 L586.6468505859375,49.42152786254883 L586.6096801757812,50.725189208984375 L586.4862670898438,52.518348693847656 L586.3125,54.66990280151367 L586.1493530273438,56.98637771606445 L586.05224609375,59.2630500793457 L586.0711669921875,61.312461853027344 L586.2015380859375,62.96702575683594 L586.39453125,64.1165542602539 L586.5706176757812,64.75973510742188 L586.6819458007812,65.017333984375 M582.4201049804688,58.245731353759766 L582.6698608398438,58.30142593383789 L583.2567138671875,58.40909957885742 L584.264892578125,58.578006744384766 L585.6531982421875,58.77464294433594 L587.2903442382812,58.938819885253906 L589.0307006835938,58.99149703979492 L590.7427368164062,58.869022369384766 L592.3239135742188,58.52251052856445 L593.6871948242188,57.99321746826172 L594.7467041015625,57.35111618041992 L595.425048828125,56.69118118286133 L595.713623046875,56.14488983154297 L595.6334228515625,55.87218475341797 L595.2425537109375,55.99062728881836 L594.6201171875,56.596343994140625 L593.9095458984375,57.66038131713867 L593.294921875,59.01470947265625 L592.9736328125,60.4353141784668 L593.0744018554688,61.695735931396484 L593.6473388671875,62.60190963745117 L594.6583862304688,63.04017639160156 L596.0440063476562,62.959022521972656 L597.682373046875,62.35744857788086 L599.4183959960938,61.32672119140625 L601.0528564453125,60.045555114746094 L602.4052734375,58.74850845336914 L603.363037109375,57.63325119018555 L603.9002685546875,56.84853744506836 L604.0733642578125,56.47181701660156 L603.996337890625,56.546478271484375 L603.784912109375,57.13220977783203 L603.550537109375,58.301395416259766 L603.3790283203125,60.043739318847656 L603.2987060546875,62.286869049072266 L603.290283203125,64.86630249023438 L603.281494140625,67.56959533691406 L603.1500854492188,70.17979431152344 L602.7762451171875,72.5216064453125 L602.0958251953125,74.45999145507812 L601.0797119140625,75.84319305419922 L599.8216552734375,76.57914733886719 L598.4874267578125,76.67768859863281 L597.4093017578125,76.4163818359375 L596.7467651367188,76.0792236328125 M609.0965576171875,60.45997619628906 L609.994384765625,59.566551208496094 L611.3331298828125,58.10383605957031 L612.8726196289062,56.23448944091797 L614.2181396484375,54.32283020019531 L615.2990112304688,52.491432189941406 L616.0927124023438,50.86687469482422 L616.6072998046875,49.504783630371094 L616.7667236328125,48.488460540771484 L616.531982421875,47.880409240722656 L615.9067993164062,47.72462463378906 L614.95263671875,48.05415725708008 L613.8111572265625,48.88819885253906 L612.677001953125,50.1917839050293 L611.7474975585938,51.87464141845703 L611.1705322265625,53.81938552856445 L611.020263671875,55.88090133666992 L611.2950439453125,57.911094665527344 L611.9449462890625,59.752357482910156 L612.9264526367188,61.2562370300293 L614.2115478515625,62.28690719604492 L615.7501220703125,62.75531768798828 L617.448974609375,62.62788772583008 L619.1631469726562,61.94676971435547 L620.6907958984375,60.82263946533203 L621.8582153320312,59.438079833984375 L622.5482177734375,58.003231048583984 L622.6962890625,56.727962493896484 L622.2958984375,55.793540954589844 L621.416015625,55.34144592285156 L620.1767578125,55.448551177978516 L618.7924194335938,56.12724304199219 L617.6341552734375,57.34730911254883 L617.0279541015625,58.94367599487305 L617.16259765625,60.68354415893555 L617.7191162109375,62.10942840576172 L618.3135986328125,62.99021530151367 M634.2548828125,62.41899490356445 L634.5651245117188,61.94431686401367 L635.1980590820312,61.053985595703125 L636.1983642578125,59.750606536865234 L637.4942626953125,58.16293716430664 L639.0128173828125,56.367340087890625 L640.666748046875,54.49673080444336 L642.342041015625,52.70814895629883 L643.8875732421875,51.177215576171875 L645.152587890625,50.032264709472656 L646.0283203125,49.357948303222656 L646.4658203125,49.18070602416992 L646.51953125,49.53540802001953 L646.2318115234375,50.46979522705078 L645.6448364257812,51.991798400878906 L644.8029174804688,53.987518310546875 L643.811767578125,56.28630065917969 L642.7839965820312,58.633670806884766 L641.8896484375,60.81241226196289 L641.2088623046875,62.690277099609375 L640.804443359375,64.10580444335938 L640.6847534179688,64.92578887939453 L640.8226318359375,65.11085510253906 L641.0555419921875,64.90005493164062 L641.2716064453125,64.57093811035156 M648.3049926757812,51.45340347290039 L648.856689453125,51.237266540527344 L649.8653564453125,50.97761535644531 L651.271240234375,50.79933547973633 L652.827392578125,50.84516906738281 L654.3475341796875,51.12445831298828 L655.6759033203125,51.61719512939453 L656.6844482421875,52.26995086669922 L657.2632446289062,53.057594299316406 L657.3139038085938,53.98892593383789 L656.7750244140625,55.08721160888672 L655.6646728515625,56.374629974365234 L654.1175537109375,57.87105941772461 L652.333984375,59.54958724975586 L650.564453125,61.31651306152344 L649.030517578125,63.041255950927734 L647.980712890625,64.56118774414062 L647.5528564453125,65.73252868652344 L647.765625,66.49816131591797 L648.278076171875,66.89393615722656 L648.775390625,67.03133392333984 M658.8649291992188,64.46369934082031 L658.9275512695312,64.46271514892578 L659.0496826171875,64.45549011230469 L659.185791015625,64.4449691772461 L659.2903442382812,64.43412780761719 M661.2847900390625,65.45108795166016 L661.2857666015625,65.4820556640625 L661.2874755859375,65.5123062133789 M661.7754516601562,54.80335235595703 L661.8115234375,54.77152633666992 L661.8480224609375,54.740177154541016 " fill="none" stroke="black" stroke-linecap="round" stroke-width="1" /></svg>