<?xml version="1.0" encoding="utf-8" ?>
<svg baseProfile="full" height="100%" version="1.1" viewBox="0,0,1000,120" width="100%" xmlns="http://www.w3.org/2000/svg" xmlns:ev="http://www.w3.org/2001/xml-events" xmlns:xlink="http://www.w3.org/1999/xlink"><defs /><rect fill="white" height="120" width="1000" x="0" y="0" /><path d="M0,0 M321.129638671875,50.950042724609375 L321.1418151855469,50.86420440673828 L321.1844177246094,50.79042434692383 L321.2687072753906,50.80986785888672 L321.39013671875,51.03059387207031 L321.5244445800781,51.53118896484375 L321.63665771484375,52.36969757080078 L321.691650390625,53.56658935546875 L321.6913146972656,55.13227081298828 L321.6321716308594,57.02899169921875 L321.53057861328125,59.211578369140625 L321.39569091796875,61.63169860839844 L321.23199462890625,64.2034683227539 L321.04608154296875,66.82130432128906 L320.86822509765625,69.35467529296875 L320.71209716796875,71.65654754638672 L320.6030578613281,73.56555938720703 L320.5508117675781,74.95317840576172 L320.5323791503906,75.75251007080078 L320.52716064453125,76.07566833496094 L320.5272216796875,76.1129150390625 M310.6671447753906,51.46062469482422 L310.712158203125,51.191226959228516 L311.0045166015625,50.838768005371094 L311.7442932128906,50.514495849609375 L313.0769958496094,50.33515167236328 L315.0087890625,50.26736831665039 L317.46136474609375,50.2489128112793 L320.257080078125,50.215843200683594 L323.25079345703125,50.152584075927734 L326.24798583984375,50.08547592163086 L329.0438232421875,50.02842712402344 L331.15374755859375,49.995399475097656 L332.40625,49.984474182128906 M333.06134033203125,49.882362365722656 L333.1153869628906,49.98500061035156 L333.2025451660156,50.31377029418945 L333.295166015625,50.985633850097656 L333.34429931640625,52.062034606933594 L333.30865478515625,53.52750015258789 L333.18353271484375,55.33050537109375 L332.97979736328125,57.39990997314453 L332.74627685546875,59.65473556518555 L332.5382080078125,62.00578689575195 L332.38525390625,64.34884643554688 L332.28106689453125,66.559326171875 L332.19921875,68.50394439697266 L332.09600830078125,70.07074737548828 L331.988037109375,71.18135833740234 L331.91552734375,71.7895278930664 L331.9240417480469,71.89251708984375 L332.053955078125,71.50235748291016 L332.31842041015625,70.65809631347656 L332.71783447265625,69.46359252929688 L333.2906188964844,68.06146240234375 L334.0284729003906,66.58621978759766 L334.9310302734375,65.1727066040039 L335.98956298828125,63.91094207763672 L337.1663818359375,62.88218307495117 L338.4277648925781,62.16575622558594 L339.7578430175781,61.83069610595703 L341.0680236816406,61.904056549072266 L342.301513671875,62.390869140625 L343.38958740234375,63.25785827636719 L344.24908447265625,64.44544219970703 L344.8439636230469,65.86424255371094 L345.18023681640625,67.40788269042969 L345.28314208984375,68.93980407714844 L345.23516845703125,70.32276153564453 L345.1181640625,71.44961547851562 L345.0185241699219,72.21534729003906 L345.0078430175781,72.58694458007812 L345.118408203125,72.60326385498047 L345.2813720703125,72.43927001953125 L345.42572021484375,72.25202178955078 M350.96356201171875,65.1781005859375 L351.0465393066406,64.92266082763672 L351.16015625,64.6288833618164 L351.26568603515625,64.44758605957031 L351.3205261230469,64.56259155273438 L351.3080749511719,65.01830291748047 L351.2398681640625,65.81584930419922 L351.1204528808594,66.89524841308594 L350.9725646972656,68.18257904052734 L350.8298034667969,69.5688247680664 L350.73016357421875,70.90269470214844 L350.69647216796875,72.0573501586914 L350.7408447265625,72.87049102783203 L350.8433837890625,73.23661804199219 L350.9927978515625,73.12925720214844 L351.1362609863281,72.79153442382812 L351.2367858886719,72.44316101074219 M351.1451721191406,55.16987991333008 L351.079833984375,54.86885070800781 L351.0181884765625,54.486507415771484 L350.9770202636719,54.148197174072266 L350.97314453125,53.97929382324219 M367.1799621582031,62.64153289794922 L366.8580322265625,62.448638916015625 L366.2142333984375,62.18480682373047 L365.2200622558594,61.938133239746094 L363.9751281738281,61.84394454956055 L362.6011047363281,61.93914794921875 L361.26806640625,62.23091506958008 L360.1416320800781,62.698974609375 L359.3934326171875,63.31793212890625 L359.15045166015625,64.05227661132812 L359.5121765136719,64.88117980957031 L360.5006408691406,65.7573013305664 L362.0693054199219,66.64482116699219 L364.06634521484375,67.52568817138672 L366.281005859375,68.38845825195312 L368.468505859375,69.21385192871094 L370.41778564453125,69.99071502685547 L371.94000244140625,70.68836975097656 L372.91937255859375,71.27545928955078 L373.28900146484375,71.7492446899414 L373.0484313964844,72.12211608886719 L372.2242431640625,72.39867401123047 L370.88525390625,72.58539581298828 L369.0999755859375,72.67174530029297 L366.9781494140625,72.63028717041016 L364.669677734375,72.47271728515625 L362.358642578125,72.21244049072266 L360.20953369140625,71.88871002197266 L358.38739013671875,71.54183197021484 L356.9945068359375,71.20944213867188 L356.07550048828125,70.9112548828125 L355.5915832519531,70.69950866699219 L355.41778564453125,70.57633209228516 M396.398681640625,63.10506057739258 L396.5116882324219,63.21780776977539 L396.6649169921875,63.474151611328125 L396.8197326660156,63.921546936035156 L396.90557861328125,64.5718765258789 L396.92059326171875,65.44105529785156 L396.86968994140625,66.5091781616211 L396.7781982421875,67.73152160644531 L396.6796875,69.04405975341797 L396.6255798339844,70.34637451171875 L396.61749267578125,71.53363800048828 L396.6446838378906,72.51043701171875 L396.692138671875,73.09474182128906 L396.7310791015625,73.16033935546875 L396.767333984375,72.67947387695312 L396.80615234375,71.98377227783203 L396.8370361328125,71.38583374023438 M397.51751708984375,51.4631462097168 L397.4864807128906,51.325740814208984 L397.4904479980469,51.20411682128906 L397.5225830078125,51.13089370727539 L397.57623291015625,51.138675689697266 M412.2448425292969,62.959991455078125 L412.0211181640625,62.69163131713867 L411.504638671875,62.283695220947266 L410.6088562011719,61.850460052490234 L409.32586669921875,61.55746078491211 L407.71539306640625,61.46297073364258 L405.9337158203125,61.569122314453125 L404.2314453125,61.827735900878906 L402.8509826660156,62.18650817871094 L402.01104736328125,62.64287567138672 L401.81805419921875,63.19417190551758 L402.284912109375,63.845741271972656 L403.3592529296875,64.59012603759766 L404.96929931640625,65.40464782714844 L406.9864501953125,66.26490020751953 L409.2523193359375,67.16393280029297 L411.565185546875,68.0789566040039 L413.69439697265625,68.99706268310547 L415.4403076171875,69.87224578857422 L416.67474365234375,70.6381607055664 L417.35198974609375,71.24402618408203 L417.4764404296875,71.66301727294922 L417.0909729003906,71.8977279663086 L416.22686767578125,71.99298095703125 L414.91986083984375,71.96424865722656 L413.2283935546875,71.81800842285156 L411.25714111328125,71.5598373413086 L409.1472473144531,71.212646484375 L407.05914306640625,70.81249237060547 L405.17694091796875,70.42108154296875 L403.650146484375,70.07681274414062 L402.638427734375,69.83463287353516 L402.1222229003906,69.70109558105469 M446.4888916015625,66.5213623046875 L446.46673583984375,66.05845642089844 L446.3141784667969,65.31754302978516 L445.89434814453125,64.39816284179688 L445.112060546875,63.521995544433594 L443.9263610839844,62.79392623901367 L442.3648681640625,62.29066467285156 L440.57720947265625,62.081626892089844 L438.70709228515625,62.22736358642578 L436.87701416015625,62.726200103759766 L435.2493591308594,63.54835891723633 L433.9333190917969,64.61553955078125 L433.0235595703125,65.82327270507812 L432.6431579589844,67.07786560058594 L432.8431396484375,68.24960327148438 L433.6075439453125,69.20378875732422 L434.9110412597656,69.82695770263672 L436.6572265625,70.03817749023438 L438.6942138671875,69.82147979736328 L440.8732604980469,69.23314666748047 L443.01007080078125,68.3563461303711 L444.93548583984375,67.30827331542969 L446.5306091308594,66.22230529785156 L447.71966552734375,65.218994140625 L448.4757995605469,64.39810943603516 L448.850341796875,63.85073471069336 L448.9214782714844,63.63267517089844 L448.7962646484375,63.77763366699219 L448.57757568359375,64.30677032470703 L448.354736328125,65.18519592285156 L448.22906494140625,66.33226013183594 L448.28680419921875,67.6402359008789 L448.65985107421875,68.98442077636719 L449.39044189453125,70.22430419921875 L450.42828369140625,71.25115966796875 L451.41387939453125,71.94102478027344 L452.10693359375,72.29597473144531 M485.89849853515625,67.23177337646484 L485.953369140625,66.74773406982422 L485.8712158203125,65.99563598632812 L485.493896484375,65.10572814941406 L484.70245361328125,64.30736541748047 L483.51922607421875,63.694515228271484 L482.0132751464844,63.33386993408203 L480.26727294921875,63.26500701904297 L478.3771057128906,63.55282211303711 L476.42791748046875,64.22099304199219 L474.54315185546875,65.23560333251953 L472.8867492675781,66.5287857055664 L471.6380920410156,67.99769592285156 L470.946533203125,69.50373840332031 L470.9283447265625,70.90445709228516 L471.61273193359375,72.04167938232422 L472.949462890625,72.76020050048828 L474.84527587890625,72.95903015136719 L477.1544189453125,72.60820770263672 L479.69677734375,71.72100067138672 L482.281494140625,70.35089874267578 L484.738525390625,68.5568618774414 L486.93341064453125,66.40137481689453 L488.80615234375,63.979251861572266 L490.33428955078125,61.42083740234375 L491.51422119140625,58.88844680786133 L492.3537292480469,56.566165924072266 L492.8724365234375,54.60985565185547 L493.11773681640625,53.13423538208008 L493.15484619140625,52.21818542480469 L493.06646728515625,51.90592956542969 L492.90380859375,52.22209167480469 L492.7037048339844,53.18501281738281 L492.48565673828125,54.747161865234375 L492.2803039550781,56.79619216918945 L492.10772705078125,59.17304229736328 L492.02374267578125,61.73816680908203 L492.04833984375,64.28840637207031 L492.18280029296875,66.62876892089844 L492.3486633300781,68.36611938476562 L492.4842529296875,69.36550903320312 M496.37652587890625,69.69107055664062 L496.5157775878906,69.70246124267578 L496.9377136230469,69.68382263183594 L497.7605285644531,69.57862854003906 L499.00115966796875,69.31498718261719 L500.5730285644531,68.86653900146484 L502.3203125,68.21581268310547 L504.08587646484375,67.38941955566406 L505.6905517578125,66.44470977783203 L506.9605712890625,65.4371337890625 L507.7287292480469,64.42276000976562 L507.9081115722656,63.506065368652344 L507.47332763671875,62.75658416748047 L506.50347900390625,62.26862716674805 L505.08526611328125,62.1356201171875 L503.3592529296875,62.39138412475586 L501.4925842285156,63.030887603759766 L499.71087646484375,64.02104187011719 L498.2442321777344,65.26866149902344 L497.2994384765625,66.67389678955078 L496.99981689453125,68.1334228515625 L497.408447265625,69.5057373046875 L498.52288818359375,70.66411590576172 L500.2684020996094,71.50155639648438 L502.5883483886719,71.90158081054688 L505.26971435546875,71.8240737915039 L508.0387268066406,71.32733154296875 L510.25799560546875,70.71337890625 L511.62451171875,70.22640228271484 M512.2706298828125,63.12936019897461 L512.318603515625,63.214393615722656 L512.424072265625,63.48958969116211 L512.5904541015625,64.05982971191406 L512.7793579101562,64.95502471923828 L512.9442138671875,66.11968231201172 L513.0479125976562,67.43586730957031 L513.0667724609375,68.75091552734375 L513.0284423828125,69.91902923583984 L512.9744262695312,70.81697082519531 L512.9273681640625,71.3240966796875 L512.918212890625,71.36332702636719 L512.9559936523438,70.89788055419922 L513.0501098632812,69.94850158691406 L513.2373046875,68.62252044677734 L513.5465698242188,67.0621109008789 L514.0048217773438,65.42472839355469 L514.641357421875,63.874061584472656 L515.424072265625,62.53693771362305 L516.3037719726562,61.51335144042969 L517.2260131835938,60.880916595458984 L518.136474609375,60.66706466674805 L519.0291137695312,60.877079010009766 L519.9083251953125,61.49797058105469 L520.7421875,62.478515625 L521.4881591796875,63.744205474853516 L522.0844116210938,65.17428588867188 L522.4830322265625,66.6104965209961 L522.6838989257812,67.89339447021484 L522.7200317382812,68.88780975341797 L522.657958984375,69.49353790283203 L522.581787109375,69.66175842285156 L522.5614624023438,69.37348937988281 L522.6717529296875,68.65432739257812 L522.9551391601562,67.5783462524414 L523.4437866210938,66.26628875732422 L524.1555786132812,64.85433197021484 L525.08740234375,63.48054504394531 L526.2123413085938,62.26805877685547 L527.4970092773438,61.32905578613281 L528.8658447265625,60.747093200683594 L530.236328125,60.57429504394531 L531.5033569335938,60.814537048339844 L532.5783081054688,61.437049865722656 L533.386474609375,62.388824462890625 L533.9033203125,63.595054626464844 L534.13623046875,64.94801330566406 L534.1473388671875,66.32140350341797 L534.058349609375,67.58538818359375 L534.0166015625,68.62692260742188 L534.1279907226562,69.38904571533203 L534.3330078125,69.84757995605469 L534.5339965820312,70.05697631835938 M545.1627197265625,65.86134338378906 L545.133056640625,65.30694580078125 L544.987548828125,64.48361206054688 L544.65087890625,63.5760612487793 L544.0621337890625,62.87284469604492 L543.2145385742188,62.46485137939453 L542.1334838867188,62.397369384765625 L540.8754272460938,62.64957046508789 L539.5457763671875,63.221927642822266 L538.2890014648438,64.0816421508789 L537.27001953125,65.16009521484375 L536.65380859375,66.35636901855469 L536.55810546875,67.55105590820312 L537.04296875,68.60580444335938 L538.086669921875,69.39517974853516 L539.589111328125,69.81317138671875 L541.3826904296875,69.79911804199219 L543.2822265625,69.35236358642578 L545.091796875,68.53130340576172 L546.6312255859375,67.43665313720703 L547.7789916992188,66.2012710571289 L548.46533203125,64.94940948486328 L548.68212890625,63.79538345336914 L548.5197143554688,62.833412170410156 L548.1171875,62.1654167175293 L547.619140625,61.84841537475586 L547.18359375,61.88795852661133 L546.8973999023438,62.10773849487305 L546.7607421875,62.341304779052734 M576.0419921875,67.89744567871094 L575.9664306640625,67.38948059082031 L575.75146484375,66.55418395996094 L575.3284301757812,65.48822021484375 L574.6292724609375,64.4233169555664 L573.5889892578125,63.47142028808594 L572.1673583984375,62.72408676147461 L570.4098510742188,62.23741149902344 L568.4188842773438,62.08393096923828 L566.3922119140625,62.2757453918457 L564.5518798828125,62.80636978149414 L563.081298828125,63.62646484375 L562.135498046875,64.65818786621094 L561.814453125,65.79783630371094 L562.1564331054688,66.92108917236328 L563.177490234375,67.87818145751953 L564.8343505859375,68.54898834228516 L566.983154296875,68.84968566894531 L569.4197998046875,68.7703628540039 L571.8450927734375,68.35076141357422 L573.998779296875,67.6705322265625 L575.6978759765625,66.83496856689453 L576.8610229492188,65.95018768310547 L577.4849853515625,65.10343933105469 L577.6530151367188,64.40035247802734 L577.489013671875,63.90497970581055 L577.1727294921875,63.642520904541016 L576.882568359375,63.562652587890625 L576.7096557617188,63.580039978027344 M594.0885620117188,52.449798583984375 L594.0221557617188,51.404266357421875 L593.7620849609375,49.83758544921875 L593.2319946289062,48.05091857910156 L592.4281005859375,46.55292510986328 L591.438232421875,45.505462646484375 L590.3565673828125,45.0 L589.2344970703125,45.04417037963867 L588.086181640625,45.70988464355469 L586.9496459960938,46.9881591796875 L585.883056640625,48.83266067504883 L584.975341796875,51.16431427001953 L584.294921875,53.87098693847656 L583.8631591796875,56.81256866455078 L583.658203125,59.842132568359375 L583.627197265625,62.78544998168945 L583.7135009765625,65.48381042480469 L583.8789672851562,67.77377319335938 L584.090576171875,69.54399871826172 L584.3101196289062,70.73716735839844 L584.4710083007812,71.31362915039062 L584.4964599609375,71.31385803222656 L584.3596801757812,70.86705017089844 L584.154052734375,70.29188537597656 L583.9742431640625,69.83612060546875 M579.3017578125,65.19502258300781 L579.336669921875,65.1440200805664 L579.632080078125,65.09263610839844 L580.386962890625,65.07137298583984 L581.7183837890625,65.11814880371094 L583.5748901367188,65.2347412109375 L585.8130493164062,65.39911651611328 L588.2679443359375,65.59727478027344 L590.7311401367188,65.82564544677734 L593.014892578125,66.06423950195312 L594.7213134765625,66.26290130615234 L595.7171020507812,66.39167785644531 M620.8058471679688,63.32158660888672 L620.7305297851562,62.92709732055664 L620.4603881835938,62.35029602050781 L619.837158203125,61.722747802734375 L618.7647705078125,61.25397491455078 L617.2554931640625,61.02230453491211 L615.4366455078125,61.03083038330078 L613.569580078125,61.25061798095703 L611.9495849609375,61.652034759521484 L610.8302001953125,62.186553955078125 L610.412841796875,62.81562805175781 L610.7923583984375,63.530399322509766 L611.9599609375,64.29841613769531 L613.8251953125,65.11360931396484 L616.1897583007812,65.9568099975586 L618.7891845703125,66.80309295654297 L621.326416015625,67.62940979003906 L623.5142211914062,68.41122436523438 L625.151611328125,69.102294921875 L626.1292724609375,69.69082641601562 L626.4132690429688,70.16790771484375 L626.0191650390625,70.54399108886719 L624.9993286132812,70.83983612060547 L623.43505859375,71.06442260742188 L621.464599609375,71.19994354248047 L619.2740478515625,71.24673461914062 L617.07568359375,71.2044448852539 L615.0382690429688,71.10033416748047 L613.363037109375,70.94587707519531 L612.1931762695312,70.75582885742188 L611.586181640625,70.52984619140625 L611.4093017578125,70.32777404785156 L611.467041015625,70.18586730957031 M631.5537719726562,50.38179016113281 L631.638427734375,50.595523834228516 L631.759521484375,51.101463317871094 L631.8796997070312,51.98625946044922 L631.970703125,53.25819778442383 L632.038818359375,54.89174270629883 L632.0660400390625,56.82926940917969 L632.0279541015625,58.982887268066406 L631.9349365234375,61.24751663208008 L631.7828369140625,63.501529693603516 L631.5999755859375,65.6139144897461 L631.4095458984375,67.47855377197266 L631.1968383789062,68.98592376708984 L630.9425048828125,70.04613494873047 L630.675048828125,70.63823699951172 L630.4510498046875,70.86614990234375 L630.306884765625,70.8812255859375 M626.8304443359375,64.2894515991211 L626.856201171875,64.13085174560547 L627.07421875,63.949588775634766 L627.6275634765625,63.817378997802734 L628.619384765625,63.80943298339844 L630.041015625,63.906131744384766 L631.8089599609375,64.05010986328125 L633.7945556640625,64.17880249023438 L635.8192138671875,64.26007080078125 L637.6725463867188,64.26631927490234 L639.0317993164062,64.2250747680664 L639.797119140625,64.17557525634766 M639.4840087890625,62.969696044921875 L639.593994140625,63.16730499267578 L639.853759765625,63.55512619018555 L640.327392578125,64.15882873535156 L641.0337524414062,64.93539428710938 L641.9847412109375,65.86356353759766 L643.1305541992188,66.88023376464844 L644.4164428710938,67.91382598876953 L645.8289794921875,68.85206604003906 L647.3187255859375,69.5921401977539 L648.8079833984375,70.05596923828125 L650.003662109375,70.27208709716797 L650.7469482421875,70.31974792480469 M655.1033935546875,64.28673553466797 L654.9962158203125,64.25415802001953 L654.754638671875,64.3572769165039 L654.32373046875,64.73554992675781 L653.6835327148438,65.5053482055664 L652.8115234375,66.6528091430664 L651.7178344726562,68.11649322509766 L650.472412109375,69.8086166381836 L649.170166015625,71.62251281738281 L647.9212646484375,73.44406127929688 L646.866943359375,75.15238952636719 L646.0983276367188,76.6246109008789 L645.747314453125,77.64248657226562 L645.8888549804688,78.055908203125 L646.4893798828125,77.80226135253906 L647.207275390625,77.2237777709961 L647.78173828125,76.65907287597656 M659.8118896484375,52.680171966552734 L659.8898315429688,52.72978973388672 L659.948974609375,53.00837326049805 L659.912841796875,53.670440673828125 L659.7056884765625,54.793087005615234 L659.3521728515625,56.336055755615234 L658.9244995117188,58.206172943115234 L658.50927734375,60.25877380371094 L658.1944580078125,62.368350982666016 L658.0289306640625,64.37124633789062 L658.002685546875,66.09552001953125 L658.0560302734375,67.30467224121094 L658.126220703125,67.96349334716797 M661.7102661132812,68.09870147705078 L661.87548828125,68.00193786621094 L662.231689453125,67.8100814819336 L662.8610229492188,67.51734924316406 L663.807373046875,67.14307403564453 L665.0916748046875,66.68150329589844 L666.643310546875,66.14636993408203 L668.3037109375,65.53269958496094 L669.8615112304688,64.8545913696289 L671.128662109375,64.14738464355469 L671.9685668945312,63.46035385131836 L672.297607421875,62.84337615966797 L672.0613403320312,62.36015319824219 L671.2542724609375,62.06374740600586 L669.91259765625,62.00929260253906 L668.16748046875,62.238311767578125 L666.2323608398438,62.75966262817383 L664.3687744140625,63.5477294921875 L662.836669921875,64.55553436279297 L661.8648681640625,65.7077865600586 L661.6092529296875,66.9259033203125 L662.19384765625,68.12285614013672 L663.64501953125,69.19586181640625 L665.8468627929688,70.06614685058594 L668.6517333984375,70.68498229980469 L671.757568359375,71.04253387451172 L674.822509765625,71.1819839477539 L677.2088623046875,71.19437408447266 L678.649169921875,71.15658569335938 M693.640625,56.732337951660156 L693.7442626953125,56.372737884521484 L694.1181640625,55.78072738647461 L694.9259033203125,55.026004791259766 L696.2691650390625,54.26982498168945 L698.146728515625,53.60783767700195 L700.4434814453125,53.14638900756836 L702.982421875,52.97581481933594 L705.5365600585938,53.13990783691406 L707.8533935546875,53.610809326171875 L709.668701171875,54.2872200012207 L710.7581787109375,55.06040573120117 L710.9550170898438,55.83589172363281 L710.235595703125,56.5731201171875 L708.7638549804688,57.240196228027344 L706.9005737304688,57.830909729003906 L705.08251953125,58.339073181152344 L703.706787109375,58.78801727294922 L703.0059204101562,59.187355041503906 L703.0449829101562,59.572052001953125 L703.7840576171875,59.94474792480469 L705.1585693359375,60.342506408691406 L707.0687255859375,60.809810638427734 L709.3673095703125,61.40224075317383 L711.8521728515625,62.139076232910156 L714.2675170898438,63.01596450805664 L716.3719482421875,63.94892501831055 L717.9951171875,64.87035369873047 L719.0296630859375,65.7029037475586 L719.440673828125,66.38458251953125 L719.22265625,66.8897476196289 L718.35595703125,67.2074203491211 L716.85205078125,67.33069610595703 L714.7535400390625,67.2776870727539 L712.15673828125,67.06971740722656 L709.2333984375,66.72906494140625 L706.1837158203125,66.30016326904297 L703.2080078125,65.81647491455078 L700.4908447265625,65.29847717285156 L698.154052734375,64.75462341308594 L696.308349609375,64.18730926513672 L695.0177001953125,63.6098518371582 L694.2862548828125,63.06278610229492 L693.990966796875,62.64746856689453 L693.953369140625,62.402305603027344 M720.371826171875,69.88663482666016 L720.4063720703125,69.86489868164062 L720.4266357421875,69.81373596191406 L720.4077758789062,69.74018859863281 L720.3401489257812,69.66107177734375 L720.2632446289062,69.60227966308594 L720.20947265625,69.57649230957031 L720.1908569335938,69.57660675048828 L720.2222900390625,69.5599136352539 L720.3045043945312,69.4687271118164 L720.397705078125,69.3386459350586 L720.4774169921875,69.21337890625 " fill="none" stroke="black" stroke-linecap="round" stroke-width="1" /></svg>