<?xml version="1.0" encoding="utf-8" ?>
<svg baseProfile="full" height="100%" version="1.1" viewBox="0,0,1000,120" width="100%" xmlns="http://www.w3.org/2000/svg" xmlns:ev="http://www.w3.org/2001/xml-events" xmlns:xlink="http://www.w3.org/1999/xlink"><defs /><rect fill="white" height="120" width="1000" x="0" y="0" /><path d="M0,0 M318.1429138183594,49.28227233886719 L318.1391296386719,49.92237854003906 L318.1047058105469,51.06613540649414 L318.03094482421875,52.683956146240234 L317.92822265625,54.60110092163086 L317.8259582519531,56.754364013671875 L317.74346923828125,59.03462600708008 L317.65301513671875,61.33012008666992 L317.534912109375,63.4628791809082 L317.3858337402344,65.24813079833984 L317.2306213378906,66.56109619140625 L317.1131896972656,67.34662628173828 L317.05413818359375,67.69027709960938 M307.4528503417969,45.70362091064453 L307.6730651855469,45.693580627441406 L308.1910095214844,45.68068313598633 L309.1100158691406,45.67697525024414 L310.47747802734375,45.69839859008789 L312.3026123046875,45.76023483276367 L314.5513916015625,45.86148452758789 L317.12066650390625,45.99155807495117 L319.9442443847656,46.111637115478516 L322.8675842285156,46.192569732666016 L325.7122802734375,46.214813232421875 L327.9312438964844,46.20105743408203 L329.2869873046875,46.173370361328125 M333.278076171875,47.35655975341797 L333.170166015625,48.06727600097656 L333.0089111328125,49.30875778198242 L332.82513427734375,51.00297546386719 L332.6738586425781,52.89691925048828 L332.5712890625,54.8916130065918 L332.49676513671875,56.8812255859375 L332.41845703125,58.79216384887695 L332.3251953125,60.48953628540039 L332.2037048339844,61.83928298950195 L332.07525634765625,62.781429290771484 L331.9664306640625,63.3173828125 L331.9002685546875,63.465370178222656 L331.88934326171875,63.26704025268555 L331.959716796875,62.73044967651367 L332.14642333984375,61.86870193481445 L332.5000915527344,60.77506637573242 L333.072021484375,59.5631217956543 L333.89910888671875,58.360496520996094 L334.9761657714844,57.275367736816406 L336.2827453613281,56.37902069091797 L337.7896423339844,55.72799301147461 L339.4209899902344,55.36625289916992 L341.117919921875,55.323280334472656 L342.81097412109375,55.62221145629883 L344.42401123046875,56.234130859375 L345.9057922363281,57.11101150512695 L347.2412109375,58.18547439575195 L348.4043884277344,59.3546257019043 L349.4263916015625,60.530155181884766 L350.33685302734375,61.61673355102539 L351.1547546386719,62.517398834228516 L351.9425048828125,63.10184860229492 L352.743896484375,63.28358459472656 L353.56072998046875,63.039581298828125 L354.2391052246094,62.615623474121094 L354.68365478515625,62.22956466674805 M358.4065246582031,55.630393981933594 L358.3902587890625,56.013572692871094 L358.3659362792969,56.707523345947266 L358.3661193847656,57.6948127746582 L358.42852783203125,58.852909088134766 L358.5719909667969,60.1094856262207 L358.7931213378906,61.376319885253906 L359.04534912109375,62.50739669799805 L359.27008056640625,63.340179443359375 L359.439453125,63.779212951660156 L359.5391540527344,63.8972282409668 L359.579345703125,63.84348678588867 M359.784423828125,49.52315902709961 L359.8035888671875,49.473236083984375 L359.8341979980469,49.428916931152344 L359.86541748046875,49.40254211425781 L359.88641357421875,49.406471252441406 M373.8319396972656,54.41253662109375 L373.4100646972656,54.294944763183594 L372.543212890625,54.17868423461914 L371.2682800292969,54.1376953125 L369.8289794921875,54.24248123168945 L368.5096435546875,54.4710693359375 L367.5675354003906,54.8023796081543 L367.1566162109375,55.21012496948242 L367.3414001464844,55.7000617980957 L368.16131591796875,56.28607940673828 L369.5829772949219,56.972591400146484 L371.488037109375,57.7632942199707 L373.638671875,58.63516616821289 L375.733642578125,59.53629684448242 L377.49505615234375,60.41032409667969 L378.7300720214844,61.19287872314453 L379.3257751464844,61.83192825317383 L379.2502746582031,62.316001892089844 L378.5051574707031,62.608062744140625 L377.14013671875,62.69012451171875 L375.2760314941406,62.56147766113281 L373.0899963378906,62.22640609741211 L370.80145263671875,61.72092819213867 L368.6119689941406,61.098167419433594 L366.71197509765625,60.38164520263672 L365.23638916015625,59.63479232788086 L364.25469970703125,58.92531967163086 L363.7334289550781,58.38423538208008 L363.55035400390625,58.069190979003906 M402.8134460449219,53.060489654541016 L402.74945068359375,53.65177536010742 L402.6507568359375,54.63642120361328 L402.54815673828125,55.91958236694336 L402.49346923828125,57.295745849609375 L402.4962463378906,58.67579650878906 L402.5414123535156,59.9640998840332 L402.59259033203125,60.954132080078125 L402.6244201660156,61.54253005981445 M401.7574768066406,47.53285598754883 M414.95123291015625,56.04829788208008 L414.6097717285156,55.74688720703125 L414.00860595703125,55.32960510253906 L413.3651428222656,54.93764877319336 L412.89678955078125,54.71221923828125 M409.371337890625,55.61693572998047 L409.40948486328125,55.906681060791016 L409.740478515625,56.41529083251953 L410.5467224121094,57.114418029785156 L411.9118347167969,57.90744400024414 L413.6732482910156,58.746070861816406 L415.60369873046875,59.61698532104492 L417.44189453125,60.489173889160156 L418.98590087890625,61.3370361328125 L420.08551025390625,62.12847137451172 L420.66485595703125,62.836727142333984 L420.64373779296875,63.43048858642578 L419.99609375,63.88230514526367 L418.71319580078125,64.11994171142578 L416.86199951171875,64.10748291015625 L414.556640625,63.80369186401367 L411.98834228515625,63.21440124511719 L409.37969970703125,62.39480209350586 L406.9408874511719,61.41456604003906 L404.86370849609375,60.30618667602539 L403.3116455078125,59.139747619628906 L402.32098388671875,57.9813346862793 L401.82342529296875,57.060646057128906 L401.6637268066406,56.49481201171875 M448.98931884765625,55.328121185302734 L448.67919921875,54.975486755371094 L448.0450439453125,54.473514556884766 L447.0406494140625,53.953861236572266 L445.7229919433594,53.609432220458984 L444.1854248046875,53.51714324951172 L442.5447998046875,53.692588806152344 L440.94720458984375,54.13195037841797 L439.5121154785156,54.826698303222656 L438.3352966308594,55.72488784790039 L437.50335693359375,56.76080322265625 L437.112548828125,57.8741455078125 L437.2142028808594,58.96379852294922 L437.8348693847656,59.96348571777344 L438.90899658203125,60.7895622253418 L440.31646728515625,61.35675048828125 L441.935791015625,61.617401123046875 L443.628662109375,61.54343032836914 L445.2695007324219,61.12614440917969 L446.75286865234375,60.405941009521484 L447.9964294433594,59.452362060546875 L448.93890380859375,58.360023498535156 L449.59552001953125,57.26115798950195 L449.99114990234375,56.289337158203125 L450.17901611328125,55.550148010253906 L450.20806884765625,55.14093780517578 L450.13580322265625,55.145896911621094 L449.98980712890625,55.59041976928711 L449.8412170410156,56.47287368774414 L449.7620544433594,57.73468780517578 L449.8255920410156,59.22719955444336 L450.08551025390625,60.808982849121094 L450.6102294921875,62.290252685546875 L451.39300537109375,63.476890563964844 L452.38214111328125,64.24424743652344 L453.2799072265625,64.6156005859375 L453.89251708984375,64.70236206054688 M486.053955078125,56.12858200073242 L485.6522216796875,55.80120849609375 L484.876953125,55.37971878051758 L483.7283020019531,55.01686477661133 L482.3379211425781,54.917049407958984 L480.79583740234375,55.12949752807617 L479.19805908203125,55.65856170654297 L477.6376953125,56.475887298583984 L476.2269287109375,57.55046844482422 L475.09979248046875,58.83059310913086 L474.38385009765625,60.24506759643555 L474.1593017578125,61.70478057861328 L474.44769287109375,63.09132766723633 L475.2130126953125,64.28240203857422 L476.3678894042969,65.16667938232422 L477.8106689453125,65.67997741699219 L479.4295654296875,65.79674530029297 L481.1317138671875,65.53123474121094 L482.81475830078125,64.89361572265625 L484.3987731933594,63.937660217285156 L485.82550048828125,62.64289474487305 L487.04754638671875,61.0578727722168 L488.04083251953125,59.280879974365234 L488.72607421875,57.76371383666992 L489.0989990234375,56.76082229614258 M490.4844665527344,47.668827056884766 L490.41339111328125,47.95477294921875 L490.28582763671875,48.553131103515625 L490.116943359375,49.51869583129883 L489.9365539550781,50.81184005737305 L489.7583312988281,52.39595413208008 L489.58685302734375,54.18989181518555 L489.41729736328125,56.080162048339844 L489.2705078125,57.946407318115234 L489.1898193359375,59.659175872802734 L489.20556640625,61.109580993652344 L489.34381103515625,62.245811462402344 L489.70159912109375,63.01792907714844 L490.3288879394531,63.4146728515625 L491.22552490234375,63.48236083984375 L492.104736328125,63.37128448486328 L492.73907470703125,63.22128677368164 M499.10504150390625,59.324920654296875 L499.68634033203125,59.053279876708984 L500.5843505859375,58.60995864868164 L501.64923095703125,58.02876663208008 L502.5865478515625,57.38672637939453 L503.29266357421875,56.69803237915039 L503.66162109375,55.993953704833984 L503.6534423828125,55.3372688293457 L503.2208251953125,54.80571746826172 L502.38946533203125,54.472198486328125 L501.22930908203125,54.3786735534668 L499.8729248046875,54.558773040771484 L498.46820068359375,55.01030349731445 L497.1881103515625,55.73292541503906 L496.16729736328125,56.67034149169922 L495.51483154296875,57.76883316040039 L495.3109130859375,58.94999313354492 L495.5903625488281,60.145179748535156 L496.36907958984375,61.267364501953125 L497.6233215332031,62.246395111083984 L499.27081298828125,62.9908332824707 L501.18951416015625,63.43589401245117 L503.2508544921875,63.539337158203125 L505.30169677734375,63.320701599121094 L507.2294921875,62.7835693359375 L508.90936279296875,61.9970817565918 L510.2561950683594,61.04915237426758 L511.14892578125,60.215118408203125 L511.61297607421875,59.658233642578125 M512.4251708984375,54.7895622253418 L512.3804321289062,55.32301712036133 L512.2910766601562,56.244873046875 L512.1610107421875,57.4826774597168 L512.0086669921875,58.81990432739258 L511.85272216796875,60.142269134521484 L511.7022399902344,61.32036209106445 L511.5671081542969,62.28408432006836 L511.4349365234375,62.94065475463867 L511.3048095703125,63.23114013671875 L511.18389892578125,63.12709426879883 L511.0960998535156,62.63379669189453 L511.080078125,61.77690887451172 L511.1802978515625,60.64349365234375 L511.41729736328125,59.33195495605469 L511.80255126953125,57.95217514038086 L512.3418579101562,56.61001205444336 L513.0440063476562,55.3963508605957 L513.9215698242188,54.38751983642578 L514.973388671875,53.65607452392578 L516.1690673828125,53.26044464111328 L517.4453735351562,53.216270446777344 L518.7353515625,53.51254653930664 L519.9781494140625,54.10577392578125 L521.1259765625,54.93959045410156 L522.128662109375,55.936466217041016 L522.9349365234375,57.01081848144531 L523.4912719726562,58.04989242553711 L523.7862548828125,58.95384979248047 L523.8482666015625,59.63459777832031 L523.7471923828125,60.03947830200195 L523.5543212890625,60.14519500732422 L523.3447265625,59.94662094116211 L523.1701049804688,59.45338439941406 L523.1004028320312,58.70444869995117 L523.1993408203125,57.76152801513672 L523.5404052734375,56.71341323852539 L524.1723022460938,55.67925262451172 L525.1253051757812,54.76326370239258 L526.3676147460938,54.04586410522461 L527.8446044921875,53.590362548828125 L529.4588623046875,53.424705505371094 L531.1111450195312,53.5526123046875 L532.6940307617188,53.975616455078125 L534.1220092773438,54.66251754760742 L535.3046875,55.551414489746094 L536.2041625976562,56.58122253417969 L536.8287963867188,57.67063903808594 L537.2431640625,58.738582611083984 L537.5208740234375,59.70469665527344 L537.7308959960938,60.49348068237305 L537.8804321289062,61.0361328125 L537.9927978515625,61.28597640991211 L538.08984375,61.249122619628906 L538.2140502929688,60.98797607421875 L538.341064453125,60.67238998413086 L538.4493408203125,60.432247161865234 M549.624267578125,54.01238250732422 L549.405029296875,53.63156509399414 L548.91357421875,53.126686096191406 L548.083251953125,52.66111373901367 L546.9447021484375,52.460079193115234 L545.5726318359375,52.5739860534668 L544.10888671875,52.99905014038086 L542.70263671875,53.665889739990234 L541.5150146484375,54.520042419433594 L540.68408203125,55.48042297363281 L540.330078125,56.486026763916016 L540.5054931640625,57.491554260253906 L541.222900390625,58.44476318359375 L542.42333984375,59.26225280761719 L543.9853515625,59.84360885620117 L545.7501220703125,60.095211029052734 L547.55908203125,59.97615051269531 L549.2351684570312,59.49534606933594 L550.65234375,58.708248138427734 L551.7160034179688,57.69445037841797 L552.331298828125,56.5238151550293 L552.481689453125,55.30537033081055 L552.2354736328125,54.15709686279297 L551.838623046875,53.29076385498047 L551.502197265625,52.78602600097656 M579.7996826171875,53.710044860839844 L578.9912109375,53.64056396484375 L577.6561279296875,53.67457580566406 L575.9845581054688,53.92929458618164 L574.369873046875,54.483673095703125 L573.0118408203125,55.316322326660156 L572.056640625,56.32585144042969 L571.5794067382812,57.43028259277344 L571.6343994140625,58.53487777709961 L572.2548828125,59.55034637451172 L573.40234375,60.379051208496094 L574.9556884765625,60.957977294921875 L576.7394409179688,61.19439697265625 L578.5771484375,61.056800842285156 L580.2857666015625,60.500614166259766 L581.74755859375,59.57176971435547 L582.862060546875,58.36560821533203 L583.56689453125,57.07597351074219 L583.87158203125,55.88467025756836 L583.916259765625,55.030189514160156 L583.845947265625,54.5599365234375 M597.90576171875,51.127174377441406 M597.8384399414062,48.14698791503906 L597.736572265625,47.70176315307617 L597.50634765625,47.03957748413086 L597.120361328125,46.29248046875 L596.5821533203125,45.66610336303711 L595.9129638671875,45.222984313964844 L595.162841796875,45.0 L594.3771362304688,45.01175308227539 L593.6080932617188,45.30303955078125 L592.9058837890625,45.90303421020508 L592.29541015625,46.79938888549805 L591.8010864257812,47.969573974609375 L591.43603515625,49.36967468261719 L591.1956787109375,50.96277618408203 L591.0618896484375,52.70629119873047 L591.0006103515625,54.56416320800781 L590.9681396484375,56.478641510009766 L590.931884765625,58.37215042114258 L590.8770751953125,60.163692474365234 L590.809326171875,61.75333023071289 L590.7339477539062,63.03483581542969 L590.6581420898438,63.937686920166016 L590.5989990234375,64.45150756835938 L590.5596923828125,64.6585922241211 M591.2647705078125,55.791194915771484 M592.378173828125,53.43632888793945 L593.0118408203125,53.3933219909668 L593.7620849609375,53.34930419921875 L594.3935546875,53.31815719604492 M620.8504028320312,51.34585952758789 L620.5960693359375,51.07281494140625 L619.98486328125,50.67906951904297 L618.9456787109375,50.28059387207031 L617.5625610351562,50.03887176513672 L616.026123046875,49.98994827270508 L614.5742797851562,50.127960205078125 L613.4580078125,50.416900634765625 L612.8524780273438,50.83823776245117 L612.880615234375,51.387123107910156 L613.5811157226562,52.05656814575195 L614.8846435546875,52.8249626159668 L616.6334228515625,53.691505432128906 L618.6036376953125,54.651302337646484 L620.5132446289062,55.676048278808594 L622.1312255859375,56.71330261230469 L623.2818603515625,57.691802978515625 L623.846923828125,58.53401184082031 L623.78271484375,59.20574951171875 L623.0819091796875,59.68812942504883 L621.7786865234375,59.97308349609375 L619.9944458007812,60.05634689331055 L617.927001953125,59.94034194946289 L615.7982177734375,59.63469314575195 L613.8843994140625,59.12361145019531 L612.414306640625,58.41790008544922 L611.5127563476562,57.571678161621094 L611.1126708984375,56.82038116455078 L611.0394287109375,56.31519317626953 M630.685302734375,45.52558517456055 L630.66650390625,46.34593200683594 L630.62060546875,47.6969108581543 L630.552978515625,49.455177307128906 L630.4749145507812,51.322418212890625 L630.406982421875,53.21730422973633 L630.353271484375,55.04533004760742 L630.3243408203125,56.75176239013672 L630.307373046875,58.19052505493164 L630.2947998046875,59.2467041015625 L630.2653198242188,59.862911224365234 L630.2285766601562,60.11595153808594 L630.1910400390625,60.143699645996094 M629.0654296875,50.53490447998047 L629.6566162109375,50.359615325927734 L630.5855712890625,50.1169548034668 L631.5250244140625,49.88923263549805 L632.1478881835938,49.75876235961914 M653.7689208984375,50.71235656738281 L653.7372436523438,51.19702911376953 L653.4984741210938,52.091156005859375 L652.9522705078125,53.390052795410156 L652.0651245117188,54.967185974121094 L650.9414672851562,56.75905227661133 L649.68017578125,58.70255661010742 L648.3657836914062,60.71715545654297 L647.03125,62.68557357788086 L645.7440185546875,64.46244049072266 L644.579345703125,65.9251480102539 L643.7278442382812,66.91250610351562 L643.239501953125,67.43133544921875 M644.5419921875,56.2440071105957 L644.9278564453125,56.402095794677734 L645.54931640625,56.78068923950195 L646.3333740234375,57.43422317504883 L647.1739501953125,58.347496032714844 L648.0735473632812,59.42044448852539 L649.0096435546875,60.494407653808594 L649.797119140625,61.3227653503418 L650.3128051757812,61.80731964111328 M661.0407104492188,48.343692779541016 L660.9229736328125,49.105621337890625 L660.7205810546875,50.368953704833984 L660.476318359375,52.00707244873047 L660.2960205078125,53.78820037841797 L660.2561645507812,55.64795684814453 L660.3858642578125,57.480648040771484 L660.5820922851562,58.952552795410156 L660.751708984375,59.870384216308594 M666.4022216796875,57.87022399902344 L666.945556640625,57.913089752197266 L667.9542846679688,57.91791534423828 L669.4052734375,57.81427764892578 L671.10986328125,57.533302307128906 L672.92919921875,57.091766357421875 L674.6890869140625,56.519630432128906 L676.21240234375,55.86503219604492 L677.3485107421875,55.17422103881836 L677.9794921875,54.48004913330078 L678.0445556640625,53.8168830871582 L677.5302734375,53.262325286865234 L676.4680786132812,52.88121032714844 L674.95166015625,52.75492477416992 L673.1497802734375,52.92733383178711 L671.267822265625,53.41740417480469 L669.52978515625,54.19422912597656 L668.123291015625,55.2170524597168 L667.1859130859375,56.41712188720703 L666.82958984375,57.743751525878906 L667.107421875,59.10353469848633 L668.001220703125,60.413902282714844 L669.4517211914062,61.55518341064453 L671.3289794921875,62.44599151611328 L673.5318603515625,62.97835159301758 L675.9146728515625,63.13372802734375 L678.29345703125,62.931026458740234 L680.172119140625,62.591033935546875 L681.328369140625,62.2866096496582 M703.8811645507812,49.63898468017578 M700.2273559570312,51.671504974365234 L699.3750610351562,52.53355026245117 L698.1495361328125,53.95295333862305 L696.866455078125,55.76470947265625 L696.0068359375,57.6047248840332 L695.6901245117188,59.321937561035156 L695.940673828125,60.8391227722168 L696.6793212890625,62.15217590332031 L697.8447265625,63.191123962402344 L699.3199462890625,63.88935852050781 L700.961181640625,64.19499969482422 L702.5865478515625,64.07950592041016 L704.0242919921875,63.5931510925293 L705.149169921875,62.85054016113281 L705.8687744140625,61.97926712036133 L706.1063232421875,61.09044647216797 L705.8807373046875,60.29617691040039 L705.2984619140625,59.665863037109375 L704.6624755859375,59.25647735595703 L704.1970825195312,59.05498504638672 M710.4833984375,66.11510467529297 L710.4842529296875,66.056640625 L710.4994506835938,65.98578643798828 L710.5218505859375,65.92537689208984 L710.5447998046875,65.89826965332031 M713.7691650390625,65.11593627929688 L713.766357421875,65.14558410644531 L713.754150390625,65.1834945678711 L713.7364501953125,65.21772003173828 " fill="none" stroke="black" stroke-linecap="round" stroke-width="1" /></svg>