<?xml version="1.0" encoding="utf-8" ?>
<svg baseProfile="full" height="100%" version="1.1" viewBox="0,0,1000,120" width="100%" xmlns="http://www.w3.org/2000/svg" xmlns:ev="http://www.w3.org/2001/xml-events" xmlns:xlink="http://www.w3.org/1999/xlink"><defs /><rect fill="white" height="120" width="1000" x="0" y="0" /><path d="M0,0 M348.4935302734375,47.75358963012695 L348.5100402832031,47.942623138427734 L348.5686950683594,48.40410232543945 L348.6551513671875,49.2382698059082 L348.72955322265625,50.48067855834961 L348.7518310546875,52.13373565673828 L348.68316650390625,54.15574264526367 L348.5146789550781,56.45195770263672 L348.29376220703125,58.87290954589844 L348.0448303222656,61.26070022583008 L347.7999572753906,63.477787017822266 L347.5919494628906,65.44453430175781 L347.43695068359375,67.0467758178711 L347.3437194824219,68.17493438720703 L347.313232421875,68.73980712890625 L347.3177795410156,68.8727035522461 L347.3344421386719,68.77619171142578 M340.5831298828125,47.16524124145508 L340.7902526855469,47.139137268066406 L341.40667724609375,47.096824645996094 L342.61444091796875,47.02983474731445 L344.4581298828125,46.920448303222656 L346.80731201171875,46.74297332763672 L349.4270324707031,46.50807571411133 L352.0508117675781,46.26191711425781 L354.4881896972656,46.061622619628906 L356.5966796875,45.95151901245117 L358.2987060546875,45.923072814941406 L359.4458923339844,45.937644958496094 L360.0585632324219,45.95939636230469 M360.997802734375,46.674591064453125 L361.0217590332031,46.91633987426758 L361.068115234375,47.463661193847656 L361.0926513671875,48.39448547363281 L361.0325622558594,49.69868087768555 L360.8547058105469,51.339744567871094 L360.5633239746094,53.258243560791016 L360.2096862792969,55.368995666503906 L359.8706970214844,57.56609344482422 L359.5796813964844,59.719661712646484 L359.3357849121094,61.679931640625 L359.1475524902344,63.307212829589844 L359.02227783203125,64.5244140625 L358.9645080566406,65.3045654296875 L358.9549560546875,65.65707397460938 L358.9861145019531,65.58555603027344 L359.0595703125,65.06598663330078 L359.2454833984375,64.08035278320312 L359.63134765625,62.6986083984375 L360.2750244140625,61.060394287109375 L361.1615295410156,59.34049987792969 L362.2366027832031,57.68975067138672 L363.42578125,56.21908187866211 L364.6662902832031,55.00655746459961 L365.8846130371094,54.12582015991211 L367.02630615234375,53.64277648925781 L368.03118896484375,53.59478759765625 L368.86480712890625,53.989009857177734 L369.53173828125,54.818702697753906 L370.0218505859375,56.04619598388672 L370.3062438964844,57.605491638183594 L370.391845703125,59.400901794433594 L370.2856750488281,61.28937911987305 L370.05670166015625,63.101844787597656 L369.82574462890625,64.6796646118164 L369.67724609375,65.90650177001953 L369.67718505859375,66.6627197265625 L369.8522033691406,66.90979766845703 L370.15350341796875,66.6810302734375 L370.4539794921875,66.25019073486328 L370.6732177734375,65.85549926757812 M375.34942626953125,55.70759963989258 L375.36395263671875,55.74706268310547 L375.37896728515625,55.968505859375 L375.3699035644531,56.49402618408203 L375.28717041015625,57.38398361206055 L375.1034240722656,58.576515197753906 L374.8191223144531,59.98133087158203 L374.48321533203125,61.47563552856445 L374.15911865234375,62.91085433959961 L373.89910888671875,64.1413803100586 L373.71038818359375,65.04839324951172 L373.5980224609375,65.5743408203125 L373.539794921875,65.792236328125 M375.3423156738281,48.81182861328125 L375.403076171875,48.75098419189453 L375.57696533203125,48.74723434448242 L375.795166015625,48.79338073730469 L375.9889831542969,48.882232666015625 M388.9886474609375,56.0653076171875 L388.689208984375,55.89250946044922 L388.12188720703125,55.656795501708984 L387.27001953125,55.45268249511719 L386.18963623046875,55.40703201293945 L384.92474365234375,55.556060791015625 L383.5953674316406,55.895877838134766 L382.37127685546875,56.36996078491211 L381.4373474121094,56.92042922973633 L380.941650390625,57.51698684692383 L380.92242431640625,58.15134811401367 L381.35369873046875,58.82603073120117 L382.17706298828125,59.554298400878906 L383.314697265625,60.32778549194336 L384.68426513671875,61.133567810058594 L386.1797790527344,61.9638786315918 L387.6500244140625,62.81300735473633 L388.95269775390625,63.66771697998047 L389.96881103515625,64.50959014892578 L390.61016845703125,65.29730224609375 L390.8548278808594,65.99420166015625 L390.69482421875,66.57456970214844 L390.12860107421875,67.0322265625 L389.1571350097656,67.35673522949219 L387.81658935546875,67.53766632080078 L386.1744384765625,67.55021667480469 L384.3744201660156,67.3900146484375 L382.56488037109375,67.07325744628906 L380.8802490234375,66.62741088867188 L379.42547607421875,66.09886932373047 L378.2839660644531,65.55178833007812 L377.53564453125,65.1099624633789 L377.1605529785156,64.83755493164062 M408.9761047363281,56.78471374511719 L408.97674560546875,56.72336959838867 L408.9931640625,56.74984359741211 L409.02020263671875,56.99888610839844 L409.02716064453125,57.61566162109375 L408.97467041015625,58.63938903808594 L408.818115234375,60.02838897705078 L408.56439208984375,61.661495208740234 L408.29071044921875,63.39086151123047 L408.06878662109375,65.02342987060547 L407.9436950683594,66.39549255371094 L407.90936279296875,67.32725524902344 L407.9157409667969,67.81050109863281 M409.48712158203125,49.8722038269043 L409.500244140625,49.85068893432617 L409.6128234863281,49.91233825683594 L409.7763671875,50.026615142822266 L409.94232177734375,50.16298294067383 M420.9811706542969,57.37397766113281 L420.5561828613281,57.332088470458984 L419.80120849609375,57.307945251464844 L418.7394714355469,57.350685119628906 L417.5238037109375,57.50905990600586 L416.29742431640625,57.78618240356445 L415.2334899902344,58.15962219238281 L414.49530029296875,58.60471725463867 L414.2496643066406,59.111045837402344 L414.55950927734375,59.66310119628906 L415.43133544921875,60.2470588684082 L416.8025817871094,60.83426284790039 L418.53240966796875,61.425262451171875 L420.39111328125,62.038936614990234 L422.15087890625,62.69418716430664 L423.5862731933594,63.38973617553711 L424.57879638671875,64.09542846679688 L425.06256103515625,64.7657699584961 L425.01068115234375,65.37560272216797 L424.37860107421875,65.89627838134766 L423.2000427246094,66.30570220947266 L421.55914306640625,66.57572937011719 L419.63897705078125,66.669189453125 L417.66864013671875,66.58496856689453 L415.85888671875,66.33464813232422 L414.36383056640625,65.96253967285156 L413.2976379394531,65.54786682128906 L412.6784973144531,65.20919799804688 L412.4139404296875,64.99982452392578 M451.0098876953125,58.6286506652832 L450.91668701171875,58.302608489990234 L450.7387390136719,57.79084777832031 L450.42022705078125,57.17626190185547 L449.90740966796875,56.63124084472656 L449.1291809082031,56.25246047973633 L448.0459289550781,56.127769470214844 L446.6646728515625,56.31067657470703 L445.1108703613281,56.852294921875 L443.50103759765625,57.731258392333984 L441.9830627441406,58.905731201171875 L440.6932067871094,60.30681228637695 L439.7364501953125,61.83432388305664 L439.1867980957031,63.37395477294922 L439.1239013671875,64.79385375976562 L439.54913330078125,65.93138885498047 L440.4385070800781,66.6687240600586 L441.713623046875,66.92698669433594 L443.2525329589844,66.68709564208984 L444.912841796875,65.99459075927734 L446.5537109375,64.93194580078125 L448.03955078125,63.6061897277832 L449.29705810546875,62.14888000488281 L450.2879638671875,60.69829177856445 L451.01312255859375,59.40502166748047 L451.4964599609375,58.37138748168945 L451.76995849609375,57.655818939208984 L451.8779296875,57.276397705078125 L451.86944580078125,57.24028778076172 L451.7823486328125,57.57923889160156 L451.64208984375,58.34889221191406 L451.4517822265625,59.52907943725586 L451.24468994140625,61.04204559326172 L451.10137939453125,62.72340774536133 L451.10076904296875,64.38348388671875 L451.3351745605469,65.85945129394531 L451.9413757324219,67.01557159423828 L452.9445495605469,67.76779174804688 L454.29437255859375,68.12106323242188 L455.5650329589844,68.19440460205078 L456.44903564453125,68.13874816894531 M478.34173583984375,60.63853073120117 L478.3359680175781,60.22557830810547 L478.25225830078125,59.565311431884766 L478.0242004394531,58.757991790771484 L477.5960693359375,58.00741195678711 L476.9381103515625,57.416900634765625 L476.013916015625,57.06887435913086 L474.8115234375,57.013240814208984 L473.38433837890625,57.30818557739258 L471.8275146484375,57.97090530395508 L470.29656982421875,58.984840393066406 L468.9447021484375,60.29579544067383 L467.919921875,61.79547119140625 L467.34417724609375,63.342220306396484 L467.3094482421875,64.77944946289062 L467.83428955078125,65.9444580078125 L468.90240478515625,66.69657897949219 L470.42413330078125,66.93962860107422 L472.29779052734375,66.63031005859375 L474.39215087890625,65.77879333496094 L476.567626953125,64.44052124023438 L478.6800537109375,62.701202392578125 L480.60748291015625,60.64965057373047 L482.2397766113281,58.39320373535156 L483.53253173828125,56.05754852294922 L484.478271484375,53.774696350097656 L485.111572265625,51.68910217285156 L485.5001525878906,49.937522888183594 L485.7113037109375,48.60224914550781 L485.7764892578125,47.74226379394531 L485.7225341796875,47.396522521972656 L485.5533447265625,47.58638381958008 L485.2644348144531,48.34304428100586 L484.8924255371094,49.65998840332031 L484.484375,51.44532012939453 L484.0787353515625,53.567115783691406 L483.7125244140625,55.869239807128906 L483.39727783203125,58.18794631958008 L483.15911865234375,60.40269470214844 L483.0250549316406,62.39857482910156 L483.01458740234375,64.04537963867188 L483.13897705078125,65.25631713867188 L483.3697509765625,66.00111389160156 L483.597900390625,66.34767150878906 L483.7663879394531,66.44325256347656 M485.869873046875,63.78471374511719 L485.9405212402344,63.77497100830078 L486.2096862792969,63.7115478515625 L486.779541015625,63.539737701416016 L487.6860046386719,63.2069206237793 L488.8583068847656,62.681339263916016 L490.1788024902344,61.950836181640625 L491.52337646484375,61.0349006652832 L492.78204345703125,59.986839294433594 L493.8468017578125,58.88160705566406 L494.6187438964844,57.803016662597656 L495.01776123046875,56.83766174316406 L495.0069580078125,56.06341552734375 L494.581298828125,55.55647277832031 L493.79046630859375,55.38426208496094 L492.71710205078125,55.60490798950195 L491.48175048828125,56.23271179199219 L490.2237243652344,57.24167251586914 L489.0848388671875,58.558433532714844 L488.1807861328125,60.07081985473633 L487.6221923828125,61.63663101196289 L487.5022888183594,63.119140625 L487.9140930175781,64.38729095458984 L488.8736267089844,65.33887481689453 L490.3375244140625,65.91045379638672 L492.16748046875,66.07878112792969 L494.1600341796875,65.86161804199219 L496.10675048828125,65.3211669921875 L497.88116455078125,64.51759338378906 L499.39794921875,63.50224304199219 L500.65582275390625,62.317115783691406 L501.6580505371094,61.01910400390625 L502.41351318359375,59.69861602783203 L502.9250793457031,58.49826431274414 L503.229736328125,57.52725601196289 L503.36322021484375,56.8282585144043 L503.39508056640625,56.39619064331055 L503.361572265625,56.218997955322266 L503.310546875,56.31147766113281 L503.23455810546875,56.73897171020508 L503.117919921875,57.540618896484375 L502.9290771484375,58.673179626464844 L502.6871032714844,60.04362487792969 L502.41583251953125,61.511512756347656 L502.1934509277344,62.91572189331055 L502.05169677734375,64.12690734863281 L502.005615234375,65.048828125 L502.0362548828125,65.60865783691406 L502.14544677734375,65.77406311035156 L502.33807373046875,65.5186538696289 L502.6561279296875,64.82270812988281 L503.12384033203125,63.7344970703125 L503.74456787109375,62.35627746582031 L504.4967956542969,60.83848571777344 L505.36004638671875,59.35263442993164 L506.2998046875,58.042762756347656 L507.28582763671875,57.00994110107422 L508.2838439941406,56.3438606262207 L509.24395751953125,56.085296630859375 L510.1143493652344,56.25490951538086 L510.84552001953125,56.84139633178711 L511.37078857421875,57.79694366455078 L511.6303405761719,59.031097412109375 L511.62384033203125,60.429203033447266 L511.41082763671875,61.82184600830078 L511.1083679199219,63.055084228515625 L510.8291015625,64.0046615600586 L510.638671875,64.58737182617188 L510.5538330078125,64.75122833251953 L510.59454345703125,64.48603057861328 L510.78125,63.79359817504883 L511.1587829589844,62.74405288696289 L511.7317199707031,61.47209930419922 L512.4764404296875,60.126953125 L513.332763671875,58.83387756347656 L514.2401123046875,57.689762115478516 L515.1414794921875,56.75578308105469 L516.0169677734375,56.08931350708008 L516.8599853515625,55.75127410888672 L517.679931640625,55.79197311401367 L518.4442138671875,56.226219177246094 L519.09765625,57.032867431640625 L519.5830078125,58.149166107177734 L519.8619384765625,59.470176696777344 L519.9777221679688,60.8802490234375 L520.01953125,62.25123596191406 L520.0616455078125,63.45853805541992 L520.1178588867188,64.3212661743164 L520.1787109375,64.80062103271484 M532.0596313476562,57.90742874145508 L532.0404052734375,57.5516471862793 L531.9158935546875,57.04093933105469 L531.5885009765625,56.49935531616211 L530.996337890625,56.134037017822266 L530.1353759765625,56.02267074584961 L529.0335083007812,56.22228240966797 L527.7769165039062,56.747169494628906 L526.4771118164062,57.61345672607422 L525.250244140625,58.77915954589844 L524.2557373046875,60.173545837402344 L523.6470336914062,61.679931640625 L523.531494140625,63.14167785644531 L524.003173828125,64.38605499267578 L525.06494140625,65.26598358154297 L526.6282958984375,65.67632293701172 L528.52880859375,65.5819091796875 L530.5475463867188,65.0147476196289 L532.4261474609375,64.05281829833984 L533.9796142578125,62.81549072265625 L535.0560302734375,61.437381744384766 L535.5986328125,60.05504608154297 L535.6105346679688,58.77314758300781 L535.173095703125,57.674991607666016 L534.4365234375,56.81158447265625 L533.6283569335938,56.20481491088867 L532.9525756835938,55.83617401123047 L532.5374755859375,55.66026306152344 L532.3665161132812,55.60237121582031 M556.3566284179688,58.24983215332031 L556.188232421875,57.95664978027344 L555.8411254882812,57.512237548828125 L555.283203125,57.02064895629883 L554.4957275390625,56.65098190307617 L553.4544677734375,56.48134994506836 L552.1769409179688,56.56603240966797 L550.73779296875,56.92280197143555 L549.2355346679688,57.55818176269531 L547.8125,58.463382720947266 L546.567138671875,59.60035705566406 L545.5936279296875,60.90771484375 L544.9732666015625,62.29507064819336 L544.7734375,63.6470947265625 L545.0440063476562,64.84806060791016 L545.817626953125,65.79264068603516 L547.0635375976562,66.39344787597656 L548.7064208984375,66.5908203125 L550.6267700195312,66.35563659667969 L552.6700439453125,65.7005386352539 L554.6618041992188,64.68766021728516 L556.441650390625,63.41984939575195 L557.8648681640625,62.0146369934082 L558.8394775390625,60.59440994262695 L559.3218994140625,59.27202224731445 L559.3374633789062,58.145870208740234 L558.9547729492188,57.26298522949219 L558.3037109375,56.634437561035156 L557.5546875,56.25901412963867 L556.8910522460938,56.113773345947266 L556.4320678710938,56.16495895385742 L556.201904296875,56.309146881103516 L556.1365356445312,56.44890213012695 M573.0304565429688,50.96750259399414 L573.0457763671875,50.26448059082031 L573.001708984375,49.173912048339844 L572.817626953125,47.886207580566406 L572.4202880859375,46.73735046386719 L571.7860107421875,45.834842681884766 L570.9463500976562,45.249114990234375 L569.9764404296875,45.0 L568.9478759765625,45.150909423828125 L567.923828125,45.764503479003906 L566.9343872070312,46.86830520629883 L565.9775390625,48.44184494018555 L565.0750732421875,50.4339599609375 L564.259765625,52.750118255615234 L563.5638427734375,55.2904052734375 L563.0297241210938,57.963863372802734 L562.656494140625,60.65306091308594 L562.4039916992188,63.227455139160156 L562.24951171875,65.56023406982422 L562.1781005859375,67.53367614746094 L562.183837890625,69.00215148925781 L562.267578125,69.87332916259766 L562.406494140625,70.13117980957031 L562.5369873046875,70.00931549072266 L562.6243896484375,69.76387023925781 M560.348876953125,58.693477630615234 L560.6282958984375,58.6846923828125 L561.2760620117188,58.6787109375 L562.3546142578125,58.67007827758789 L563.8668212890625,58.64922332763672 L565.6947631835938,58.600067138671875 L567.6603393554688,58.528812408447266 L569.2827758789062,58.46133041381836 L570.31591796875,58.41758728027344 M592.3570556640625,55.64872741699219 L592.203369140625,55.36899185180664 L591.7737426757812,54.954856872558594 L590.949462890625,54.52079391479492 L589.6953125,54.23566818237305 L588.0927734375,54.15811538696289 L586.3124389648438,54.30251693725586 L584.5714721679688,54.60924530029297 L583.1104736328125,55.0416145324707 L582.1331787109375,55.57528305053711 L581.763671875,56.19023132324219 L582.0573120117188,56.8793830871582 L582.9771728515625,57.631919860839844 L584.3973388671875,58.41466522216797 L586.162841796875,59.21373748779297 L588.088134765625,60.016624450683594 L589.9826049804688,60.8135871887207 L591.6890869140625,61.609535217285156 L593.0743408203125,62.39609909057617 L594.038330078125,63.16643142700195 L594.539306640625,63.908447265625 L594.5418090820312,64.60232543945312 L594.0343017578125,65.22809600830078 L593.010009765625,65.76355743408203 L591.5003662109375,66.17559814453125 L589.6002807617188,66.452392578125 L587.4638671875,66.56620788574219 L585.2530517578125,66.51775360107422 L583.1723022460938,66.284912109375 L581.4005126953125,65.87340545654297 L580.0823364257812,65.31793212890625 L579.29296875,64.80494689941406 L578.9500732421875,64.4461898803711 M599.4393310546875,46.107688903808594 L599.5845947265625,45.985313415527344 L599.786865234375,45.93400192260742 L599.985107421875,46.09919738769531 L600.083251953125,46.624473571777344 L600.04638671875,47.53434753417969 L599.8499145507812,48.813865661621094 L599.5042724609375,50.42861557006836 L599.036865234375,52.345489501953125 L598.4935302734375,54.50080108642578 L597.9249267578125,56.79779052734375 L597.383544921875,59.1140022277832 L596.9249267578125,61.30635452270508 L596.5999755859375,63.22482681274414 L596.4344482421875,64.75019836425781 L596.391845703125,65.7487564086914 L596.4126586914062,66.25294494628906 M595.1690673828125,56.995121002197266 L595.145751953125,56.7124137878418 L595.220703125,56.350563049316406 L595.513427734375,56.0185432434082 L596.180419921875,55.85951614379883 L597.2864990234375,55.85857391357422 L598.822265625,55.95631408691406 L600.669921875,56.063743591308594 L602.6864013671875,56.124027252197266 L604.6636352539062,56.08286666870117 L606.4600830078125,55.93899154663086 L607.7805786132812,55.76768493652344 L608.54345703125,55.63265609741211 M608.4029541015625,54.893428802490234 L608.3592529296875,55.08014678955078 L608.312744140625,55.49674606323242 L608.2901611328125,56.18696975708008 L608.3272705078125,57.10053253173828 L608.4622192382812,58.15873336791992 L608.7041015625,59.258888244628906 L609.0718994140625,60.30091094970703 L609.583740234375,61.193111419677734 L610.2508544921875,61.846435546875 L611.0877075195312,62.17797088623047 L612.1058349609375,62.1346435546875 L613.2920532226562,61.71809005737305 L614.6089477539062,60.97488784790039 L615.9633178710938,59.99445724487305 L617.24951171875,58.875587463378906 L618.35791015625,57.75230407714844 L619.1936645507812,56.75465774536133 L619.7393798828125,55.97968292236328 L620.028564453125,55.481529235839844 L620.101318359375,55.291893005371094 L619.995849609375,55.42729949951172 L619.7177734375,55.95748519897461 L619.2595825195312,56.95897674560547 L618.646728515625,58.43313980102539 L617.9293212890625,60.33784484863281 L617.1466064453125,62.59708786010742 L616.319091796875,65.11563873291016 L615.455810546875,67.81429290771484 L614.5701904296875,70.60933685302734 L613.6893310546875,73.37417602539062 L612.8689575195312,75.97554779052734 L612.1333618164062,78.28106689453125 L611.4678955078125,80.16584014892578 L610.8246459960938,81.54450225830078 L610.1419677734375,82.38062286376953 L609.370849609375,82.67227935791016 L608.54443359375,82.44659423828125 L607.7177734375,81.74552154541016 L606.9747314453125,80.63716888427734 L606.46533203125,79.10035705566406 L606.3056030273438,77.19558715820312 L606.5396728515625,75.048095703125 L606.9608764648438,73.2054672241211 L607.3502197265625,71.99016571044922 M624.368896484375,46.23601150512695 L624.440185546875,46.45841979980469 L624.5045776367188,46.97684860229492 L624.499267578125,47.88149642944336 L624.350341796875,49.184814453125 L624.0540161132812,50.869327545166016 L623.6396484375,52.868858337402344 L623.1715698242188,55.0938835144043 L622.7156982421875,57.428165435791016 L622.34423828125,59.734344482421875 L622.0862426757812,61.86359405517578 L621.9781494140625,63.684757232666016 L622.054443359375,65.06856536865234 L622.350830078125,65.9186019897461 L622.9121704101562,66.18077087402344 L623.7617797851562,65.84871673583984 L624.8660278320312,64.97320556640625 L626.152099609375,63.681453704833984 L627.510009765625,62.11394119262695 L628.8123168945312,60.432682037353516 L629.9525146484375,58.79326248168945 L630.830322265625,57.316410064697266 L631.400634765625,56.08238220214844 L631.6468505859375,55.143463134765625 L631.5792236328125,54.526824951171875 L631.2166748046875,54.26650619506836 L630.5858154296875,54.40340042114258 L629.7333984375,54.96165466308594 L628.7503051757812,55.91715621948242 L627.7747802734375,57.186309814453125 L626.9830322265625,58.659767150878906 L626.5260009765625,60.19937515258789 L626.615478515625,61.65912628173828 L627.3555297851562,62.897315979003906 L628.6973266601562,63.807579040527344 L630.09228515625,64.34244537353516 L631.131103515625,64.57337951660156 M649.69677734375,64.25997161865234 L650.06640625,63.90409851074219 L650.75732421875,63.189998626708984 L651.76318359375,62.09069061279297 L652.9796142578125,60.70207595825195 L654.3260498046875,59.103363037109375 L655.7244873046875,57.3666877746582 L657.123291015625,55.559295654296875 L658.482177734375,53.77091598510742 L659.7525634765625,52.1001091003418 L660.8944091796875,50.66764450073242 L661.8301391601562,49.55671691894531 L662.49658203125,48.82417678833008 L662.8585815429688,48.495418548583984 L662.9295654296875,48.60774230957031 L662.708984375,49.18671417236328 L662.2288818359375,50.26258850097656 L661.533935546875,51.7994384765625 L660.7012329101562,53.71009826660156 L659.82666015625,55.84028244018555 L659.0333251953125,58.03203582763672 L658.3909912109375,60.124263763427734 L657.9443359375,61.98374938964844 L657.692138671875,63.50889587402344 L657.616455078125,64.58946990966797 L657.6701049804688,65.15930938720703 L657.828125,65.2410888671875 L658.0006713867188,65.05353546142578 L658.1337890625,64.80760192871094 M662.2523803710938,62.925811767578125 L662.2607421875,62.92232894897461 L662.2813720703125,62.903804779052734 L662.314208984375,62.87016677856445 L662.353271484375,62.82624816894531 L662.3900146484375,62.792510986328125 L662.4156494140625,62.76897048950195 L662.4342041015625,62.75483703613281 L662.455810546875,62.75373077392578 L662.4860229492188,62.7670783996582 L662.523193359375,62.79508590698242 L662.55859375,62.82953643798828 L662.5750732421875,62.852935791015625 L662.5740966796875,62.86393737792969 L662.568115234375,62.87608337402344 L662.563720703125,62.8897590637207 L662.5650024414062,62.90709686279297 M690.4776611328125,56.37961196899414 L690.5335693359375,56.33619689941406 L690.616455078125,56.248416900634766 L690.6728515625,56.12287521362305 L690.5939331054688,55.97711944580078 L690.2666015625,55.8504524230957 L689.604736328125,55.76314163208008 L688.5614013671875,55.730377197265625 L687.161865234375,55.77649688720703 L685.4487915039062,55.91950225830078 L683.4937133789062,56.166805267333984 L681.4127807617188,56.540489196777344 L679.3367919921875,57.027957916259766 L677.408935546875,57.62757110595703 L675.78076171875,58.35634994506836 L674.5408935546875,59.20392608642578 L673.7520751953125,60.15293884277344 L673.4608154296875,61.16346740722656 L673.6927490234375,62.15937042236328 L674.4605712890625,63.064369201660156 L675.748046875,63.808685302734375 L677.506591796875,64.3138427734375 L679.6312866210938,64.52889251708984 L681.984619140625,64.41211700439453 L684.4285888671875,63.926185607910156 L686.844970703125,63.056610107421875 L689.1409301757812,61.803436279296875 L691.277099609375,60.20566177368164 L693.2030029296875,58.34198760986328 L694.8563232421875,56.311500549316406 L696.2017822265625,54.21900177001953 L697.23095703125,52.17332077026367 L697.9541015625,50.298091888427734 L698.43603515625,48.71870803833008 L698.7246704101562,47.53751754760742 L698.833251953125,46.839141845703125 L698.7555541992188,46.690040588378906 L698.4577026367188,47.12969207763672 L697.9054565429688,48.20097351074219 L697.0852661132812,50.0980110168457 L696.2782592773438,52.09331512451172 L695.6845703125,53.65229034423828 " fill="none" stroke="black" stroke-linecap="round" stroke-width="1" /></svg>