<?xml version="1.0" encoding="utf-8" ?>
<svg baseProfile="full" height="100%" version="1.1" viewBox="0,0,1000,120" width="100%" xmlns="http://www.w3.org/2000/svg" xmlns:ev="http://www.w3.org/2001/xml-events" xmlns:xlink="http://www.w3.org/1999/xlink"><defs /><rect fill="white" height="120" width="1000" x="0" y="0" /><path d="M0,0 M386.75860595703125,54.502506256103516 L386.7690124511719,54.759498596191406 L386.7684326171875,55.42308807373047 L386.73931884765625,56.65238571166992 L386.6524658203125,58.474361419677734 L386.5018615722656,60.808982849121094 L386.2652587890625,63.478431701660156 L385.934814453125,66.2582778930664 L385.56890869140625,68.92598724365234 L385.23785400390625,71.29246520996094 L385.003173828125,73.2187271118164 L384.9037780761719,74.6743392944336 L384.90521240234375,75.56543731689453 L384.9390563964844,75.84614562988281 L384.9784851074219,75.5264892578125 L385.0003967285156,74.94156646728516 L385.0063171386719,74.3914566040039 M380.90869140625,51.884849548339844 L381.1034240722656,51.779197692871094 L381.630126953125,51.571258544921875 L382.6114196777344,51.26167678833008 L384.0187072753906,50.865272521972656 L385.7100524902344,50.38241958618164 L387.47552490234375,49.840087890625 L389.1237487792969,49.27803039550781 L390.5382995605469,48.761085510253906 L391.6818542480469,48.36378479003906 L392.533203125,48.16073226928711 L393.1097412109375,48.2373046875 L393.410400390625,48.714420318603516 L393.4429931640625,49.715389251708984 L393.251220703125,51.33485794067383 L392.9079895019531,53.54963684082031 L392.48199462890625,56.241634368896484 L392.04156494140625,59.194820404052734 L391.6314697265625,62.18247985839844 L391.2807312011719,65.00159454345703 L391.0205078125,67.47859954833984 L390.8826599121094,69.47490692138672 L390.8548889160156,70.9354476928711 L390.8937683105469,71.84690856933594 L390.9516296386719,72.21745300292969 L391.021484375,72.02314758300781 L391.1551513671875,71.17337799072266 L391.45977783203125,69.63016510009766 L392.0340576171875,67.52986145019531 L392.9198303222656,65.16255187988281 L394.0739440917969,62.870460510253906 L395.41143798828125,60.940608978271484 L396.8067932128906,59.52820587158203 L398.12860107421875,58.692726135253906 L399.2659912109375,58.47849655151367 L400.1400146484375,58.90599060058594 L400.6976318359375,59.95521545410156 L400.94427490234375,61.55540466308594 L400.92340087890625,63.57175064086914 L400.7061767578125,65.8038558959961 L400.39801025390625,68.05024719238281 L400.1095275878906,70.1064453125 L399.900390625,71.80250549316406 L399.7920227050781,73.04742431640625 L399.80975341796875,73.71476745605469 L399.946044921875,73.7486801147461 L400.20001220703125,73.19945526123047 L400.4744873046875,72.4522705078125 L400.68365478515625,71.8235855102539 M406.7002868652344,58.72557067871094 L406.7618713378906,58.7334098815918 L406.82135009765625,58.946510314941406 L406.8339538574219,59.56842803955078 L406.74560546875,60.77357482910156 L406.5570983886719,62.56979751586914 L406.2732849121094,64.81290435791016 L405.94708251953125,67.26167297363281 L405.64697265625,69.60834503173828 L405.4453125,71.5862045288086 L405.3697509765625,73.03459167480469 L405.4244689941406,73.90142822265625 L405.580078125,74.0790023803711 L405.810546875,73.55966186523438 L406.09844970703125,72.37672424316406 L406.3630676269531,71.06522369384766 L406.54376220703125,70.0478515625 M408.48150634765625,51.21272277832031 L408.4705810546875,51.17376708984375 L408.4599914550781,51.18689727783203 L408.46533203125,51.29261016845703 L408.5483093261719,51.500091552734375 L408.74615478515625,51.73650360107422 L409.093017578125,51.942649841308594 L409.45880126953125,52.07288360595703 L409.7381286621094,52.1340217590332 M417.3089904785156,57.629371643066406 L417.13653564453125,57.469112396240234 L416.7857666015625,57.23622512817383 L416.224853515625,57.01876449584961 L415.4888916015625,56.96842575073242 L414.6249084472656,57.182640075683594 L413.70941162109375,57.71318054199219 L412.8636474609375,58.541778564453125 L412.250244140625,59.62102127075195 L412.00531005859375,60.88105773925781 L412.20904541015625,62.27094268798828 L412.8486022949219,63.73729705810547 L413.8150329589844,65.24079132080078 L414.9451599121094,66.73462677001953 L416.05792236328125,68.15772247314453 L416.997802734375,69.44068908691406 L417.6388244628906,70.53618621826172 L417.9129333496094,71.41903686523438 L417.7890930175781,72.11906433105469 L417.2835693359375,72.6871109008789 L416.4283142089844,73.14913940429688 L415.3179626464844,73.49601745605469 L414.0701904296875,73.69004821777344 L412.82373046875,73.6985092163086 L411.7237243652344,73.5058364868164 L410.89654541015625,73.14571380615234 L410.3929748535156,72.68211364746094 L410.1721496582031,72.2680435180664 L410.1300048828125,71.99201965332031 M433.94989013671875,57.87928009033203 L433.9652099609375,57.85792922973633 L434.0085754394531,58.01908874511719 L434.09393310546875,58.549720764160156 L434.20245361328125,59.592811584472656 L434.2935791015625,61.13128662109375 L434.3038330078125,63.05644226074219 L434.2084655761719,65.20072174072266 L434.0177001953125,67.3716049194336 L433.7937316894531,69.37745666503906 L433.5938720703125,71.04146575927734 L433.4649353027344,72.2745361328125 L433.41058349609375,72.98843383789062 L433.42791748046875,73.18119812011719 L433.4948425292969,72.90667724609375 L433.5721435546875,72.44722747802734 L433.6297302246094,72.0285415649414 M435.4989013671875,51.1010627746582 L435.4693603515625,51.04021453857422 L435.43798828125,50.980628967285156 L435.41644287109375,50.94389343261719 L435.4173583984375,50.960670471191406 L435.43994140625,51.022666931152344 L435.48016357421875,51.12605285644531 L435.5177917480469,51.227447509765625 L435.5480041503906,51.308082580566406 M444.78436279296875,55.592994689941406 L444.7142028808594,55.34334182739258 L444.5484619140625,54.97188186645508 L444.2433166503906,54.58499526977539 L443.77276611328125,54.35424041748047 L443.141845703125,54.388275146484375 L442.38226318359375,54.763145446777344 L441.60284423828125,55.50511169433594 L440.950927734375,56.60763168334961 L440.5748291015625,58.01266860961914 L440.5718078613281,59.62361145019531 L440.95880126953125,61.34134292602539 L441.6458740234375,63.07782745361328 L442.49298095703125,64.77110290527344 L443.31719970703125,66.3792953491211 L443.95623779296875,67.86571502685547 L444.279052734375,69.20340728759766 L444.2188720703125,70.36949157714844 L443.7558898925781,71.33650970458984 L442.93817138671875,72.0903091430664 L441.85516357421875,72.61771392822266 L440.6533203125,72.92145538330078 L439.4652099609375,73.0110855102539 L438.4132080078125,72.90885925292969 L437.57763671875,72.63949584960938 L436.99224853515625,72.26827239990234 L436.653564453125,71.87064361572266 L436.513916015625,71.55891418457031 L436.48779296875,71.37747955322266 M465.3395690917969,58.72843933105469 L465.23291015625,58.480369567871094 L465.025634765625,58.08418655395508 L464.690185546875,57.61226272583008 L464.2176513671875,57.21042251586914 L463.57769775390625,56.982337951660156 L462.7629699707031,57.035133361816406 L461.7650146484375,57.45991516113281 L460.62420654296875,58.3560791015625 L459.3858642578125,59.78439712524414 L458.150634765625,61.731056213378906 L457.054443359375,64.06710052490234 L456.2436828613281,66.52726745605469 L455.8188171386719,68.78553009033203 L455.81488037109375,70.5647201538086 L456.1646728515625,71.6987075805664 L456.7738037109375,72.1358871459961 L457.56787109375,71.87953186035156 L458.5069580078125,70.92588806152344 L459.5577392578125,69.30672454833984 L460.6959228515625,67.15792083740234 L461.8432922363281,64.71074676513672 L462.9049072265625,62.26664352416992 L463.8000183105469,60.114288330078125 L464.4911193847656,58.42388153076172 L464.955322265625,57.24945831298828 L465.21148681640625,56.606109619140625 L465.2681884765625,56.50691604614258 L465.15325927734375,57.019508361816406 L464.8908386230469,58.22067642211914 L464.54248046875,60.071495056152344 L464.1894836425781,62.370975494384766 L463.92962646484375,64.8185043334961 L463.83428955078125,67.0938949584961 L463.9493713378906,68.96825408935547 L464.25433349609375,70.35958099365234 L464.7226867675781,71.1852798461914 L465.30926513671875,71.42428588867188 L465.96826171875,71.113525390625 L466.52740478515625,70.57290649414062 L466.89581298828125,70.07884979248047 M482.1967468261719,58.12517547607422 L482.2294921875,57.76905822753906 L482.25640869140625,57.155391693115234 L482.2333679199219,56.33491516113281 L482.0904541015625,55.4599609375 L481.7845458984375,54.62704086303711 L481.28717041015625,53.95707702636719 L480.6164245605469,53.573707580566406 L479.7969665527344,53.623905181884766 L478.86444091796875,54.23497009277344 L477.8522033691406,55.490116119384766 L476.80767822265625,57.386470794677734 L475.80859375,59.81202697753906 L474.978271484375,62.51911926269531 L474.4306640625,65.1824722290039 L474.2386169433594,67.47256469726562 L474.4071960449219,69.16641235351562 L474.8758544921875,70.17463684082031 L475.5728759765625,70.49726867675781 L476.43951416015625,70.13137817382812 L477.43353271484375,69.05655670166016 L478.50933837890625,67.2665786743164 L479.6105041503906,64.85555267333984 L480.6924743652344,62.03919219970703 L481.73175048828125,59.09709167480469 L482.70367431640625,56.29273223876953 L483.5863037109375,53.84381103515625 L484.32598876953125,51.89384841918945 L484.873779296875,50.487945556640625 L485.2038879394531,49.628089904785156 L485.32086181640625,49.312705993652344 L485.24102783203125,49.5820198059082 L484.9820861816406,50.55127716064453 L484.54583740234375,52.31363296508789 L483.9818115234375,54.78954315185547 L483.3595275878906,57.75343322753906 L482.7655944824219,60.8809928894043 L482.27679443359375,63.85429382324219 L481.94189453125,66.45011901855469 L481.770751953125,68.53502655029297 L481.7513427734375,70.03277587890625 L481.83660888671875,70.95984649658203 L481.96209716796875,71.40798950195312 L482.0643310546875,71.54701232910156 L482.119384765625,71.54460906982422 M484.55523681640625,64.43574523925781 L484.6684875488281,64.42513275146484 L484.97955322265625,64.2848892211914 L485.5546569824219,63.890010833740234 L486.38311767578125,63.14841079711914 L487.4015808105469,62.07593536376953 L488.51153564453125,60.761165618896484 L489.61090087890625,59.34056854248047 L490.5936584472656,57.93116760253906 L491.3719787597656,56.625030517578125 L491.84832763671875,55.485313415527344 L491.9658203125,54.59400177001953 L491.6756591796875,54.02508544921875 L490.9754943847656,53.877166748046875 L489.9072265625,54.26065444946289 L488.5863342285156,55.262046813964844 L487.16583251953125,56.890140533447266 L485.8396301269531,59.06063461303711 L484.78515625,61.550254821777344 L484.14556884765625,64.0658950805664 L483.99468994140625,66.31481170654297 L484.3405456542969,68.05603790283203 L485.1309814453125,69.162109375 L486.2760314941406,69.60713958740234 L487.6773681640625,69.41907501220703 L489.2273864746094,68.66218566894531 L490.814453125,67.41246795654297 L492.33868408203125,65.75372314453125 L493.7176513671875,63.803733825683594 L494.8991394042969,61.71583557128906 L495.8693542480469,59.685482025146484 L496.62652587890625,57.9161491394043 L497.18890380859375,56.547298431396484 L497.56787109375,55.67237854003906 L497.783935546875,55.35331344604492 L497.8472900390625,55.649349212646484 L497.76275634765625,56.632362365722656 L497.5282287597656,58.30427551269531 L497.17510986328125,60.4991455078125 L496.7511901855469,62.95009994506836 L496.3453063964844,65.32261657714844 L496.0133056640625,67.31389617919922 L495.79095458984375,68.78379821777344 L495.6734619140625,69.7146224975586 L495.6436767578125,70.11869049072266 L495.68701171875,69.98886108398438 L495.82965087890625,69.2427749633789 L496.1014709472656,67.79852294921875 L496.5799560546875,65.7535629272461 L497.3311767578125,63.3583869934082 L498.39288330078125,60.93341827392578 L499.7374267578125,58.7601432800293 L501.2821350097656,57.01478576660156 L502.88818359375,55.77527618408203 L504.4324951171875,55.111083984375 L505.78497314453125,55.071475982666016 L506.8562927246094,55.68584060668945 L507.5860595703125,56.935569763183594 L507.96026611328125,58.7455940246582 L508.0064697265625,60.956703186035156 L507.8122253417969,63.3451042175293 L507.4646911621094,65.65052795410156 L507.06414794921875,67.63457489013672 L506.7028503417969,69.14546203613281 L506.4273681640625,70.14827728271484 L506.25445556640625,70.65646362304688 L506.1982421875,70.66040802001953 L506.27032470703125,70.09324645996094 L506.51708984375,68.86881256103516 L507.0206298828125,66.99920654296875 L507.83160400390625,64.6614990234375 L508.9555358886719,62.13502502441406 L510.35858154296875,59.73122024536133 L511.9261474609375,57.69563674926758 L513.4984130859375,56.1697883605957 L514.9166870117188,55.21876525878906 L516.05078125,54.88435363769531 L516.83642578125,55.192718505859375 L517.288330078125,56.167747497558594 L517.4248046875,57.7586555480957 L517.28076171875,59.80974578857422 L516.91943359375,62.07727813720703 L516.4412231445312,64.29721069335938 L515.9766845703125,66.24259185791016 L515.6331787109375,67.77059173583984 L515.4511108398438,68.8216552734375 L515.4088134765625,69.42781066894531 L515.436279296875,69.69589233398438 L515.4754638671875,69.76808166503906 M526.4779052734375,56.27740478515625 L526.5240478515625,55.903018951416016 L526.5050659179688,55.36378860473633 L526.3333740234375,54.80632019042969 L525.9183959960938,54.45766067504883 L525.2332763671875,54.425193786621094 L524.29443359375,54.83041763305664 L523.156005859375,55.763816833496094 L521.936767578125,57.284210205078125 L520.7869262695312,59.35222625732422 L519.8534545898438,61.78328323364258 L519.242431640625,64.28834533691406 L519.0075073242188,66.56261444091797 L519.1296997070312,68.35897064208984 L519.5667724609375,69.5513687133789 L520.2469482421875,70.11514282226562 L521.087646484375,70.05192565917969 L522.0037231445312,69.35747528076172 L522.90576171875,68.02384185791016 L523.7288208007812,66.11688995361328 L524.4592895507812,63.83474349975586 L525.1273193359375,61.46562957763672 L525.7744140625,59.28733444213867 L526.4281616210938,57.482444763183594 L527.0685424804688,56.09297180175781 L527.67236328125,55.087215423583984 L528.2198486328125,54.40870666503906 L528.7018432617188,54.01145935058594 L529.1141357421875,53.86088943481445 L529.4483032226562,53.91057205200195 L529.6907958984375,54.11714553833008 L529.8294677734375,54.47063446044922 L529.83544921875,54.973793029785156 L529.6885986328125,55.646202087402344 L529.3970947265625,56.48898696899414 L528.9947509765625,57.45281982421875 L528.5496826171875,58.473567962646484 L528.1298828125,59.500328063964844 L527.7752075195312,60.491092681884766 L527.5126953125,61.4321403503418 L527.3576049804688,62.29436111450195 L527.3120727539062,63.03863525390625 L527.3709106445312,63.6358757019043 L527.5157470703125,64.0671157836914 L527.7176513671875,64.33381652832031 L527.9583740234375,64.44908905029297 L528.2071533203125,64.4213638305664 L528.4507446289062,64.27173614501953 L528.712890625,63.992103576660156 L529.0087890625,63.57609176635742 L529.3568725585938,63.049415588378906 L529.677978515625,62.56443405151367 L529.9008178710938,62.22563552856445 M543.0872802734375,56.156700134277344 L543.0174560546875,55.89915466308594 L542.9139404296875,55.522674560546875 L542.776611328125,55.11825180053711 L542.6092529296875,54.833580017089844 L542.3598022460938,54.73859786987305 L541.9829711914062,54.90260696411133 L541.4485473632812,55.41181182861328 L540.7891235351562,56.367164611816406 L540.0589599609375,57.81616973876953 L539.3555297851562,59.717315673828125 L538.762939453125,61.91792297363281 L538.3668823242188,64.18829345703125 L538.2346801757812,66.27969360351562 L538.414794921875,67.9891128540039 L538.9010009765625,69.17181396484375 L539.6655883789062,69.75366973876953 L540.6491088867188,69.70338439941406 L541.77783203125,69.02153015136719 L542.9636840820312,67.7331771850586 L544.0912475585938,65.93521118164062 L545.0277709960938,63.800018310546875 L545.6743774414062,61.574588775634766 L545.9693603515625,59.52373123168945 L545.918212890625,57.859642028808594 L545.5714721679688,56.66611099243164 L545.0162353515625,55.90480422973633 L544.3692016601562,55.473331451416016 L543.76806640625,55.25971984863281 L543.328369140625,55.17816925048828 L543.1412963867188,55.17473602294922 L543.2582397460938,55.2041015625 L543.7069702148438,55.207332611083984 L544.4865112304688,55.114986419677734 L545.5592041015625,54.85182189941406 L546.8658447265625,54.352664947509766 L548.301025390625,53.58561325073242 L549.7593383789062,52.56496810913086 L551.1482543945312,51.337528228759766 L552.395751953125,49.97150421142578 L553.4412841796875,48.57343292236328 L554.2646484375,47.26847457885742 L554.828369140625,46.17619323730469 L555.108154296875,45.394325256347656 L555.0879516601562,45.0 L554.7724609375,45.06501770019531 L554.183349609375,45.69350051879883 L553.3925170898438,46.977317810058594 L552.491943359375,48.94654846191406 L551.576904296875,51.52753448486328 L550.7459106445312,54.56902313232422 L550.072509765625,57.88523483276367 L549.5831298828125,61.3029899597168 L549.2784423828125,64.6834716796875 L549.130126953125,67.92393493652344 L549.1029663085938,70.90953826904297 L549.181396484375,73.49474334716797 L549.3433227539062,75.52867889404297 L549.55126953125,76.92293548583984 L549.7578735351562,77.71360778808594 L549.9102172851562,77.90816497802734 L549.987060546875,77.56383514404297 L550.0005493164062,76.71925354003906 L549.9825439453125,75.76309204101562 L549.9616088867188,75.00296783447266 M546.655029296875,64.66441345214844 L546.6319580078125,64.62059020996094 L546.76611328125,64.53559875488281 L547.201904296875,64.39239501953125 L548.04296875,64.16058349609375 L549.253662109375,63.80166244506836 L550.7374267578125,63.30894470214844 L552.352783203125,62.72242736816406 L553.9765014648438,62.08406448364258 L555.48095703125,61.46138000488281 L556.7761840820312,60.89570617675781 L557.6910400390625,60.475833892822266 L558.2020263671875,60.22881317138672 M572.5450439453125,55.234188079833984 L572.3694458007812,54.97025680541992 L572.0433349609375,54.56242752075195 L571.55615234375,54.10169982910156 L570.9293823242188,53.76534652709961 L570.1642456054688,53.665313720703125 L569.2806396484375,53.88211441040039 L568.369140625,54.435787200927734 L567.569580078125,55.3167610168457 L567.0318603515625,56.46812438964844 L566.8782958984375,57.8177375793457 L567.1485595703125,59.29356002807617 L567.7830810546875,60.826255798339844 L568.6708984375,62.36289978027344 L569.66552734375,63.87285614013672 L570.589599609375,65.31788635253906 L571.3053588867188,66.64732360839844 L571.6981811523438,67.82264709472656 L571.7044677734375,68.82525634765625 L571.335693359375,69.65833282470703 L570.6541748046875,70.33573913574219 L569.7333374023438,70.8390884399414 L568.682861328125,71.11289978027344 L567.6139526367188,71.11128234863281 L566.6314086914062,70.81869506835938 L565.8446655273438,70.25689697265625 L565.334716796875,69.46311950683594 L565.1377563476562,68.47853088378906 L565.3138427734375,67.26093292236328 L565.8570556640625,65.82837677001953 L566.6903076171875,64.25334167480469 L567.5029296875,62.91918182373047 L568.0802001953125,62.04867935180664 M579.0770263671875,50.07903289794922 L579.099365234375,50.080650329589844 L579.1350708007812,50.243900299072266 L579.1680908203125,50.733978271484375 L579.1495971679688,51.67719650268555 L579.0477905273438,53.0994758605957 L578.8446044921875,54.969783782958984 L578.5441284179688,57.19445037841797 L578.1998291015625,59.670440673828125 L577.8712768554688,62.282264709472656 L577.5867919921875,64.86866760253906 L577.3893432617188,67.26648712158203 L577.2940673828125,69.29862976074219 L577.2850952148438,70.8128662109375 L577.3388671875,71.76024627685547 L577.4092407226562,72.21784973144531 L577.454833984375,72.35031127929688 M575.1670532226562,59.66059875488281 L575.2324829101562,59.60319900512695 L575.4435424804688,59.554649353027344 L575.865234375,59.52342987060547 L576.534423828125,59.47271728515625 L577.4263305664062,59.28738784790039 L578.49609375,58.8701171875 L579.6876220703125,58.183311462402344 L580.9342651367188,57.31546401977539 L582.128173828125,56.41791915893555 L583.1583251953125,55.620338439941406 L583.9063720703125,55.0475959777832 L584.294677734375,54.81652069091797 L584.3093872070312,55.02635192871094 L583.990966796875,55.79907989501953 L583.409423828125,57.1898193359375 L582.685302734375,59.09587860107422 L581.9691772460938,61.31532669067383 L581.3995361328125,63.565895080566406 L581.09765625,65.5638427734375 L581.0999145507812,67.10140991210938 L581.3804931640625,68.05967712402344 L581.8994140625,68.38615417480469 L582.6260375976562,68.07975006103516 L583.5337524414062,67.1649169921875 L584.6051635742188,65.73320007324219 L585.7650756835938,63.93194580078125 L586.9388427734375,61.98843002319336 L588.032470703125,60.167503356933594 L588.9591064453125,58.67839050292969 L589.66259765625,57.62390899658203 L590.1094970703125,57.052955627441406 L590.271240234375,56.98974609375 L590.1776123046875,57.49034881591797 L589.8682861328125,58.63222122192383 L589.4091186523438,60.41227340698242 L588.9052734375,62.7122917175293 L588.4442138671875,65.34866333007812 L588.0797729492188,68.1302719116211 L587.8328857421875,70.9161376953125 L587.6815185546875,73.62080383300781 L587.5639038085938,76.17214965820312 L587.4251098632812,78.4771957397461 L587.2158203125,80.43146514892578 L586.9181518554688,81.94568634033203 L586.5422973632812,82.99485778808594 L586.089111328125,83.60411834716797 L585.5430297851562,83.87055969238281 L584.854248046875,83.80946350097656 L584.0136108398438,83.43656921386719 L583.077880859375,82.77528381347656 L582.2900390625,82.08912658691406 L581.7823486328125,81.56871032714844 M592.1461181640625,51.801361083984375 L592.1942138671875,51.82950210571289 L592.2586669921875,52.01653289794922 L592.30810546875,52.49512481689453 L592.3023681640625,53.382240295410156 L592.2086181640625,54.71107864379883 L592.0258178710938,56.454551696777344 L591.7606201171875,58.55403518676758 L591.4328002929688,60.90699005126953 L591.0762329101562,63.396671295166016 L590.73974609375,65.89752960205078 L590.473876953125,68.25552368164062 L590.345458984375,70.3231201171875 L590.3834228515625,71.98226928710938 L590.5848388671875,73.16560363769531 L590.8319091796875,73.85958099365234 L591.0275268554688,74.169921875 M594.0498046875,67.49010467529297 L594.3074951171875,67.34706115722656 L594.7999267578125,67.05802917480469 L595.5374755859375,66.59651184082031 L596.4476928710938,65.96420288085938 L597.48046875,65.15589141845703 L598.5767211914062,64.20858001708984 L599.6642456054688,63.14767837524414 L600.6729736328125,62.01030731201172 L601.5422973632812,60.853111267089844 L602.1882934570312,59.71674346923828 L602.548583984375,58.66844940185547 L602.577880859375,57.788875579833984 L602.2459716796875,57.151519775390625 L601.5732421875,56.83617401123047 L600.6094970703125,56.95189666748047 L599.4205322265625,57.56637954711914 L598.1141967773438,58.71852493286133 L596.838623046875,60.36627197265625 L595.7579345703125,62.38929748535156 L595.031982421875,64.59343719482422 L594.75927734375,66.77088165283203 L594.9818725585938,68.70849609375 L595.6611938476562,70.24102783203125 L596.725830078125,71.26744079589844 L598.0687255859375,71.76746368408203 L599.5748901367188,71.7532730102539 L601.1241455078125,71.30116271972656 L602.6238403320312,70.44784545898438 L603.9694213867188,69.28094482421875 L605.0910034179688,67.9314956665039 L605.862548828125,66.77656555175781 L606.2786865234375,66.0193099975586 M624.150634765625,54.178199768066406 L624.1607055664062,53.74784851074219 L624.0980224609375,53.080562591552734 L623.9119262695312,52.30913162231445 L623.5546875,51.65203857421875 L623.01220703125,51.18710708618164 L622.27978515625,50.996131896972656 L621.354736328125,51.12525177001953 L620.2511596679688,51.65277862548828 L619.050537109375,52.644962310791016 L617.8570556640625,54.091026306152344 L616.811279296875,55.88780975341797 L616.0418701171875,57.85450744628906 L615.650146484375,59.75711441040039 L615.6903076171875,61.37583923339844 L616.1665649414062,62.54785919189453 L617.022705078125,63.166385650634766 L618.182861328125,63.19036865234375 L619.5458984375,62.6308708190918 L620.9909057617188,61.54771423339844 L622.3950805664062,60.0634765625 L623.6409301757812,58.340553283691406 L624.652587890625,56.566219329833984 L625.3837890625,54.941383361816406 L625.8408203125,53.61241149902344 L626.0641479492188,52.64997482299805 L626.12158203125,52.08145523071289 L626.080810546875,51.89778518676758 L625.9992065429688,52.12371063232422 L625.877685546875,52.8377799987793 L625.7081298828125,54.08610153198242 L625.501220703125,55.845252990722656 L625.2732543945312,58.028438568115234 L625.0511474609375,60.4927864074707 L624.8453979492188,63.1014289855957 L624.6424560546875,65.76268005371094 L624.4091186523438,68.39556884765625 L624.12939453125,70.92031860351562 L623.7711181640625,73.25624084472656 L623.3007202148438,75.32221984863281 L622.7022705078125,77.05006408691406 L621.98095703125,78.40552520751953 L621.1612548828125,79.3780517578125 L620.3057861328125,79.98027038574219 L619.4591674804688,80.17716979980469 L618.6610717773438,79.97661590576172 L617.96240234375,79.43221282958984 L617.4567260742188,78.82025146484375 L617.167724609375,78.35173797607422 M629.6221923828125,70.85169219970703 L629.6752319335938,70.86758422851562 L629.7221069335938,70.84227752685547 L629.7249755859375,70.76378631591797 L629.6688842773438,70.63877868652344 L629.5888671875,70.5123519897461 L629.520751953125,70.42591094970703 L629.48974609375,70.39008331298828 " fill="none" stroke="black" stroke-linecap="round" stroke-width="1" /></svg>