<?xml version="1.0" encoding="utf-8" ?>
<svg baseProfile="full" height="100%" version="1.1" viewBox="0,0,1000,120" width="100%" xmlns="http://www.w3.org/2000/svg" xmlns:ev="http://www.w3.org/2001/xml-events" xmlns:xlink="http://www.w3.org/1999/xlink"><defs /><rect fill="white" height="120" width="1000" x="0" y="0" /><path d="M0,0 M351.4637451171875,49.69477081298828 L351.43829345703125,49.62247848510742 L351.4599914550781,49.56928634643555 L351.5727844238281,49.651458740234375 L351.7894287109375,50.0448112487793 L352.0599060058594,50.90827178955078 L352.31365966796875,52.33823776245117 L352.5088195800781,54.3050651550293 L352.61767578125,56.66387176513672 L352.6771240234375,59.19867706298828 L352.7381286621094,61.708675384521484 L352.8421325683594,64.04940032958984 L352.97833251953125,66.11680603027344 L353.1016845703125,67.80683898925781 L353.1351623535156,69.0352783203125 L353.09942626953125,69.76136779785156 L353.0355529785156,70.0760726928711 M343.76348876953125,48.492469787597656 L343.7065124511719,48.399139404296875 L343.8011474609375,48.298526763916016 L344.2135009765625,48.238399505615234 L345.0922546386719,48.253257751464844 L346.4212951660156,48.30409622192383 L348.08941650390625,48.32253646850586 L349.95233154296875,48.26079559326172 L351.9200744628906,48.07278060913086 L353.8721008300781,47.76228713989258 L355.7151184082031,47.35418701171875 L357.126220703125,46.98011016845703 L357.97064208984375,46.72211837768555 M360.580322265625,45.0 L360.6571350097656,45.22441482543945 L360.84576416015625,45.79848098754883 L361.1627197265625,46.850807189941406 L361.5693359375,48.40361404418945 L361.9801025390625,50.401123046875 L362.3132019042969,52.734134674072266 L362.52508544921875,55.25821304321289 L362.62725830078125,57.80535125732422 L362.68145751953125,60.20179748535156 L362.7496337890625,62.26736068725586 L362.8446350097656,63.87317657470703 L362.9527893066406,64.976318359375 L363.051513671875,65.61258697509766 L363.1144104003906,65.83866882324219 L363.1620178222656,65.6612548828125 L363.2401123046875,65.02606201171875 L363.3941650390625,63.879310607910156 L363.68829345703125,62.2852897644043 L364.18414306640625,60.45040512084961 L364.9168395996094,58.66466522216797 L365.87152099609375,57.169551849365234 L366.9908447265625,56.12348175048828 L368.18109130859375,55.57890701293945 L369.35150146484375,55.551597595214844 L370.41937255859375,56.038204193115234 L371.326171875,57.01900100708008 L372.0265808105469,58.4147834777832 L372.5181579589844,60.07844924926758 L372.8340759277344,61.80292510986328 L373.0367126464844,63.37507629394531 L373.1804504394531,64.6232681274414 L373.31610107421875,65.43312072753906 L373.50421142578125,65.73491668701172 L373.8244323730469,65.44953155517578 L374.3286437988281,64.5056381225586 L375.0244445800781,62.92753982543945 L375.85260009765625,60.94377899169922 L376.6918029785156,58.91852951049805 L377.4363098144531,57.252952575683594 L378.05291748046875,56.220069885253906 L378.5589294433594,55.8836784362793 L379.0101013183594,56.171234130859375 L379.45867919921875,56.99466323852539 L379.8660583496094,58.234352111816406 L380.1846618652344,59.75523376464844 L380.3814392089844,61.38197708129883 L380.4638671875,62.92705535888672 L380.4681701660156,64.15018463134766 L380.44915771484375,64.8764877319336 L380.4178466796875,65.03527069091797 L380.3927001953125,64.84402465820312 L380.3746643066406,64.54981994628906 M378.10589599609375,49.40949249267578 L378.1551818847656,49.33553695678711 L378.30401611328125,49.288909912109375 L378.4930114746094,49.27949905395508 L378.6628112792969,49.31718063354492 M392.1969909667969,54.6758918762207 L392.0843811035156,54.491859436035156 L391.8096923828125,54.1942138671875 L391.28692626953125,53.85758972167969 L390.4730224609375,53.62354278564453 L389.35595703125,53.57127380371094 L388.0167541503906,53.730079650878906 L386.6755065917969,54.0721549987793 L385.5515441894531,54.5284309387207 L384.85528564453125,55.04985046386719 L384.72735595703125,55.62495422363281 L385.19134521484375,56.23835372924805 L386.2217102050781,56.883060455322266 L387.7668762207031,57.56578826904297 L389.6900634765625,58.29789733886719 L391.81549072265625,59.10154342651367 L393.90704345703125,59.98971176147461 L395.7176818847656,60.931968688964844 L397.0617980957031,61.876251220703125 L397.83319091796875,62.77455139160156 L398.015625,63.61325454711914 L397.6259765625,64.37242889404297 L396.6750183105469,65.0147705078125 L395.22064208984375,65.50013732910156 L393.3201904296875,65.77106475830078 L391.1448059082031,65.80520629882812 L388.9571838378906,65.6552505493164 L387.2451171875,65.44734191894531 L386.214599609375,65.27796173095703 M414.80242919921875,53.81959533691406 L414.8681640625,53.77439498901367 L414.9756164550781,53.74433898925781 L415.1139831542969,53.829471588134766 L415.2605895996094,54.17953872680664 L415.41754150390625,54.923423767089844 L415.57110595703125,56.078895568847656 L415.70751953125,57.54719924926758 L415.8215026855469,59.148895263671875 L415.92254638671875,60.70790481567383 L416.0343322753906,62.12989044189453 L416.1705627441406,63.38752746582031 L416.3261413574219,64.41107940673828 L416.4618225097656,65.10893249511719 L416.5461730957031,65.39297485351562 L416.5783386230469,65.37129211425781 L416.5782470703125,65.21549987792969 M414.2482604980469,46.925254821777344 L414.2503662109375,46.847801208496094 L414.26812744140625,46.75706481933594 L414.2936706542969,46.68203353881836 L414.3191833496094,46.65169906616211 M427.6391906738281,53.630271911621094 L427.4240417480469,53.48216247558594 L426.9691467285156,53.278987884521484 L426.2297058105469,53.0958137512207 L425.2340393066406,53.03205490112305 L424.0729675292969,53.117713928222656 L422.8978271484375,53.334266662597656 L421.8970642089844,53.638031005859375 L421.2535705566406,53.99283218383789 L421.1136474609375,54.3924446105957 L421.52764892578125,54.84265899658203 L422.509521484375,55.36404800415039 L423.9657897949219,55.95766067504883 L425.7617492675781,56.63240432739258 L427.7171325683594,57.398468017578125 L429.6286926269531,58.270755767822266 L431.2930603027344,59.245121002197266 L432.5557556152344,60.2950553894043 L433.29571533203125,61.3616943359375 L433.48101806640625,62.36931610107422 L433.13323974609375,63.246925354003906 L432.28546142578125,63.928348541259766 L431.00274658203125,64.36941528320312 L429.3653869628906,64.55464935302734 L427.46337890625,64.49604034423828 L425.4178466796875,64.22042846679688 L423.35595703125,63.7813720703125 L421.38433837890625,63.2402458190918 L419.602294921875,62.646278381347656 L418.1064758300781,62.057735443115234 L416.9533386230469,61.520423889160156 L416.21600341796875,61.120147705078125 L415.8506164550781,60.886070251464844 M460.52618408203125,56.54603958129883 L460.4193115234375,56.15175247192383 L460.2088317871094,55.53200912475586 L459.87615966796875,54.80350875854492 L459.38348388671875,54.17839813232422 L458.64501953125,53.75995635986328 L457.61090087890625,53.668025970458984 L456.2716064453125,54.00068283081055 L454.71417236328125,54.83314514160156 L453.12744140625,56.17765808105469 L451.6997985839844,57.93527603149414 L450.6038818359375,59.897666931152344 L449.9498596191406,61.818511962890625 L449.7816162109375,63.45911407470703 L450.09320068359375,64.63333129882812 L450.85498046875,65.23902130126953 L451.9869079589844,65.228271484375 L453.4035339355469,64.58753967285156 L454.9749755859375,63.35585021972656 L456.5779724121094,61.650943756103516 L458.0999755859375,59.68360900878906 L459.432861328125,57.74449920654297 L460.48187255859375,56.10865020751953 L461.20794677734375,54.917999267578125 L461.60601806640625,54.18808364868164 L461.7536926269531,53.88813781738281 L461.78857421875,54.01980972290039 L461.8214111328125,54.64860153198242 L461.9267578125,55.832157135009766 L462.1489562988281,57.46147155761719 L462.50238037109375,59.309566497802734 L462.9710693359375,61.12396240234375 L463.5938415527344,62.72185134887695 L464.3594970703125,64.00846099853516 L465.2294616699219,64.97602844238281 L465.98284912109375,65.58673858642578 L466.491455078125,65.88697814941406 M495.4647521972656,60.747283935546875 L495.46356201171875,60.37379455566406 L495.3933410644531,59.76380157470703 L495.18707275390625,58.995296478271484 L494.767578125,58.23758316040039 L494.0821533203125,57.56279373168945 L493.1007385253906,57.052005767822266 L491.85308837890625,56.77227783203125 L490.4144287109375,56.819000244140625 L488.91162109375,57.26750946044922 L487.48321533203125,58.17262649536133 L486.2541809082031,59.51309585571289 L485.30120849609375,61.200103759765625 L484.70819091796875,63.044525146484375 L484.52081298828125,64.80662536621094 L484.7569580078125,66.24613189697266 L485.4013671875,67.20919036865234 L486.40625,67.61817932128906 L487.6903076171875,67.46983337402344 L489.183837890625,66.77831268310547 L490.77825927734375,65.54969787597656 L492.35821533203125,63.80396270751953 L493.8124084472656,61.60433578491211 L495.071044921875,59.071964263916016 L496.10504150390625,56.38964080810547 L496.93414306640625,53.76405334472656 L497.5743408203125,51.391075134277344 L498.02734375,49.430809020996094 L498.3038330078125,47.96955871582031 L498.44189453125,47.023345947265625 L498.485595703125,46.58919906616211 L498.48638916015625,46.65673828125 L498.46514892578125,47.26909255981445 L498.386962890625,48.4653205871582 L498.219970703125,50.217594146728516 L497.97308349609375,52.397254943847656 L497.6887512207031,54.83018493652344 L497.4505615234375,57.305904388427734 L497.3590393066406,59.65924072265625 L497.46875,61.755592346191406 L497.784912109375,63.48969268798828 L498.2964782714844,64.77303314208984 L498.97833251953125,65.5652847290039 L499.8105163574219,65.8342514038086 L500.80767822265625,65.57157897949219 L501.966552734375,64.80548858642578 L503.23480224609375,63.61746597290039 L504.5191345214844,62.121891021728516 L505.70880126953125,60.49052047729492 L506.6593933105469,58.88658905029297 L507.28857421875,57.440406799316406 L507.57550048828125,56.238800048828125 L507.53076171875,55.3312873840332 L507.19500732421875,54.742374420166016 L506.620361328125,54.5340576171875 L505.82501220703125,54.783294677734375 L504.8638916015625,55.54359436035156 L503.8395080566406,56.79386520385742 L502.891357421875,58.4170036315918 L502.19000244140625,60.22016143798828 L501.86944580078125,62.006324768066406 L502.0072326660156,63.60886764526367 L502.61181640625,64.8990707397461 L503.6240234375,65.78959655761719 L505.0010986328125,66.15763854980469 L506.6319274902344,65.95355224609375 L508.3484191894531,65.24081420898438 L509.74810791015625,64.40888214111328 L510.6238708496094,63.762115478515625 M513.6869506835938,54.825294494628906 L513.7382202148438,54.94862747192383 L513.840576171875,55.33070373535156 L513.9871826171875,56.093719482421875 L514.1284790039062,57.263343811035156 L514.21533203125,58.742340087890625 L514.2290649414062,60.34993362426758 L514.206787109375,61.86121368408203 L514.1873779296875,63.09064483642578 L514.213134765625,63.95093536376953 L514.2819213867188,64.41810607910156 L514.36474609375,64.49226379394531 L514.4404296875,64.1313705444336 L514.5620727539062,63.265296936035156 L514.7904052734375,61.918540954589844 L515.2220458984375,60.27821731567383 L515.9051513671875,58.60617446899414 L516.8043212890625,57.158443450927734 L517.8202514648438,56.075042724609375 L518.8656005859375,55.39469528198242 L519.8519897460938,55.1416130065918 L520.734375,55.379661560058594 L521.4617309570312,56.12709045410156 L521.9776611328125,57.34330368041992 L522.2559814453125,58.86503219604492 L522.3363037109375,60.42848587036133 L522.2877197265625,61.783409118652344 L522.211669921875,62.77688980102539 L522.1980590820312,63.32090377807617 L522.3145751953125,63.40024948120117 L522.61767578125,62.99409484863281 L523.1585693359375,62.07854461669922 L523.9373779296875,60.74406814575195 L524.9310302734375,59.216094970703125 L526.0796508789062,57.767574310302734 L527.3160400390625,56.65393829345703 L528.568115234375,56.01347351074219 L529.7741088867188,55.88560104370117 L530.8668823242188,56.2681999206543 L531.7965698242188,57.13002014160156 L532.5296020507812,58.36896896362305 L533.075927734375,59.81581497192383 L533.472900390625,61.267364501953125 L533.7680053710938,62.5586051940918 L534.0332641601562,63.55301284790039 L534.3236083984375,64.19036865234375 L534.67236328125,64.46682739257812 L534.9950561523438,64.49687194824219 L535.2273559570312,64.4178237915039 M542.0458984375,58.43989181518555 L542.0185546875,58.12458801269531 L541.9265747070312,57.62932586669922 L541.731201171875,57.03876876831055 L541.39697265625,56.516143798828125 L540.8868408203125,56.14555740356445 L540.1940307617188,56.00712585449219 L539.3336791992188,56.17079544067383 L538.3613891601562,56.713294982910156 L537.381103515625,57.66691970825195 L536.524169921875,58.98023223876953 L535.9109497070312,60.50724792480469 L535.6546020507812,62.03934860229492 L535.8074951171875,63.3689079284668 L536.3758544921875,64.34442138671875 L537.301513671875,64.90132141113281 L538.4811401367188,65.02588653564453 L539.7677612304688,64.73628234863281 L541.0242919921875,64.0648193359375 L542.1009521484375,63.04925537109375 L542.8831176757812,61.763816833496094 L543.2952270507812,60.33793640136719 L543.3140869140625,58.92305374145508 L542.9749145507812,57.670448303222656 L542.4205322265625,56.6925163269043 L541.8115844726562,56.01902770996094 L541.3348388671875,55.636192321777344 L541.0687866210938,55.47224426269531 M567.5657348632812,56.909507751464844 L567.5494384765625,56.6011848449707 L567.4683837890625,56.1042366027832 L567.2510375976562,55.49302291870117 L566.8172607421875,54.92932891845703 L566.1041259765625,54.52758026123047 L565.0785522460938,54.38084411621094 L563.764404296875,54.5782585144043 L562.2656860351562,55.193885803222656 L560.7391967773438,56.231170654296875 L559.3727416992188,57.623470306396484 L558.3416137695312,59.24469757080078 L557.7581176757812,60.90949630737305 L557.6846923828125,62.43752670288086 L558.1312255859375,63.67079162597656 L559.0406494140625,64.48187255859375 L560.3158569335938,64.79698944091797 L561.8111572265625,64.60594940185547 L563.3692626953125,63.95148849487305 L564.846435546875,62.91453552246094 L566.1267700195312,61.594581604003906 L567.1107177734375,60.091251373291016 L567.7570190429688,58.5279426574707 L568.0572509765625,57.06688690185547 L568.076416015625,55.87216567993164 L567.92041015625,55.04562759399414 L567.7122802734375,54.5894660949707 L567.5455322265625,54.40695571899414 L567.4589233398438,54.3687744140625 M575.4202880859375,48.17017364501953 L575.3772583007812,47.56652069091797 L575.2902221679688,46.72813415527344 L575.14794921875,45.88453674316406 L574.953857421875,45.35539245605469 L574.6988525390625,45.219017028808594 L574.3795166015625,45.523033142089844 L574.01318359375,46.28025817871094 L573.623046875,47.52277755737305 L573.2410278320312,49.22247314453125 L572.9056396484375,51.284767150878906 L572.632568359375,53.59718704223633 L572.4273071289062,56.0572509765625 L572.3206176757812,58.59857940673828 L572.31884765625,61.179649353027344 L572.4113159179688,63.7464714050293 L572.5653076171875,66.19313049316406 L572.7288818359375,68.36541748046875 L572.86328125,70.12503814697266 L572.9534912109375,71.3842544555664 L572.9556884765625,72.0046615600586 L572.8406982421875,71.94275665283203 L572.6032104492188,71.22813415527344 L572.3405151367188,70.29792022705078 L572.1408081054688,69.530517578125 M569.248779296875,59.742835998535156 L569.274169921875,59.70049285888672 L569.477294921875,59.65544128417969 L570.1002197265625,59.610389709472656 L571.2625732421875,59.5605583190918 L572.9029541015625,59.47356033325195 L574.4630126953125,59.375633239746094 L575.5489501953125,59.292301177978516 M602.794677734375,57.6544303894043 L602.7750244140625,57.31602096557617 L602.6234130859375,56.73720932006836 L602.2354736328125,55.98878479003906 L601.5205078125,55.2430534362793 L600.459716796875,54.59882354736328 L599.0777587890625,54.11475372314453 L597.4625244140625,53.80371856689453 L595.7508544921875,53.66111373901367 L594.10595703125,53.678794860839844 L592.6710205078125,53.84492111206055 L591.5614624023438,54.15328598022461 L590.85546875,54.60443878173828 L590.6246337890625,55.20635223388672 L590.9190063476562,55.964935302734375 L591.75390625,56.86769104003906 L593.079345703125,57.86850357055664 L594.771240234375,58.93385314941406 L596.63427734375,60.04692077636719 L598.4337768554688,61.186546325683594 L599.9223022460938,62.32645797729492 L600.9075927734375,63.42109680175781 L601.2977294921875,64.41077423095703 L601.092529296875,65.25291442871094 L600.3427124023438,65.92527770996094 L599.118408203125,66.40068054199219 L597.4926147460938,66.66122436523438 L595.5745849609375,66.71703338623047 L593.5169677734375,66.59439086914062 L591.5008544921875,66.32749938964844 L589.6968994140625,65.96168518066406 L588.211669921875,65.52012634277344 L587.1668090820312,64.95556640625 L586.639892578125,64.24922943115234 L586.6341552734375,63.40252685546875 L586.9100341796875,62.63675308227539 L587.2352905273438,62.10990524291992 M604.803955078125,46.01202392578125 L604.834716796875,46.150115966796875 L604.905029296875,46.58887481689453 L605.0177612304688,47.464881896972656 L605.1531982421875,48.80803298950195 L605.2723388671875,50.52634048461914 L605.3651733398438,52.51220703125 L605.429931640625,54.66433334350586 L605.486572265625,56.89556884765625 L605.55908203125,59.117271423339844 L605.6705322265625,61.2107048034668 L605.8267211914062,63.05209732055664 L606.0006103515625,64.4869384765625 L606.1344604492188,65.40811920166016 L606.1722412109375,65.79679107666016 L606.130859375,65.82242584228516 L606.0579223632812,65.69317626953125 M602.2212524414062,57.8548698425293 L602.451416015625,57.93022537231445 L603.005859375,58.0377197265625 L603.9512939453125,58.110713958740234 L605.2586669921875,58.05172348022461 L606.8351440429688,57.79213333129883 L608.5340576171875,57.317657470703125 L610.2205810546875,56.67109680175781 L611.7833251953125,55.91598892211914 L613.0904541015625,55.13005828857422 L614.0740966796875,54.393882751464844 L614.71923828125,53.78162384033203 L615.0393676757812,53.38774108886719 L615.0850830078125,53.30839157104492 L614.9037475585938,53.61161804199219 L614.5274658203125,54.355552673339844 L614.0272216796875,55.51692199707031 L613.52490234375,56.98049545288086 L613.1510009765625,58.571319580078125 L613.036376953125,60.088016510009766 L613.2591552734375,61.3438720703125 L613.8555297851562,62.22111892700195 L614.794677734375,62.64900588989258 L616.0101318359375,62.60765075683594 L617.4022216796875,62.109344482421875 L618.8548583984375,61.20288848876953 L620.2548828125,59.99311828613281 L621.521240234375,58.63760757446289 L622.5695190429688,57.335609436035156 L623.3468017578125,56.25960159301758 L623.8494873046875,55.502777099609375 L624.106689453125,55.088558197021484 L624.197509765625,55.032737731933594 L624.2164306640625,55.36410140991211 L624.2239990234375,56.157554626464844 L624.2332153320312,57.44214630126953 L624.238037109375,59.17476272583008 L624.211181640625,61.24982452392578 L624.150634765625,63.54844284057617 L624.0654296875,65.93807220458984 L623.9623413085938,68.32090759277344 L623.8264770507812,70.58483123779297 L623.615966796875,72.6324691772461 L623.2515869140625,74.39115142822266 L622.6546630859375,75.82925415039062 L621.7625732421875,76.92731475830078 L620.5548095703125,77.68888854980469 L619.0921630859375,78.13117218017578 L617.423828125,78.18781280517578 L615.6593017578125,77.82420349121094 L613.9334106445312,77.06957244873047 L612.5862426757812,76.25044250488281 L611.7631225585938,75.62206268310547 M625.9905395507812,46.950706481933594 L626.0714721679688,47.211395263671875 L626.21923828125,47.800662994384766 L626.4235229492188,48.78784942626953 L626.6334228515625,50.12725067138672 L626.8236694335938,51.74033737182617 L626.9656982421875,53.527931213378906 L627.056884765625,55.40241622924805 L627.14599609375,57.29644012451172 L627.2813720703125,59.104854583740234 L627.4769287109375,60.706172943115234 L627.6781005859375,61.86565017700195 L627.828369140625,62.518638610839844 M631.5630493164062,62.59755325317383 L631.9337158203125,62.43534469604492 L632.6826171875,62.054317474365234 L633.8148193359375,61.40723419189453 L635.1814575195312,60.52231979370117 L636.6271362304688,59.469886779785156 L637.9651489257812,58.30790328979492 L639.0877075195312,57.12435531616211 L639.9175415039062,55.99045944213867 L640.3950805664062,54.97783279418945 L640.49267578125,54.143280029296875 L640.20166015625,53.530479431152344 L639.5106201171875,53.16844940185547 L638.4599609375,53.1292610168457 L637.1331787109375,53.468170166015625 L635.6427001953125,54.21553421020508 L634.1741333007812,55.324851989746094 L632.9345703125,56.69013214111328 L632.125,58.16941833496094 L631.8760375976562,59.642250061035156 L632.3837280273438,60.99042892456055 L633.6652221679688,62.11563491821289 L635.600830078125,62.938106536865234 L637.484130859375,63.425106048583984 L638.8292846679688,63.63370132446289 M655.2171630859375,62.52066421508789 L655.5445556640625,62.00820541381836 L656.158935546875,61.04236602783203 L657.0372314453125,59.63563919067383 L658.0672607421875,57.945274353027344 L659.1727294921875,56.073150634765625 L660.2713623046875,54.09503936767578 L661.3187255859375,52.120357513427734 L662.26513671875,50.29306411743164 L663.052734375,48.7774772644043 L663.6475830078125,47.67511749267578 L664.0423583984375,47.0008544921875 L664.2601318359375,46.6875 L664.336181640625,46.72404479980469 L664.2977905273438,47.165809631347656 L664.1390991210938,48.125614166259766 L663.8397216796875,49.63963317871094 L663.41943359375,51.640682220458984 L662.9320068359375,53.948402404785156 L662.468017578125,56.364898681640625 L662.119873046875,58.74117660522461 L661.932861328125,60.947601318359375 L661.8941650390625,62.8594856262207 L661.9388427734375,64.22960662841797 L661.9960327148438,64.99661254882812 M669.4877319335938,54.816341400146484 L669.644287109375,54.19188690185547 L669.9694213867188,53.1611328125 L670.461669921875,51.883331298828125 L671.0283813476562,50.65543746948242 L671.5882568359375,49.60906982421875 L672.0745239257812,48.791343688964844 L672.46337890625,48.16999053955078 L672.79541015625,47.74018859863281 L673.1103515625,47.52277755737305 L673.425537109375,47.53506088256836 L673.7578125,47.82041931152344 L674.0992431640625,48.39612579345703 L674.4271240234375,49.288578033447266 L674.7276611328125,50.49854278564453 L674.965087890625,51.984474182128906 L675.11669921875,53.651527404785156 L675.162841796875,55.38389205932617 L675.118408203125,57.053104400634766 L675.0098266601562,58.57503128051758 L674.8673706054688,59.883934020996094 L674.7003173828125,60.944175720214844 L674.5299682617188,61.73854446411133 L674.357421875,62.262351989746094 L674.214111328125,62.51251983642578 L674.128662109375,62.451900482177734 L674.1456298828125,62.0287971496582 L674.30029296875,61.19308853149414 L674.637451171875,59.946720123291016 L675.1644287109375,58.3728141784668 L675.8826904296875,56.61402130126953 L676.7552490234375,54.787933349609375 L677.7506103515625,53.007049560546875 L678.8307495117188,51.344879150390625 L679.9632568359375,49.86393737792969 L681.1217041015625,48.623226165771484 L682.3053588867188,47.71859359741211 L683.459228515625,47.194496154785156 L684.525146484375,47.05564880371094 L685.3260498046875,47.14898681640625 L685.7914428710938,47.311187744140625 M688.1630859375,64.91963195800781 L688.1444702148438,64.88114166259766 L688.13232421875,64.80875396728516 L688.1300048828125,64.71161651611328 L688.1253662109375,64.59800720214844 L688.1064453125,64.49565124511719 L688.082275390625,64.4234619140625 " fill="none" stroke="black" stroke-linecap="round" stroke-width="1" /></svg>